SplineFontDB: 1.0
FontName: OpenSymbol
FullName: OpenSymbol
FamilyName: OpenSymbol
Weight: Book
Copyright: (c) 2003 Sun Microsystems Inc.
Version: 1.7
ItalicAngle: 0
UnderlinePosition: -133
UnderlineWidth: 20
Ascent: 1878
Descent: 170
NeedsXUIDChange: 1
FSType: 8
PfmFamily: 81
TTFWeight: 400
TTFWidth: 5
Panose: 5 1 0 0 0 0 0 0 0 0
LineGap: 0
VLineGap: 0
ScriptLang: 1
 1 DFLT 1 dflt 
LangName: 1033 "" "" "Regular" "OpenSymbol" "" "Version 1.7" 
Encoding: compacted
OldEncoding: unicode
UnicodeInterp: none
DisplaySize: -24
AntiAlias: 1
FitToEm: 1
WinInfo: 152 38 19
Grid
-39 1485 m 25
 2229 1485 l 25
EndSplineSet
BeginChars: 888 888
StartChar: .notdef
Encoding: 0 -1 0
OldEncoding: 0
Width: 1024
VWidth: 1000
Flags: W
HStem: 0 129<256 897> 1511 127<129 768>
VStem: 129 127<0 1511> 768 129<129 1638>
Fore
129 0 m 1
 129 1638 l 1
 897 1638 l 1
 897 0 l 1
 129 0 l 1
256 129 m 1
 768 129 l 1
 768 1511 l 1
 256 1511 l 1
 256 129 l 1
EndSplineSet
EndChar
StartChar: exclam
Encoding: 3 33 3
OldEncoding: 33
Width: 606
VWidth: 1000
Flags: HW
Fore
319 358 m 1
 281 358 l 1
 221 803 l 1
 198 980 186 1128 186 1247 c 0
 186 1284 197 1317 217 1345 c 0
 238 1373 266 1386 301 1386 c 0
 376 1386 414 1337 414 1237 c 0
 414 1118 402 971 379 797 c 1
 319 358 l 1
299 193 m 0
 328 193 353 182 376 160 c 0
 398 138 410 113 410 84 c 0
 410 54 399 27 377 4 c 0
 355 -18 329 -29 299 -29 c 0
 269 -29 243 -17 221 5 c 0
 199 28 188 54 188 84 c 0
 188 113 200 138 222 160 c 0
 245 182 270 193 299 193 c 0
EndSplineSet
EndChar
StartChar: quotedbl
Encoding: 4 34 4
OldEncoding: 34
Width: 727
VWidth: 1000
Flags: HW
Fore
143 946 m 1
 111 1085 l 1
 100 1140 94 1187 94 1227 c 2
 94 1466 l 1
 299 1466 l 1
 299 1227 l 2
 299 1180 284 1087 254 946 c 1
 143 946 l 1
475 946 m 1
 442 1085 l 1
 431 1140 426 1187 426 1227 c 2
 426 1466 l 1
 631 1466 l 1
 631 1227 l 2
 631 1194 615 1100 584 946 c 1
 475 946 l 1
EndSplineSet
EndChar
StartChar: numbersign
Encoding: 5 35 5
OldEncoding: 35
Width: 1138
VWidth: 1000
Flags: HW
Fore
102 -25 m 1
 188 401 l 1
 20 401 l 1
 20 551 l 1
 219 551 l 1
 293 913 l 1
 20 913 l 1
 20 1063 l 1
 324 1063 l 1
 412 1491 l 1
 559 1491 l 1
 473 1063 l 1
 788 1063 l 1
 877 1491 l 1
 1026 1491 l 1
 938 1063 l 1
 1112 1063 l 1
 1112 913 l 1
 909 913 l 1
 834 551 l 1
 1112 551 l 1
 1112 401 l 1
 805 401 l 1
 719 -25 l 1
 567 -25 l 1
 653 401 l 1
 340 401 l 1
 254 -25 l 1
 102 -25 l 1
369 551 m 1
 684 551 l 1
 758 913 l 1
 444 913 l 1
 369 551 l 1
EndSplineSet
EndChar
StartChar: percent
Encoding: 6 37 6
OldEncoding: 37
Width: 1705
VWidth: 1000
Flags: HW
Fore
289 1386 m 0
 382 1386 455 1347 508 1268 c 0
 553 1199 575 1116 575 1018 c 0
 575 921 553 838 508 770 c 0
 456 692 384 653 291 653 c 0
 199 653 126 692 72 770 c 0
 24 840 -0 922 0 1018 c 0
 0 1112 24 1195 72 1266 c 0
 126 1346 199 1386 289 1386 c 0
291 1331 m 0
 203 1331 160 1227 160 1020 c 0
 160 810 202 705 287 705 c 0
 374 705 418 808 418 1014 c 0
 418 1225 375 1331 291 1331 c 0
1321 1386 m 1
 332 -55 l 1
 244 -55 l 1
 1231 1386 l 1
 1321 1386 l 1
1278 674 m 0
 1369 674 1441 634 1493 555 c 0
 1539 485 1563 403 1563 307 c 0
 1563 212 1540 130 1495 61 c 0
 1442 -16 1369 -55 1278 -55 c 0
 1188 -55 1115 -16 1061 61 c 0
 1012 132 987 214 987 307 c 0
 987 403 1011 485 1059 555 c 0
 1113 634 1186 674 1278 674 c 0
1278 621 m 0
 1191 621 1147 514 1147 301 c 0
 1147 100 1190 0 1276 0 c 0
 1362 0 1405 102 1405 305 c 0
 1405 515 1363 621 1278 621 c 0
EndSplineSet
EndChar
StartChar: ampersand
Encoding: 7 38 7
OldEncoding: 38
Width: 1593
VWidth: 1000
Flags: HW
Fore
971 872 m 1
 1391 872 l 1
 1391 836 l 1
 1340 830 1297 818 1262 799 c 0
 1242 789 1189 714 1102 573 c 0
 999 410 943 322 934 309 c 1
 1040 185 1140 123 1233 123 c 0
 1328 123 1391 172 1419 270 c 1
 1456 244 l 1
 1410 61 1307 -31 1147 -31 c 0
 1032 -31 915 34 795 164 c 1
 644 34 499 -31 358 -31 c 0
 260 -31 177 -6 111 43 c 0
 37 98 0 173 0 268 c 0
 0 451 139 614 416 758 c 1
 361 879 334 978 334 1055 c 0
 334 1156 366 1236 431 1296 c 0
 496 1356 580 1386 682 1386 c 0
 758 1386 823 1365 874 1321 c 0
 926 1277 952 1218 952 1143 c 0
 952 1010 842 890 623 782 c 1
 717 620 805 482 887 369 c 1
 1004 509 1063 627 1063 721 c 0
 1063 799 1032 837 971 836 c 1
 971 872 l 1
588 848 m 1
 753 926 836 1025 836 1147 c 0
 836 1193 821 1233 792 1265 c 0
 762 1297 725 1313 680 1313 c 0
 628 1313 586 1295 553 1261 c 0
 520 1226 504 1182 504 1130 c 0
 504 1068 532 973 588 848 c 1
743 221 m 1
 603 414 504 570 449 690 c 1
 287 601 207 491 207 358 c 0
 207 281 230 216 276 166 c 0
 323 115 385 90 463 90 c 0
 543 90 637 134 743 221 c 1
EndSplineSet
EndChar
StartChar: parenleft
Encoding: 8 40 8
OldEncoding: 40
Width: 696
VWidth: 1000
Flags: HW
Fore
573 -434 m 1
 573 -483 l 1
 306 -259 172 115 172 641 c 0
 172 1172 306 1548 573 1767 c 1
 573 1716 l 1
 378 1524 281 1165 281 641 c 0
 281 111 378 -247 573 -434 c 1
EndSplineSet
EndChar
StartChar: parenright
Encoding: 9 41 9
OldEncoding: 41
Width: 696
VWidth: 1000
Flags: HW
Fore
123 -434 m 1
 318 -246 416 113 416 641 c 0
 416 1163 318 1521 123 1716 c 1
 123 1767 l 1
 269 1651 375 1480 442 1253 c 0
 497 1073 524 869 524 641 c 0
 524 109 390 -266 123 -483 c 1
 123 -434 l 1
EndSplineSet
EndChar
StartChar: asterisk
Encoding: 10 42 10
OldEncoding: 42
Width: 796
VWidth: 1000
Flags: HW
Fore
63 1196 m 1
 111 1339 l 1
 169 1319 246 1286 340 1241 c 1
 337 1289 330 1372 319 1491 c 1
 467 1491 l 1
 466 1421 457 1339 442 1243 c 1
 508 1277 587 1309 680 1339 c 1
 725 1196 l 1
 643 1170 560 1152 475 1141 c 1
 509 1112 567 1049 647 952 c 1
 528 866 l 1
 479 935 433 1006 391 1081 c 1
 362 1031 319 959 260 866 c 1
 141 952 l 1
 181 1003 236 1066 307 1141 c 1
 236 1154 155 1173 63 1196 c 1
EndSplineSet
EndChar
StartChar: plus
Encoding: 11 43 11
OldEncoding: 43
Width: 1196
VWidth: 1000
Flags: HW
Fore
512 115 m 1
 512 516 l 1
 115 516 l 1
 115 684 l 1
 512 684 l 1
 512 1083 l 1
 682 1083 l 1
 682 684 l 1
 1081 684 l 1
 1081 516 l 1
 682 516 l 1
 682 115 l 1
 512 115 l 1
EndSplineSet
EndChar
StartChar: comma
Encoding: 12 44 12
OldEncoding: 44
Width: 512
VWidth: 1000
Flags: HW
Fore
111 -342 m 1
 111 -297 l 1
 171 -276 221 -245 260 -203 c 0
 304 -154 326 -100 326 -41 c 1
 317 -8 l 1
 303 0 l 1
 217 -29 l 1
 146 -29 111 8 111 82 c 0
 111 116 124 144 150 167 c 0
 175 189 205 201 240 201 c 0
 290 201 332 177 365 131 c 0
 393 90 408 43 408 -10 c 0
 408 -166 309 -276 111 -342 c 1
EndSplineSet
EndChar
StartChar: hyphen
Encoding: 13 45 13
OldEncoding: 45
Width: 681
VWidth: 1000
Flags: HW
Fore
66 502 m 1
 66 682 l 1
 618 682 l 1
 618 502 l 1
 66 502 l 1
EndSplineSet
EndChar
StartChar: period
Encoding: 14 46 14
OldEncoding: 46
Width: 512
VWidth: 1000
Flags: HW
Fore
256 195 m 0
 286 195 312 184 334 162 c 0
 356 140 367 114 367 84 c 0
 367 54 356 27 334 4 c 0
 312 -18 286 -29 256 -29 c 0
 226 -29 200 -17 178 5 c 0
 156 28 145 54 145 84 c 0
 145 114 156 140 178 162 c 0
 200 184 226 195 256 195 c 0
EndSplineSet
EndChar
StartChar: slash
Encoding: 15 47 15
OldEncoding: 47
Width: 569
VWidth: 1000
Flags: HW
Fore
0 -25 m 1
 426 1491 l 1
 569 1491 l 1
 145 -25 l 1
 0 -25 l 1
EndSplineSet
EndChar
StartChar: colon
Encoding: 16 58 16
OldEncoding: 58
Width: 569
VWidth: 1000
Flags: HW
Fore
289 944 m 0
 319 944 345 933 367 911 c 0
 388 890 399 864 399 834 c 0
 399 803 388 778 367 756 c 0
 345 734 319 723 289 723 c 0
 259 723 233 734 211 756 c 0
 189 778 178 803 178 834 c 0
 178 864 189 890 211 911 c 0
 233 933 259 944 289 944 c 0
287 195 m 0
 317 195 343 184 366 162 c 0
 388 140 399 114 399 84 c 0
 399 54 388 27 365 4 c 0
 343 -18 317 -29 287 -29 c 0
 257 -29 231 -17 209 5 c 0
 187 28 176 54 176 84 c 0
 176 114 187 140 209 162 c 0
 231 184 257 195 287 195 c 0
EndSplineSet
EndChar
StartChar: semicolon
Encoding: 17 59 17
OldEncoding: 59
Width: 569
VWidth: 1000
Flags: HW
Fore
283 944 m 0
 311 944 337 933 359 911 c 0
 382 890 393 864 393 836 c 0
 393 806 382 780 360 758 c 0
 339 736 313 725 283 725 c 0
 253 725 226 736 204 758 c 0
 181 780 170 806 170 836 c 0
 170 866 181 891 204 912 c 0
 226 934 253 944 283 944 c 0
141 -342 m 1
 141 -297 l 1
 203 -276 253 -245 293 -203 c 0
 337 -155 358 -101 358 -41 c 0
 358 -20 351 -7 336 0 c 1
 250 -29 l 1
 177 -29 141 8 141 82 c 0
 141 115 154 143 180 166 c 0
 206 189 236 201 270 201 c 0
 322 201 365 178 397 133 c 0
 426 92 440 44 440 -10 c 0
 440 -166 341 -276 141 -342 c 1
EndSplineSet
EndChar
StartChar: less
Encoding: 18 60 18
OldEncoding: 60
Width: 1196
VWidth: 1000
Flags: HW
Fore
113 518 m 1
 113 686 l 1
 1083 1096 l 1
 1083 918 l 1
 313 602 l 1
 1083 283 l 1
 1083 102 l 1
 113 518 l 1
EndSplineSet
EndChar
StartChar: equal
Encoding: 19 61 19
OldEncoding: 61
Width: 1628
VWidth: 1000
Flags: HW
Fore
221 358 m 1
 221 457 l 1
 1405 457 l 1
 1405 358 l 1
 221 358 l 1
221 791 m 1
 221 889 l 1
 1405 889 l 1
 1405 791 l 1
 221 791 l 1
EndSplineSet
EndChar
StartChar: greater
Encoding: 20 62 20
OldEncoding: 62
Width: 1196
VWidth: 1000
Flags: HW
Fore
1083 518 m 1
 113 102 l 1
 113 283 l 1
 881 602 l 1
 113 918 l 1
 113 1096 l 1
 1083 686 l 1
 1083 518 l 1
EndSplineSet
EndChar
StartChar: bracketleft
Encoding: 21 91 21
OldEncoding: 91
Width: 577
VWidth: 1000
Flags: HW
Fore
150 -403 m 1
 150 1622 l 1
 504 1622 l 1
 504 1581 l 1
 248 1581 l 1
 248 -360 l 1
 504 -360 l 1
 504 -403 l 1
 150 -403 l 1
EndSplineSet
EndChar
StartChar: bracketright
Encoding: 22 93 22
OldEncoding: 93
Width: 577
VWidth: 1000
Flags: HW
Fore
428 -403 m 1
 74 -403 l 1
 74 -360 l 1
 330 -360 l 1
 330 1581 l 1
 74 1581 l 1
 74 1622 l 1
 428 1622 l 1
 428 -403 l 1
EndSplineSet
EndChar
StartChar: braceleft
Encoding: 23 123 23
OldEncoding: 123
Width: 782
VWidth: 1000
Flags: HW
Fore
496 -453 m 1
 485 -453 l 2
 397 -453 328 -423 281 -362 c 0
 237 -308 215 -236 215 -145 c 1
 217 459 l 1
 217 546 175 589 92 588 c 1
 92 621 l 1
 175 618 217 662 217 752 c 1
 215 1356 l 1
 215 1447 239 1521 288 1576 c 0
 336 1631 406 1659 496 1659 c 1
 496 1626 l 1
 365 1627 298 1547 295 1384 c 1
 287 809 l 2
 285 715 242 646 156 604 c 1
 242 563 285 494 287 397 c 2
 295 -176 l 1
 298 -340 365 -421 496 -420 c 1
 496 -453 l 1
EndSplineSet
EndChar
StartChar: braceright
Encoding: 24 125 24
OldEncoding: 125
Width: 782
VWidth: 1000
Flags: HW
Fore
92 -453 m 1
 92 -420 l 1
 226 -421 293 -340 293 -176 c 0
 293 -112 291 -16 287 112 c 0
 283 239 281 335 281 399 c 0
 281 489 325 558 414 604 c 1
 325 646 281 715 281 809 c 0
 281 873 283 969 287 1098 c 0
 291 1226 293 1322 293 1386 c 0
 293 1548 226 1627 92 1626 c 1
 92 1659 l 1
 102 1659 l 2
 190 1659 257 1631 303 1574 c 0
 350 1517 373 1444 373 1354 c 0
 373 1287 369 1186 360 1053 c 0
 352 919 348 819 348 752 c 0
 348 660 397 616 496 621 c 1
 496 588 l 1
 397 592 348 548 348 457 c 0
 348 390 352 289 360 156 c 0
 369 22 373 -79 373 -145 c 0
 373 -352 279 -454 92 -453 c 1
EndSplineSet
EndChar
StartChar: asciitilde
Encoding: 25 126 25
OldEncoding: 126
Width: 1628
VWidth: 1000
Flags: HW
Fore
283 526 m 1
 221 526 l 1
 231 739 319 846 485 846 c 0
 562 846 681 806 843 726 c 0
 1005 646 1115 606 1176 606 c 0
 1272 606 1328 679 1343 823 c 1
 1405 823 l 1
 1393 610 1305 504 1141 504 c 0
 1056 504 941 544 795 624 c 0
 649 703 533 743 449 743 c 0
 397 743 355 720 324 672 c 0
 296 629 283 581 283 526 c 1
EndSplineSet
EndChar
StartChar: cent
Encoding: 26 162 26
OldEncoding: 162
Width: 876
VWidth: 1000
Flags: HW
Fore
426 940 m 1
 355 924 301 874 264 793 c 0
 236 726 221 651 221 567 c 0
 221 480 236 402 266 334 c 0
 302 251 355 195 426 166 c 1
 426 940 l 1
508 1243 m 1
 508 1018 l 1
 526 1021 541 1022 555 1022 c 0
 618 1022 674 1003 723 965 c 0
 778 922 805 871 805 811 c 0
 805 784 797 758 782 735 c 0
 767 712 747 700 721 700 c 0
 689 700 653 736 612 807 c 0
 567 885 532 929 508 940 c 1
 508 154 l 1
 640 154 741 230 811 383 c 1
 856 369 l 1
 807 255 765 175 729 127 c 0
 668 45 594 -2 508 -14 c 1
 508 -244 l 1
 426 -244 l 1
 426 -14 l 1
 303 -3 208 53 141 156 c 0
 84 246 55 356 55 487 c 0
 55 613 86 724 147 821 c 0
 216 928 309 991 426 1012 c 1
 426 1243 l 1
 508 1243 l 1
EndSplineSet
EndChar
StartChar: currency
Encoding: 27 164 27
OldEncoding: 164
Width: 1024
VWidth: 1000
Flags: HW
Fore
795 1020 m 1
 938 1161 l 1
 995 1104 l 1
 852 963 l 1
 920 875 954 782 954 682 c 0
 954 580 920 485 852 397 c 1
 995 254 l 1
 938 199 l 1
 795 342 l 1
 705 272 614 238 524 238 c 0
 393 238 295 272 229 342 c 1
 84 199 l 1
 27 254 l 1
 170 397 l 1
 103 475 70 569 70 680 c 0
 70 785 103 879 170 963 c 1
 27 1104 l 1
 84 1161 l 1
 229 1020 l 1
 309 1087 403 1120 514 1120 c 0
 622 1120 715 1087 795 1020 c 1
512 1040 m 0
 412 1040 327 1005 256 934 c 0
 185 863 150 778 150 678 c 0
 150 578 185 493 256 423 c 0
 327 353 412 317 512 317 c 0
 610 317 695 353 767 425 c 0
 839 497 874 582 874 680 c 0
 874 778 839 863 767 934 c 0
 695 1005 610 1040 512 1040 c 0
EndSplineSet
EndChar
StartChar: yen
Encoding: 28 165 28
OldEncoding: 165
Width: 1024
VWidth: 1000
Flags: HW
Fore
598 426 m 1
 1024 426 l 1
 1024 352 l 1
 598 352 l 1
 598 244 l 2
 598 163 606 111 621 88 c 0
 642 55 692 40 768 41 c 1
 768 0 l 1
 254 0 l 1
 254 41 l 1
 315 40 360 51 388 75 c 0
 416 99 430 141 430 201 c 0
 430 218 429 244 428 278 c 0
 427 311 426 336 426 352 c 1
 2 352 l 1
 2 426 l 1
 426 426 l 1
 426 569 l 1
 412 604 l 1
 2 604 l 1
 2 678 l 1
 379 678 l 1
 166 1174 l 2
 125 1269 70 1318 2 1319 c 1
 2 1356 l 1
 444 1356 l 1
 444 1319 l 1
 364 1316 324 1295 324 1255 c 0
 324 1225 401 1033 555 678 c 1
 711 1021 788 1214 788 1257 c 0
 788 1293 752 1313 678 1319 c 1
 678 1356 l 1
 1024 1356 l 1
 1024 1319 l 1
 954 1319 896 1267 850 1163 c 2
 637 678 l 1
 1024 678 l 1
 1024 604 l 1
 604 604 l 1
 598 590 l 1
 598 426 l 1
EndSplineSet
EndChar
StartChar: section
Encoding: 29 167 29
OldEncoding: 167
Width: 1138
VWidth: 1000
Flags: HW
Fore
141 -70 m 1
 156 -187 204 -277 285 -340 c 0
 361 -400 459 -430 580 -430 c 0
 686 -430 777 -403 852 -348 c 0
 935 -287 977 -205 977 -102 c 0
 977 3 924 96 817 178 c 1
 969 238 1044 334 1044 465 c 0
 1044 567 984 664 864 756 c 1
 532 965 l 2
 412 1042 352 1115 352 1184 c 0
 352 1233 375 1272 420 1303 c 0
 461 1330 507 1343 557 1343 c 0
 679 1343 750 1270 772 1124 c 1
 958 1145 l 1
 931 1376 793 1491 543 1491 c 0
 446 1491 362 1463 291 1407 c 0
 214 1347 176 1270 176 1176 c 0
 176 1088 219 1006 305 928 c 1
 240 909 186 873 143 821 c 0
 101 769 80 710 80 643 c 0
 80 535 141 433 264 338 c 1
 610 121 l 1
 733 40 795 -35 795 -104 c 0
 795 -160 772 -204 727 -236 c 0
 687 -264 638 -279 580 -279 c 0
 442 -279 356 -200 324 -43 c 1
 141 -70 l 1
727 244 m 1
 582 330 487 390 440 424 c 0
 309 520 244 599 244 664 c 0
 244 740 294 805 393 858 c 1
 550 760 645 698 678 674 c 0
 809 577 874 496 874 430 c 0
 874 354 825 291 727 244 c 1
EndSplineSet
EndChar
StartChar: dieresis
Encoding: 30 168 30
OldEncoding: 168
Width: 542
VWidth: 1000
Flags: HW
Fore
25 1376 m 0
 25 1402 34 1425 53 1446 c 0
 72 1466 95 1477 121 1477 c 0
 148 1477 172 1467 191 1447 c 0
 211 1427 221 1404 221 1376 c 0
 221 1348 212 1324 193 1306 c 0
 173 1287 150 1278 121 1278 c 0
 94 1278 71 1288 52 1307 c 0
 34 1326 25 1349 25 1376 c 0
319 1378 m 0
 319 1404 329 1427 348 1448 c 0
 367 1468 390 1479 416 1479 c 0
 443 1479 467 1469 486 1449 c 0
 506 1429 516 1406 516 1378 c 0
 516 1350 507 1326 487 1308 c 0
 468 1289 444 1280 416 1280 c 0
 388 1280 366 1290 347 1309 c 0
 329 1328 319 1351 319 1378 c 0
EndSplineSet
EndChar
StartChar: guillemotleft
Encoding: 31 171 31
OldEncoding: 171
Width: 1138
VWidth: 1000
Flags: HW
Fore
340 528 m 1
 600 983 l 1
 453 983 l 1
 133 528 l 1
 453 72 l 1
 598 72 l 1
 340 528 l 1
727 528 m 1
 991 983 l 1
 840 983 l 1
 524 528 l 1
 840 72 l 1
 991 72 l 1
 727 528 l 1
EndSplineSet
EndChar
StartChar: logicalnot
Encoding: 32 172 32
OldEncoding: 172
Width: 1329
VWidth: 1000
Flags: HW
Fore
1120 801 m 1
 1122 272 l 1
 1028 272 l 1
 1028 727 l 1
 117 727 l 1
 117 801 l 1
 1120 801 l 1
EndSplineSet
EndChar
StartChar: uni00AD
Encoding: 33 173 33
OldEncoding: 173
Width: 1628
VWidth: 1000
Flags: HW
Fore
221 543 m 1
 221 641 l 1
 1405 641 l 1
 1405 543 l 1
 221 543 l 1
EndSplineSet
EndChar
StartChar: degree
Encoding: 34 176 34
OldEncoding: 176
Width: 872
VWidth: 1000
Flags: HW
Fore
426 297 m 0
 339 297 268 324 213 379 c 0
 158 433 131 504 131 592 c 0
 131 679 158 751 213 806 c 0
 268 861 339 889 426 889 c 0
 513 889 585 861 640 806 c 0
 695 751 723 679 723 592 c 0
 723 506 695 435 640 380 c 0
 585 325 513 297 426 297 c 0
426 346 m 0
 498 346 558 369 604 415 c 0
 651 460 674 520 674 592 c 0
 674 664 651 724 604 770 c 0
 558 816 498 840 426 840 c 0
 354 840 295 816 249 770 c 0
 203 724 180 664 180 592 c 0
 180 520 203 460 249 415 c 0
 295 369 354 346 426 346 c 0
EndSplineSet
EndChar
StartChar: plusminus
Encoding: 35 177 35
OldEncoding: 177
Width: 1628
VWidth: 1000
Flags: HW
Fore
221 0 m 1
 221 98 l 1
 1407 98 l 1
 1407 0 l 1
 221 0 l 1
766 297 m 1
 766 692 l 1
 221 692 l 1
 221 791 l 1
 766 791 l 1
 766 1184 l 1
 864 1184 l 1
 864 791 l 1
 1407 791 l 1
 1407 692 l 1
 864 692 l 1
 864 297 l 1
 766 297 l 1
EndSplineSet
EndChar
StartChar: paragraph
Encoding: 36 182 36
OldEncoding: 182
Width: 1099
VWidth: 1000
Flags: HW
Fore
406 -408 m 1
 406 639 l 1
 285 644 188 684 113 758 c 0
 38 830 -0 926 0 1044 c 0
 0 1182 45 1289 135 1364 c 0
 220 1432 332 1466 473 1466 c 2
 1108 1466 l 1
 1108 1292 l 1
 963 1292 l 1
 963 -408 l 1
 793 -408 l 1
 793 1292 l 1
 569 1292 l 1
 569 -408 l 1
 406 -408 l 1
EndSplineSet
EndChar
StartChar: guillemotright
Encoding: 37 187 37
OldEncoding: 187
Width: 1138
VWidth: 1000
Flags: HW
Fore
791 528 m 1
 530 72 l 1
 678 72 l 1
 997 528 l 1
 678 983 l 1
 528 983 l 1
 791 528 l 1
403 528 m 1
 139 72 l 1
 291 72 l 1
 604 528 l 1
 291 983 l 1
 139 983 l 1
 403 528 l 1
EndSplineSet
EndChar
StartChar: questiondown
Encoding: 38 191 38
OldEncoding: 191
Width: 909
VWidth: 1000
Flags: HW
Fore
453 1405 m 0
 483 1405 509 1394 530 1372 c 0
 552 1350 563 1324 563 1294 c 0
 563 1264 552 1238 530 1217 c 0
 509 1195 483 1184 453 1184 c 0
 423 1184 397 1195 375 1217 c 0
 353 1238 342 1264 342 1294 c 0
 342 1324 353 1350 375 1372 c 0
 397 1394 423 1405 453 1405 c 0
440 1057 m 1
 479 1057 l 1
 477 972 441 851 373 693 c 0
 304 536 270 412 270 324 c 0
 270 247 290 183 330 131 c 0
 373 75 433 47 508 47 c 0
 554 47 595 57 631 78 c 0
 673 102 694 136 694 178 c 0
 694 200 684 228 664 263 c 0
 643 298 633 326 633 348 c 0
 633 370 641 389 656 406 c 0
 672 422 691 430 713 430 c 0
 748 430 776 413 797 379 c 0
 814 350 823 317 823 279 c 0
 823 187 784 114 707 59 c 0
 637 12 555 -12 461 -12 c 0
 362 -12 277 16 205 72 c 0
 127 132 88 210 88 305 c 0
 88 388 117 473 176 559 c 1
 342 780 l 1
 403 872 436 964 440 1057 c 1
EndSplineSet
EndChar
StartChar: multiply
Encoding: 39 215 39
OldEncoding: 215
Width: 1628
VWidth: 1000
Flags: HW
Fore
221 70 m 1
 743 592 l 1
 221 1114 l 1
 293 1184 l 1
 813 662 l 1
 1337 1184 l 1
 1405 1114 l 1
 883 592 l 1
 1405 70 l 1
 1337 0 l 1
 813 522 l 1
 293 0 l 1
 221 70 l 1
EndSplineSet
EndChar
StartChar: divide
Encoding: 40 247 40
OldEncoding: 247
Width: 1628
VWidth: 1000
Flags: HW
Fore
715 98 m 1
 715 295 l 1
 913 295 l 1
 913 98 l 1
 715 98 l 1
221 543 m 1
 221 641 l 1
 1407 641 l 1
 1407 543 l 1
 221 543 l 1
715 887 m 1
 715 1085 l 1
 913 1085 l 1
 913 887 l 1
 715 887 l 1
EndSplineSet
EndChar
StartChar: OE
Encoding: 41 338 41
OldEncoding: 338
Width: 2058
VWidth: 1000
Flags: HW
Fore
725 1468 m 0
 737 1468 755 1466 779 1460 c 0
 803 1455 821 1452 834 1452 c 2
 1804 1452 l 1
 1831 1126 l 1
 1784 1126 l 1
 1758 1247 1704 1322 1622 1352 c 0
 1581 1367 1484 1374 1331 1374 c 0
 1264 1374 1222 1372 1204 1368 c 0
 1154 1357 1128 1329 1128 1284 c 2
 1128 883 l 2
 1128 840 1145 819 1178 819 c 2
 1503 819 l 2
 1555 819 1597 843 1628 891 c 0
 1654 932 1668 980 1669 1036 c 1
 1716 1036 l 1
 1716 512 l 1
 1679 512 l 1
 1668 578 1653 626 1634 657 c 0
 1607 702 1565 725 1507 725 c 2
 1206 725 l 2
 1154 725 1128 700 1128 651 c 2
 1128 182 l 2
 1128 119 1158 88 1217 88 c 2
 1559 88 l 2
 1658 88 1735 115 1790 170 c 0
 1832 211 1874 283 1915 387 c 1
 1958 387 l 1
 1855 0 l 1
 852 0 l 2
 829 0 794 -4 749 -11 c 0
 703 -19 668 -23 645 -23 c 0
 450 -23 295 55 180 211 c 0
 78 352 27 523 27 725 c 0
 27 948 87 1126 207 1260 c 0
 332 1399 505 1468 725 1468 c 0
905 262 m 2
 905 1161 l 2
 905 1311 824 1386 662 1386 c 0
 530 1386 429 1311 356 1161 c 0
 300 1044 272 911 272 764 c 0
 272 585 298 435 350 313 c 0
 421 147 534 63 688 63 c 0
 748 63 799 82 842 119 c 0
 884 156 905 203 905 262 c 2
EndSplineSet
EndChar
StartChar: oe
Encoding: 42 339 42
OldEncoding: 339
Width: 1748
VWidth: 1000
Flags: HW
Fore
1606 604 m 1
 965 604 l 1
 970 311 1072 164 1270 164 c 0
 1420 164 1528 242 1593 399 c 1
 1651 399 l 1
 1573 125 1435 -12 1237 -12 c 0
 1065 -12 945 64 879 217 c 1
 843 147 790 91 720 49 c 0
 650 7 575 -14 496 -14 c 0
 352 -14 237 35 150 135 c 0
 66 231 25 351 25 496 c 0
 25 639 67 761 152 862 c 0
 242 970 357 1024 498 1024 c 0
 581 1024 653 1006 715 971 c 0
 768 939 822 887 877 815 c 1
 948 957 1062 1028 1219 1028 c 0
 1332 1028 1425 985 1499 899 c 0
 1569 817 1604 719 1606 604 c 1
506 70 m 1
 600 68 670 120 717 225 c 0
 751 303 768 396 768 504 c 0
 768 613 748 709 707 791 c 0
 656 894 582 946 483 946 c 0
 395 946 326 896 279 797 c 0
 242 717 223 628 223 528 c 0
 223 416 243 319 283 236 c 0
 333 126 408 72 506 72 c 1
 506 70 l 1
1192 924 m 0
 1066 924 992 841 969 676 c 1
 1403 676 l 1
 1399 841 1328 924 1192 924 c 0
EndSplineSet
EndChar
StartChar: Scaron
Encoding: 43 352 43
OldEncoding: 352
Width: 1138
VWidth: 1000
Flags: HW
Fore
940 1386 m 1
 940 918 l 1
 903 918 l 1
 890 1031 853 1122 793 1190 c 0
 726 1268 638 1307 528 1307 c 0
 464 1307 407 1285 356 1241 c 0
 302 1196 274 1142 274 1079 c 0
 274 1000 340 924 471 852 c 2
 834 655 l 1
 965 567 1030 464 1030 346 c 0
 1030 234 986 142 899 70 c 0
 817 3 719 -31 604 -31 c 0
 560 -31 497 -18 414 8 c 0
 330 34 267 47 223 47 c 0
 208 47 197 38 189 20 c 0
 182 3 179 -14 180 -31 c 1
 141 -31 l 1
 141 434 l 1
 180 434 l 1
 220 184 352 59 578 59 c 0
 649 59 711 79 766 119 c 0
 826 164 856 221 856 289 c 0
 856 378 793 459 668 532 c 1
 317 725 l 1
 192 811 129 913 129 1030 c 0
 129 1135 169 1223 248 1292 c 0
 327 1362 420 1397 526 1397 c 0
 567 1397 625 1380 698 1348 c 0
 772 1315 817 1298 834 1298 c 0
 854 1298 871 1309 885 1329 c 0
 896 1346 902 1365 903 1386 c 1
 940 1386 l 1
657 1483 m 1
 473 1483 l 1
 283 1812 l 1
 313 1812 l 1
 563 1587 l 1
 815 1812 l 1
 846 1812 l 1
 657 1483 l 1
EndSplineSet
EndChar
StartChar: scaron
Encoding: 44 353 44
OldEncoding: 353
Width: 796
VWidth: 1000
Flags: HW
Fore
655 942 m 1
 655 631 l 1
 623 631 l 1
 582 795 498 877 373 877 c 0
 335 877 300 868 270 850 c 0
 235 829 217 801 217 766 c 0
 217 699 261 641 348 592 c 1
 594 467 l 1
 681 410 725 337 725 250 c 0
 725 171 694 104 633 51 c 0
 571 -2 500 -29 420 -29 c 0
 391 -29 350 -20 295 -2 c 0
 240 16 199 25 170 25 c 0
 154 25 143 12 137 -14 c 1
 104 -14 l 1
 104 313 l 1
 137 313 l 1
 152 236 183 171 229 121 c 0
 280 65 343 37 418 37 c 0
 460 37 497 49 529 73 c 0
 561 97 578 129 578 170 c 0
 578 237 537 295 455 344 c 1
 223 467 l 1
 141 523 100 593 100 678 c 0
 100 754 127 817 181 867 c 0
 235 917 301 942 379 942 c 0
 401 942 433 936 475 923 c 0
 517 910 550 903 571 903 c 1
 602 911 l 1
 623 942 l 1
 655 942 l 1
492 1055 m 1
 307 1055 l 1
 117 1384 l 1
 147 1384 l 1
 397 1153 l 1
 649 1384 l 1
 680 1384 l 1
 492 1055 l 1
EndSplineSet
EndChar
StartChar: Ydieresis
Encoding: 45 376 45
OldEncoding: 376
Width: 1488
VWidth: 1000
Flags: HW
Fore
434 1839 m 1
 467 1839 496 1828 520 1805 c 0
 545 1783 557 1756 557 1724 c 0
 557 1692 545 1663 522 1639 c 0
 499 1616 471 1604 438 1604 c 0
 406 1604 377 1616 353 1639 c 0
 329 1663 317 1692 317 1724 c 0
 317 1754 330 1781 354 1803 c 0
 379 1826 406 1837 436 1837 c 1
 434 1839 l 1
1040 1729 m 0
 1040 1694 1027 1665 1000 1641 c 0
 974 1618 943 1606 907 1606 c 0
 877 1606 852 1618 831 1642 c 0
 811 1667 801 1694 801 1724 c 0
 801 1757 815 1784 844 1805 c 0
 872 1826 904 1837 938 1837 c 0
 965 1837 989 1826 1010 1803 c 0
 1030 1781 1040 1756 1040 1729 c 0
584 1458 m 1
 584 1423 l 1
 483 1423 432 1395 432 1337 c 0
 432 1313 545 1120 770 758 c 1
 999 1113 1114 1311 1114 1352 c 0
 1114 1397 1066 1420 969 1421 c 1
 971 1460 l 1
 1039 1455 1110 1452 1184 1452 c 0
 1266 1452 1352 1455 1442 1462 c 1
 1442 1417 l 1
 1365 1417 1282 1363 1192 1255 c 0
 1126 1179 1053 1068 971 922 c 2
 811 631 l 1
 811 190 l 2
 811 98 881 48 1022 41 c 1
 1022 0 l 1
 798 7 582 7 375 0 c 1
 375 41 l 1
 431 41 479 54 518 80 c 0
 562 111 584 154 584 207 c 1
 582 637 l 1
 554 674 498 773 412 934 c 0
 332 1084 265 1193 209 1262 c 0
 123 1364 37 1415 -49 1415 c 1
 -49 1456 l 1
 335 1456 545 1457 584 1458 c 1
EndSplineSet
EndChar
StartChar: Zcaron
Encoding: 46 381 46
OldEncoding: 381
Width: 1251
VWidth: 1000
Flags: HW
Fore
1178 1356 m 1
 287 82 l 1
 825 86 l 2
 920 87 993 111 1047 158 c 0
 1094 200 1133 269 1161 365 c 1
 1194 358 l 1
 1130 0 l 1
 27 0 l 1
 27 37 l 1
 897 1276 l 1
 477 1276 l 2
 380 1276 311 1257 270 1220 c 0
 229 1182 201 1115 184 1018 c 1
 147 1018 l 1
 174 1356 l 1
 1178 1356 l 1
733 1483 m 1
 551 1483 l 1
 360 1792 l 1
 391 1792 l 1
 639 1567 l 1
 893 1792 l 1
 924 1792 l 1
 733 1483 l 1
EndSplineSet
EndChar
StartChar: zcaron
Encoding: 47 382 47
OldEncoding: 382
Width: 909
VWidth: 1000
Flags: HW
Fore
860 281 m 1
 850 0 l 1
 41 0 l 1
 41 37 l 1
 649 846 l 1
 360 846 l 2
 284 846 231 834 201 811 c 0
 164 785 144 735 141 662 c 1
 102 662 l 1
 109 915 l 1
 877 915 l 1
 877 879 l 1
 262 68 l 1
 578 68 l 2
 664 68 725 82 761 111 c 0
 797 139 819 196 825 281 c 1
 860 281 l 1
563 1055 m 1
 379 1055 l 1
 188 1384 l 1
 219 1384 l 1
 471 1165 l 1
 723 1384 l 1
 752 1384 l 1
 563 1055 l 1
EndSplineSet
EndChar
StartChar: florin
Encoding: 48 402 48
OldEncoding: 402
Width: 1024
VWidth: 1000
Flags: HW
Fore
702 897 m 1
 885 897 l 1
 868 829 l 1
 688 829 l 1
 627 507 569 263 514 96 c 0
 398 -263 268 -442 125 -442 c 0
 42 -442 -0 -406 0 -334 c 0
 0 -311 8 -290 23 -271 c 0
 38 -253 57 -244 80 -244 c 0
 126 -244 148 -263 145 -301 c 1
 121 -358 l 1
 129 -375 l 1
 147 -381 l 1
 206 -381 260 -293 309 -117 c 1
 385 229 l 1
 520 829 l 1
 340 829 l 1
 354 897 l 1
 461 900 537 946 584 1036 c 1
 676 1286 l 1
 717 1376 785 1421 881 1421 c 0
 975 1421 1022 1383 1022 1307 c 0
 1022 1255 999 1229 952 1229 c 0
 910 1229 889 1247 889 1284 c 0
 889 1292 892 1303 899 1316 c 0
 906 1329 909 1339 909 1348 c 0
 909 1365 898 1374 874 1374 c 0
 821 1374 778 1307 745 1171 c 0
 736 1129 722 1038 702 897 c 1
EndSplineSet
EndChar
StartChar: uni019B
Encoding: 49 411 49
OldEncoding: 411
Width: 1146
VWidth: 1000
Flags: HW
Fore
72 0 m 1
 65 30 61 48 61 55 c 0
 61 150 125 293 252 485 c 1
 541 889 l 1
 506 977 l 1
 514 952 l 1
 205 952 l 1
 205 1024 l 1
 492 1024 l 1
 455 1135 427 1200 408 1221 c 0
 375 1256 307 1273 203 1272 c 1
 328 1389 l 1
 360 1389 l 2
 549 1389 655 1267 680 1024 c 1
 932 1024 l 1
 932 952 l 1
 702 952 l 1
 827 446 l 1
 892 231 967 82 1055 0 c 1
 834 0 l 1
 771 76 713 206 662 389 c 1
 559 815 l 1
 438 644 365 539 342 500 c 0
 264 366 225 248 225 147 c 0
 225 87 245 38 285 0 c 1
 72 0 l 1
EndSplineSet
EndChar
StartChar: circumflex
Encoding: 50 710 50
OldEncoding: 710
Width: 681
VWidth: 1000
Flags: HW
Fore
666 1112 m 1
 631 1110 l 1
 360 1321 l 1
 76 1102 l 1
 33 1112 l 1
 362 1491 l 1
 666 1112 l 1
EndSplineSet
EndChar
StartChar: dotaccent
Encoding: 51 729 51
OldEncoding: 729
Width: 542
VWidth: 1000
Flags: HW
Fore
174 1362 m 0
 174 1389 183 1413 202 1433 c 0
 220 1452 243 1462 270 1462 c 0
 298 1462 321 1452 341 1433 c 0
 361 1413 371 1389 371 1362 c 0
 371 1333 361 1310 342 1291 c 0
 323 1273 299 1264 270 1264 c 0
 243 1264 220 1273 202 1292 c 0
 183 1311 174 1335 174 1362 c 0
EndSplineSet
EndChar
StartChar: ring
Encoding: 52 730 52
OldEncoding: 730
Width: 532
VWidth: 1000
Flags: HW
Fore
53 1356 m 0
 53 1420 75 1474 120 1519 c 0
 164 1563 218 1585 283 1585 c 0
 347 1585 401 1563 445 1519 c 0
 490 1474 512 1420 512 1356 c 0
 512 1293 489 1239 444 1194 c 0
 399 1149 345 1126 283 1126 c 0
 218 1126 164 1149 120 1193 c 0
 75 1237 53 1292 53 1356 c 0
135 1354 m 0
 135 1311 150 1276 178 1247 c 0
 207 1219 242 1204 285 1204 c 0
 327 1204 362 1219 391 1247 c 0
 420 1276 434 1311 434 1354 c 0
 434 1395 419 1430 390 1459 c 0
 361 1489 326 1503 285 1503 c 0
 242 1503 207 1489 178 1460 c 0
 150 1432 135 1396 135 1354 c 0
EndSplineSet
EndChar
StartChar: tilde
Encoding: 53 732 53
OldEncoding: 732
Width: 681
VWidth: 1000
Flags: HW
Fore
53 1217 m 1
 23 1217 l 1
 28 1389 91 1475 211 1475 c 0
 242 1475 350 1428 535 1335 c 1
 581 1335 613 1382 631 1475 c 1
 662 1475 l 1
 662 1462 l 2
 662 1398 646 1342 616 1294 c 0
 581 1240 532 1212 471 1212 c 0
 429 1212 321 1260 147 1354 c 1
 102 1354 71 1308 53 1217 c 1
EndSplineSet
EndChar
StartChar: uni03F1
Encoding: 54 1009 54
OldEncoding: 1009
Width: 1132
VWidth: 1000
Flags: HW
Fore
809 -262 m 1
 877 -420 l 1
 803 -386 692 -369 543 -369 c 0
 406 -369 315 -353 268 -322 c 0
 192 -271 154 -160 154 12 c 0
 154 233 190 420 264 571 c 0
 360 768 507 866 705 866 c 0
 911 866 1014 771 1014 582 c 0
 1014 421 962 282 858 166 c 0
 752 46 618 -14 459 -14 c 0
 350 -14 272 35 227 135 c 1
 223 106 221 81 221 59 c 0
 221 -72 264 -162 348 -211 c 0
 408 -248 504 -266 635 -266 c 0
 657 -266 686 -266 723 -264 c 0
 767 -263 795 -262 809 -262 c 1
508 51 m 0
 610 51 694 113 758 236 c 0
 810 337 836 444 836 557 c 0
 836 725 779 809 666 809 c 0
 559 809 477 742 420 608 c 0
 378 507 356 394 356 268 c 0
 356 124 407 51 508 51 c 0
EndSplineSet
EndChar
StartChar: endash
Encoding: 56 8211 56
OldEncoding: 8211
Width: 1138
VWidth: 1000
Flags: HW
Fore
-4 459 m 1
 1135 459 l 1
 1135 606 l 1
 -4 606 l 1
 -4 459 l 1
EndSplineSet
EndChar
StartChar: emdash
Encoding: 57 8212 57
OldEncoding: 8212
Width: 2048
VWidth: 1000
Flags: HW
Fore
0 459 m 1
 2048 459 l 1
 2048 606 l 1
 0 606 l 1
 0 459 l 1
EndSplineSet
EndChar
StartChar: quoteleft
Encoding: 58 8216 58
OldEncoding: 8216
Width: 481
VWidth: 1000
Flags: HW
Fore
297 1122 m 0
 328 1122 354 1110 375 1084 c 0
 395 1059 406 1031 406 999 c 0
 406 968 393 942 369 923 c 0
 344 903 315 893 283 893 c 0
 221 893 172 917 136 965 c 0
 100 1012 82 1068 82 1130 c 0
 82 1204 110 1277 166 1350 c 0
 227 1427 294 1466 365 1466 c 1
 373 1450 l 1
 246 1329 l 1
 201 1277 178 1225 178 1174 c 0
 178 1139 190 1112 215 1092 c 1
 244 1112 271 1122 297 1122 c 0
EndSplineSet
EndChar
StartChar: quoteright
Encoding: 59 8217 59
OldEncoding: 8217
Width: 481
VWidth: 1000
Flags: HW
Fore
94 1358 m 0
 94 1389 107 1416 133 1437 c 0
 159 1458 188 1468 219 1468 c 0
 278 1468 326 1441 362 1386 c 0
 395 1339 412 1284 412 1223 c 0
 412 1145 381 1070 321 999 c 0
 260 928 191 893 115 893 c 1
 100 905 l 1
 114 930 140 954 178 977 c 0
 223 1003 252 1023 264 1036 c 0
 291 1066 305 1108 305 1161 c 0
 305 1187 298 1220 283 1260 c 1
 259 1246 238 1239 217 1239 c 0
 184 1239 156 1251 131 1274 c 0
 106 1297 94 1325 94 1358 c 0
EndSplineSet
EndChar
StartChar: quotesinglbase
Encoding: 60 8218 60
OldEncoding: 8218
Width: 481
VWidth: 1000
Flags: HW
Fore
180 -39 m 2
 152 -39 127 -27 106 -2 c 0
 86 23 76 50 76 80 c 0
 76 111 88 138 113 160 c 0
 137 182 166 193 199 193 c 0
 259 193 307 169 344 122 c 0
 381 75 399 20 399 -43 c 0
 399 -113 369 -186 309 -262 c 0
 246 -343 181 -383 113 -383 c 1
 104 -367 l 1
 174 -307 217 -267 233 -248 c 0
 277 -197 299 -145 299 -92 c 0
 299 -62 289 -35 268 -12 c 1
 241 -29 212 -37 182 -37 c 2
 180 -39 l 2
EndSplineSet
EndChar
StartChar: quotedblleft
Encoding: 61 8220 61
OldEncoding: 8220
Width: 827
VWidth: 1000
Flags: HW
Fore
354 1024 m 0
 354 948 314 909 233 909 c 0
 176 909 130 937 96 991 c 0
 66 1039 51 1093 51 1153 c 0
 51 1238 84 1312 151 1375 c 0
 217 1439 292 1470 377 1470 c 1
 387 1466 l 1
 393 1458 l 1
 389 1448 l 1
 233 1370 156 1284 156 1190 c 0
 156 1167 162 1143 174 1118 c 1
 204 1135 230 1143 252 1143 c 0
 281 1143 305 1130 325 1106 c 0
 344 1081 354 1054 354 1024 c 0
666 1143 m 2
 694 1143 719 1132 740 1109 c 0
 762 1086 772 1061 772 1032 c 0
 772 997 758 967 730 942 c 0
 702 918 670 905 633 905 c 0
 578 905 535 930 502 981 c 0
 474 1025 461 1076 461 1135 c 0
 461 1217 488 1292 543 1360 c 0
 601 1434 670 1470 750 1470 c 1
 780 1464 l 1
 788 1456 l 1
 784 1448 l 1
 715 1408 666 1375 639 1348 c 0
 591 1301 567 1249 567 1192 c 0
 567 1178 573 1154 586 1118 c 1
 606 1128 634 1136 668 1143 c 2
 666 1143 l 2
EndSplineSet
EndChar
StartChar: quotedblright
Encoding: 62 8221 62
OldEncoding: 8221
Width: 827
VWidth: 1000
Flags: HW
Fore
238 1167 m 1
 238 1193 231 1221 219 1251 c 1
 196 1238 172 1231 147 1231 c 0
 117 1231 91 1242 69 1266 c 0
 46 1289 35 1315 35 1346 c 0
 35 1378 48 1406 75 1430 c 0
 101 1453 131 1464 164 1464 c 0
 221 1464 268 1441 305 1395 c 0
 338 1352 354 1301 354 1241 c 0
 354 1162 324 1085 262 1012 c 0
 201 938 131 901 53 901 c 1
 20 915 l 1
 37 936 l 1
 93 956 139 986 174 1024 c 0
 218 1068 240 1116 240 1169 c 1
 238 1167 l 1
547 1233 m 2
 518 1233 494 1245 475 1268 c 0
 456 1291 446 1318 446 1348 c 0
 446 1380 460 1408 486 1430 c 0
 513 1451 543 1462 575 1462 c 0
 631 1462 676 1437 709 1386 c 0
 736 1343 750 1291 750 1231 c 0
 750 1148 719 1072 657 1005 c 0
 596 937 524 903 442 903 c 1
 420 920 l 1
 565 1022 l 2
 618 1062 645 1111 645 1169 c 0
 645 1198 642 1224 635 1247 c 1
 605 1238 575 1233 545 1233 c 2
 547 1233 l 2
EndSplineSet
EndChar
StartChar: quotedblbase
Encoding: 63 8222 63
OldEncoding: 8222
Width: 827
VWidth: 1000
Flags: HW
Fore
31 84 m 0
 31 117 44 146 70 171 c 0
 96 196 125 209 158 209 c 0
 218 209 264 184 297 133 c 0
 326 89 340 35 340 -29 c 0
 340 -115 309 -191 248 -259 c 0
 186 -327 113 -360 29 -360 c 1
 2 -346 l 1
 94 -282 143 -246 150 -240 c 0
 201 -192 227 -140 227 -84 c 0
 227 -57 223 -31 215 -6 c 1
 184 -21 156 -29 131 -29 c 0
 104 -29 80 -17 60 7 c 0
 41 31 31 57 31 84 c 0
449 102 m 0
 449 132 460 158 484 178 c 0
 508 199 535 209 565 209 c 0
 623 209 669 182 705 129 c 0
 736 81 752 27 752 -33 c 0
 752 -119 719 -195 654 -261 c 0
 589 -327 515 -360 430 -360 c 1
 408 -354 l 1
 406 -346 l 1
 425 -326 458 -300 505 -269 c 0
 552 -239 584 -213 600 -193 c 0
 629 -160 643 -120 643 -74 c 0
 643 -53 640 -31 633 -8 c 1
 607 -22 580 -29 551 -29 c 0
 518 -29 492 -14 473 14 c 0
 457 39 449 68 449 102 c 0
EndSplineSet
EndChar
StartChar: dagger
Encoding: 64 8224 64
OldEncoding: 8224
Width: 919
VWidth: 1000
Flags: HW
Fore
436 1473 m 0
 515 1473 555 1424 555 1327 c 0
 555 1296 524 1194 461 1022 c 1
 611 1078 698 1106 723 1106 c 0
 754 1106 782 1096 807 1075 c 0
 831 1055 844 1029 844 999 c 0
 844 968 832 942 809 921 c 0
 786 899 758 889 727 889 c 0
 692 889 647 900 594 924 c 0
 532 951 489 967 465 971 c 1
 483 859 515 788 563 758 c 1
 495 534 461 263 461 -55 c 0
 461 -145 464 -248 469 -365 c 1
 403 -365 l 1
 403 -166 l 2
 403 274 369 584 301 764 c 1
 368 812 402 881 403 971 c 1
 382 967 341 951 281 924 c 0
 230 902 188 891 156 891 c 0
 126 891 99 901 76 923 c 0
 53 944 41 969 41 999 c 0
 41 1028 52 1052 75 1072 c 0
 97 1092 123 1102 152 1102 c 0
 184 1102 226 1091 276 1069 c 0
 335 1042 375 1026 397 1022 c 1
 393 1042 378 1094 350 1178 c 0
 330 1240 319 1293 319 1335 c 0
 319 1372 330 1404 351 1432 c 0
 372 1459 401 1473 436 1473 c 0
EndSplineSet
EndChar
StartChar: daggerdbl
Encoding: 65 8225 65
OldEncoding: 8225
Width: 1024
VWidth: 1000
Flags: HW
Fore
530 977 m 1
 539 906 570 849 625 807 c 1
 562 715 530 608 530 483 c 0
 530 367 562 263 625 170 c 1
 571 125 540 68 530 0 c 1
 554 4 597 18 659 43 c 0
 714 63 758 74 793 74 c 0
 817 74 839 65 857 48 c 0
 876 31 885 10 885 -14 c 0
 885 -39 876 -60 857 -79 c 0
 839 -97 817 -106 793 -106 c 0
 760 -106 716 -96 662 -74 c 0
 603 -51 559 -38 530 -37 c 1
 535 -66 550 -115 578 -186 c 0
 602 -248 614 -298 614 -338 c 0
 614 -367 605 -391 585 -412 c 0
 565 -432 541 -442 512 -442 c 0
 485 -442 461 -431 442 -410 c 0
 423 -388 414 -362 414 -334 c 0
 414 -297 426 -246 450 -181 c 0
 473 -116 487 -68 489 -37 c 1
 461 -38 418 -50 362 -73 c 0
 307 -95 263 -106 231 -106 c 0
 207 -106 186 -98 168 -81 c 0
 150 -64 141 -43 141 -18 c 0
 141 8 151 29 170 47 c 0
 189 65 212 74 238 74 c 0
 269 74 312 63 366 41 c 0
 419 19 461 8 489 6 c 1
 480 73 448 128 393 170 c 1
 459 256 492 365 492 496 c 0
 492 631 459 735 393 807 c 1
 446 845 479 902 489 977 c 1
 462 974 418 962 358 940 c 0
 304 920 260 909 227 909 c 0
 204 909 184 918 166 936 c 0
 148 954 139 974 139 997 c 0
 139 1021 148 1041 165 1058 c 0
 182 1075 202 1083 225 1083 c 0
 258 1083 303 1072 361 1051 c 0
 419 1029 462 1016 489 1014 c 1
 488 1048 474 1097 449 1161 c 0
 423 1225 410 1275 410 1311 c 0
 410 1339 419 1365 439 1388 c 0
 459 1410 483 1421 512 1421 c 0
 576 1421 608 1383 608 1307 c 0
 608 1270 597 1221 573 1159 c 0
 547 1094 533 1045 530 1014 c 1
 558 1016 601 1029 662 1053 c 0
 717 1073 762 1083 795 1083 c 0
 819 1083 840 1075 858 1058 c 0
 876 1041 885 1020 885 995 c 0
 885 971 876 950 857 933 c 0
 839 916 816 907 791 907 c 0
 758 907 714 918 659 938 c 0
 601 961 558 974 530 977 c 1
EndSplineSet
EndChar
StartChar: bullet
Encoding: 66 8226 66
OldEncoding: 8226
Width: 729
VWidth: 1000
Flags: HW
Fore
346 457 m 0
 272 457 209 483 155 535 c 0
 101 586 74 649 74 723 c 0
 74 797 101 859 155 911 c 0
 209 963 272 989 346 989 c 0
 418 989 480 963 531 910 c 0
 583 858 608 795 608 723 c 0
 608 649 583 586 532 535 c 0
 482 483 420 457 346 457 c 0
EndSplineSet
EndChar
StartChar: ellipsis
Encoding: 67 8230 67
OldEncoding: 8230
Width: 1949
VWidth: 1000
Flags: HW
Fore
381 94 m 0
 381 63 370 36 348 14 c 0
 328 -8 302 -18 270 -18 c 0
 240 -18 214 -7 193 15 c 0
 171 38 160 64 160 94 c 0
 160 124 171 150 193 172 c 0
 214 194 240 205 270 205 c 0
 300 205 326 194 348 172 c 0
 370 150 381 124 381 94 c 0
1063 94 m 0
 1063 64 1053 38 1032 16 c 0
 1010 -7 984 -18 954 -18 c 0
 924 -18 898 -7 876 15 c 0
 853 38 842 64 842 94 c 0
 842 124 853 150 876 172 c 0
 898 194 924 205 954 205 c 0
 1027 205 1063 168 1063 94 c 0
1747 94 m 0
 1747 63 1737 36 1716 14 c 0
 1694 -8 1668 -18 1636 -18 c 0
 1606 -18 1580 -7 1559 15 c 0
 1537 38 1526 64 1526 94 c 0
 1526 124 1537 150 1559 172 c 0
 1580 194 1606 205 1636 205 c 0
 1666 205 1692 194 1714 172 c 0
 1736 150 1747 124 1747 94 c 0
EndSplineSet
Ligature: 0 0 'liga' period period period
EndChar
StartChar: perthousand
Encoding: 68 8240 68
OldEncoding: 8240
Width: 1966
VWidth: 1000
Flags: HW
Fore
289 1386 m 0
 382 1386 455 1347 508 1268 c 0
 553 1199 575 1116 575 1018 c 0
 575 921 553 838 508 770 c 0
 456 692 384 653 291 653 c 0
 199 653 126 692 72 770 c 0
 24 840 -0 922 0 1018 c 0
 0 1112 24 1195 72 1266 c 0
 126 1346 199 1386 289 1386 c 0
291 1331 m 0
 203 1331 160 1227 160 1020 c 0
 160 810 202 705 287 705 c 0
 374 705 418 808 418 1014 c 0
 418 1225 375 1331 291 1331 c 0
1038 1440 m 1
 332 -55 l 1
 244 -55 l 1
 948 1440 l 1
 1038 1440 l 1
1024 682 m 0
 1115 682 1187 642 1239 563 c 0
 1285 494 1309 411 1309 315 c 0
 1309 220 1286 138 1241 70 c 0
 1188 -8 1115 -47 1024 -47 c 0
 934 -47 862 -8 807 70 c 0
 758 141 733 223 733 315 c 0
 733 411 757 494 805 563 c 0
 859 642 933 682 1024 682 c 0
1024 629 m 0
 937 629 893 522 893 309 c 0
 893 109 936 8 1022 8 c 0
 1108 8 1151 110 1151 313 c 0
 1151 524 1109 629 1024 629 c 0
1675 690 m 0
 1767 690 1838 651 1890 571 c 0
 1937 502 1960 419 1960 324 c 0
 1960 228 1937 146 1892 78 c 0
 1839 0 1767 -39 1675 -39 c 0
 1585 -39 1513 0 1458 78 c 0
 1409 149 1384 231 1384 324 c 0
 1384 419 1408 502 1456 571 c 0
 1511 651 1584 690 1675 690 c 0
1675 637 m 0
 1588 637 1544 530 1544 317 c 0
 1544 117 1587 16 1673 16 c 0
 1759 16 1802 118 1802 322 c 0
 1802 532 1760 637 1675 637 c 0
EndSplineSet
EndChar
StartChar: guilsinglleft
Encoding: 69 8249 69
OldEncoding: 8249
Width: 681
VWidth: 1000
Flags: HW
Fore
563 -8 m 1
 506 -8 l 1
 119 465 l 1
 506 934 l 1
 563 934 l 1
 319 465 l 1
 563 -8 l 1
EndSplineSet
EndChar
StartChar: guilsinglright
Encoding: 70 8250 70
OldEncoding: 8250
Width: 681
VWidth: 1000
Flags: HW
Fore
115 934 m 1
 172 934 l 1
 567 463 l 1
 172 -8 l 1
 115 -8 l 1
 358 463 l 1
 115 934 l 1
EndSplineSet
EndChar
StartChar: colonmonetary
Encoding: 71 8353 71
OldEncoding: 8353
Width: 1366
VWidth: 1000
Flags: HW
Fore
385 287 m 1
 717 1311 l 1
 568 1292 458 1212 387 1073 c 0
 330 961 301 822 301 655 c 0
 301 509 329 386 385 287 c 1
573 109 m 1
 952 1284 l 1
 905 1303 851 1313 793 1315 c 1
 438 213 l 1
 475 171 520 136 573 109 c 1
1106 1522 m 1
 1040 1321 l 1
 1068 1302 1092 1292 1114 1292 c 0
 1159 1292 1187 1324 1198 1386 c 1
 1233 1386 l 1
 1264 926 l 1
 1233 926 l 1
 1186 1080 1115 1189 1018 1251 c 1
 641 82 l 1
 693 66 749 57 809 57 c 0
 980 57 1131 151 1264 338 c 1
 1294 317 l 1
 1163 85 976 -31 733 -31 c 0
 692 -31 650 -27 606 -20 c 1
 547 -207 l 1
 479 -184 l 1
 537 -6 l 1
 483 9 433 30 387 57 c 1
 322 -145 l 1
 254 -123 l 1
 326 100 l 1
 158 234 74 420 74 657 c 0
 74 855 136 1025 260 1166 c 0
 384 1308 545 1381 741 1386 c 1
 811 1606 l 1
 881 1583 l 1
 815 1384 l 1
 870 1380 923 1369 975 1350 c 1
 1036 1544 l 1
 1106 1522 l 1
EndSplineSet
EndChar
StartChar: uni20A2
Encoding: 72 8354 72
OldEncoding: 8354
Width: 1441
VWidth: 1000
Flags: HW
Fore
1274 373 m 1
 1331 336 l 1
 1281 229 1205 142 1103 74 c 0
 1001 5 892 -29 776 -29 c 0
 551 -29 368 35 227 164 c 0
 83 296 10 474 10 698 c 0
 10 913 78 1095 213 1245 c 0
 350 1397 524 1473 737 1473 c 0
 782 1473 848 1458 933 1428 c 0
 1018 1399 1083 1384 1128 1384 c 0
 1171 1384 1192 1414 1192 1473 c 1
 1241 1473 l 1
 1241 1266 1254 1106 1280 991 c 1
 1227 983 l 1
 1150 1251 1005 1384 791 1384 c 0
 624 1384 492 1318 393 1184 c 0
 306 1064 262 917 262 743 c 0
 262 595 286 465 334 354 c 0
 394 211 485 124 608 94 c 1
 606 764 l 1
 606 843 571 883 502 883 c 0
 488 883 473 881 457 877 c 1
 457 901 l 1
 532 930 637 973 772 1032 c 1
 772 864 l 1
 849 972 931 1026 1020 1026 c 0
 1051 1026 1078 1015 1100 992 c 0
 1122 970 1133 943 1133 911 c 0
 1133 885 1124 862 1107 840 c 0
 1090 818 1068 807 1042 807 c 0
 1001 807 966 830 936 877 c 1
 905 881 l 1
 859 881 823 851 799 793 c 0
 782 750 774 701 774 645 c 1
 776 84 l 1
 890 84 986 109 1065 158 c 0
 1132 201 1201 273 1274 373 c 1
EndSplineSet
EndChar
StartChar: franc
Encoding: 73 8355 73
OldEncoding: 8355
Width: 1267
VWidth: 1000
Flags: HW
Fore
791 1008 m 1
 854 864 l 1
 932 972 1014 1026 1102 1026 c 0
 1133 1026 1160 1015 1182 992 c 0
 1204 970 1214 943 1214 911 c 0
 1214 885 1206 862 1189 840 c 0
 1172 818 1150 807 1124 807 c 0
 1086 807 1051 830 1018 877 c 1
 987 881 l 1
 941 881 906 851 883 793 c 0
 865 750 856 701 856 645 c 2
 856 170 l 2
 856 92 914 48 1030 37 c 1
 1036 2 l 1
 6 0 l 1
 6 41 l 1
 84 52 138 75 168 111 c 0
 198 146 213 203 213 283 c 2
 213 1231 l 2
 213 1298 194 1344 156 1370 c 0
 126 1392 75 1404 4 1405 c 1
 4 1452 l 1
 1118 1452 l 1
 1147 1112 l 1
 1087 1112 l 1
 1071 1199 1044 1262 1008 1300 c 0
 967 1344 903 1366 817 1366 c 2
 430 1366 l 1
 430 885 l 1
 515 908 635 949 791 1008 c 1
430 193 m 2
 430 141 440 104 459 82 c 0
 477 60 511 49 561 49 c 0
 647 49 690 94 690 182 c 1
 688 764 l 1
 688 798 661 824 606 842 c 0
 563 857 521 863 481 860 c 2
 430 858 l 1
 430 193 l 2
EndSplineSet
EndChar
StartChar: lira
Encoding: 74 8356 74
OldEncoding: 8356
Width: 1050
VWidth: 1000
Flags: HW
Fore
63 113 m 0
 63 95 71 80 86 68 c 0
 101 55 118 49 137 49 c 0
 173 49 219 81 276 143 c 1
 238 167 195 178 147 178 c 0
 91 178 63 156 63 113 c 0
838 506 m 1
 528 506 l 1
 527 412 500 307 446 193 c 1
 541 167 621 154 688 154 c 0
 855 154 952 216 981 340 c 1
 1020 340 l 1
 1020 309 l 2
 1020 221 990 143 930 78 c 0
 871 12 797 -20 709 -20 c 0
 621 -20 504 17 358 92 c 1
 283 16 204 -23 121 -23 c 0
 83 -23 49 -8 20 20 c 0
 -8 48 -23 80 -23 117 c 0
 -23 166 -3 204 35 231 c 0
 69 257 111 270 162 270 c 0
 195 270 251 259 330 238 c 1
 341 289 346 329 346 356 c 0
 346 406 344 455 340 506 c 1
 98 506 l 1
 98 598 l 1
 328 598 l 1
 324 631 318 664 311 698 c 1
 90 698 l 1
 90 780 l 1
 291 780 l 1
 265 883 252 968 252 1036 c 0
 252 1165 287 1270 356 1353 c 0
 426 1435 524 1477 651 1477 c 0
 721 1477 780 1462 829 1434 c 0
 890 1398 920 1348 920 1284 c 0
 920 1257 910 1233 892 1212 c 0
 873 1192 851 1182 823 1182 c 0
 776 1182 747 1201 737 1241 c 1
 725 1350 l 1
 717 1389 692 1409 649 1409 c 0
 581 1409 527 1379 487 1319 c 0
 453 1266 436 1204 436 1133 c 0
 436 1081 457 964 498 782 c 1
 836 782 l 1
 836 698 l 1
 510 698 l 1
 517 666 522 632 524 598 c 1
 838 598 l 1
 838 506 l 1
EndSplineSet
EndChar
StartChar: uni20A8
Encoding: 75 8360 75
OldEncoding: 8360
Width: 1964
VWidth: 1000
Flags: HW
Fore
1884 942 m 1
 1884 631 l 1
 1851 631 l 1
 1810 800 1728 885 1604 885 c 0
 1565 885 1531 874 1499 854 c 0
 1464 832 1446 803 1446 766 c 0
 1446 699 1490 641 1577 592 c 1
 1823 467 l 1
 1910 410 1954 337 1954 250 c 0
 1954 169 1923 102 1862 49 c 0
 1800 -3 1729 -29 1649 -29 c 0
 1617 -29 1572 -21 1512 -6 c 0
 1453 9 1408 16 1378 16 c 1
 1366 6 l 1
 1333 6 l 1
 1333 0 l 1
 1001 0 l 1
 543 635 l 1
 459 633 l 1
 401 635 l 1
 401 240 l 2
 401 158 414 103 438 76 c 0
 463 48 515 35 596 37 c 1
 596 0 l 1
 14 0 l 1
 14 37 l 1
 95 35 147 48 172 76 c 0
 197 103 209 158 209 240 c 2
 209 983 l 1
 4 983 l 1
 4 1055 l 1
 209 1055 l 1
 209 1116 l 2
 209 1198 197 1253 172 1280 c 0
 147 1307 95 1320 14 1319 c 1
 14 1356 l 1
 522 1356 l 2
 861 1356 1043 1255 1069 1055 c 1
 1253 1055 l 1
 1253 983 l 1
 1071 983 l 1
 1060 815 950 707 739 659 c 1
 1018 270 l 2
 1115 134 1220 57 1333 41 c 1
 1333 313 l 1
 1366 313 l 1
 1382 234 1413 169 1458 119 c 0
 1511 60 1576 31 1651 31 c 0
 1693 31 1730 44 1760 70 c 0
 1791 96 1806 129 1806 170 c 0
 1806 237 1765 295 1683 344 c 1
 1452 467 l 1
 1370 523 1329 593 1329 678 c 0
 1329 757 1356 821 1409 869 c 0
 1462 918 1528 942 1608 942 c 0
 1631 942 1664 936 1707 924 c 0
 1750 911 1783 905 1806 905 c 1
 1831 911 l 1
 1851 942 l 1
 1884 942 l 1
401 983 m 1
 401 696 l 1
 457 696 l 2
 563 696 651 717 719 760 c 0
 801 809 844 883 848 983 c 1
 401 983 l 1
842 1055 m 1
 831 1124 799 1179 745 1220 c 0
 692 1260 629 1280 557 1280 c 0
 517 1280 466 1274 401 1262 c 1
 401 1055 l 1
 842 1055 l 1
EndSplineSet
EndChar
StartChar: uni20A9
Encoding: 76 8361 76
OldEncoding: 8361
Width: 2058
VWidth: 1000
Flags: HW
Fore
850 918 m 1
 498 918 l 1
 676 440 l 1
 736 593 794 752 850 918 c 1
1534 915 m 1
 1190 915 l 1
 1366 428 l 1
 1534 915 l 1
1165 987 m 1
 1559 987 l 1
 1602 1120 l 1
 1118 1120 l 1
 1165 987 l 1
471 989 m 1
 874 989 l 1
 901 1073 l 1
 887 1122 l 1
 424 1122 l 1
 471 989 l 1
2 989 m 1
 250 989 l 1
 235 1032 218 1076 199 1122 c 1
 2 1122 l 1
 2 1194 l 1
 168 1194 l 1
 139 1265 112 1314 86 1341 c 0
 51 1380 0 1403 -66 1411 c 1
 -66 1454 l 1
 -63 1454 l 2
 -39 1454 59 1453 231 1450 c 0
 350 1449 448 1449 524 1452 c 1
 524 1407 l 1
 421 1410 369 1380 369 1319 c 0
 369 1296 380 1254 401 1194 c 1
 864 1194 l 1
 838 1270 812 1323 784 1352 c 0
 748 1389 693 1408 621 1411 c 1
 618 1454 l 1
 770 1449 967 1448 1210 1452 c 1
 1210 1405 l 1
 1109 1405 1059 1376 1059 1317 c 0
 1059 1299 1070 1257 1094 1192 c 1
 1624 1192 l 1
 1647 1256 1659 1297 1659 1315 c 0
 1659 1350 1642 1376 1608 1391 c 0
 1582 1403 1550 1407 1511 1403 c 1
 1509 1454 l 1
 1631 1449 1790 1448 1987 1452 c 1
 1987 1403 l 1
 1911 1393 1858 1374 1825 1343 c 0
 1799 1319 1772 1268 1743 1192 c 1
 1972 1192 l 1
 1972 1120 l 1
 1718 1120 l 1
 1669 987 l 1
 1972 987 l 1
 1972 915 l 1
 1645 915 l 1
 1311 -35 l 1
 1237 177 1120 493 961 913 c 1
 922 816 806 501 610 -33 c 1
 276 918 l 1
 2 918 l 1
 2 989 l 1
EndSplineSet
EndChar
StartChar: dong
Encoding: 77 8363 77
OldEncoding: 8363
Width: 1093
VWidth: 1000
Flags: HW
Fore
569 1499 m 1
 567 1532 l 1
 697 1566 808 1610 901 1665 c 1
 899 416 l 1
 899 343 933 307 999 307 c 0
 1016 307 1033 310 1051 315 c 1
 1051 283 l 1
 719 154 l 1
 717 303 l 1
 653 253 609 221 586 207 c 0
 538 180 486 166 430 166 c 0
 302 166 204 222 137 334 c 0
 83 425 55 540 55 678 c 0
 55 819 88 938 154 1036 c 0
 229 1150 333 1206 467 1206 c 0
 564 1206 650 1174 725 1110 c 1
 725 1417 l 2
 725 1477 694 1507 631 1507 c 0
 612 1507 591 1505 569 1499 c 1
508 1126 m 0
 412 1126 340 1079 291 983 c 0
 251 908 231 818 231 713 c 0
 231 599 252 506 293 432 c 0
 345 342 423 297 528 297 c 0
 605 297 670 330 723 395 c 1
 723 903 l 2
 723 965 702 1017 662 1061 c 0
 621 1105 569 1126 508 1126 c 0
102 66 m 1
 1012 66 l 1
 1012 -6 l 1
 102 -6 l 1
 102 66 l 1
1012 1331 m 1
 287 1331 l 1
 287 1403 l 1
 1012 1403 l 1
 1012 1331 l 1
EndSplineSet
EndChar
StartChar: Euro
Encoding: 78 8364 78
OldEncoding: 8364
Width: 1566
VWidth: 1000
Flags: HW
Fore
1386 1090 m 1
 1197 1236 1032 1309 891 1309 c 0
 783 1309 685 1272 596 1200 c 0
 514 1133 453 1047 414 942 c 1
 1333 942 l 1
 1247 764 l 1
 381 764 l 1
 381 700 l 1
 1231 700 l 1
 1145 526 l 1
 412 526 l 1
 444 420 505 331 594 260 c 0
 683 189 782 154 891 154 c 0
 1047 154 1218 231 1405 387 c 1
 1405 176 l 1
 1255 42 1085 -25 897 -25 c 0
 741 -25 601 29 477 137 c 0
 358 241 281 371 246 526 c 1
 -2 526 l 1
 78 702 l 1
 219 702 l 1
 219 764 l 1
 0 764 l 1
 66 938 l 1
 238 938 l 1
 288 1096 367 1225 475 1323 c 0
 595 1432 734 1487 891 1487 c 0
 1082 1487 1280 1411 1485 1260 c 1
 1386 1090 l 1
EndSplineSet
EndChar
StartChar: uni2102
Encoding: 79 8450 79
OldEncoding: 8450
Width: 1374
VWidth: 1000
Flags: HW
Fore
426 256 m 1
 426 1126 l 1
 330 1034 283 892 283 700 c 0
 283 496 330 347 426 256 c 1
575 1214 m 1
 575 168 l 1
 622 153 670 145 719 145 c 0
 935 145 1066 259 1114 487 c 1
 1292 442 l 1
 1258 302 1192 191 1094 111 c 0
 997 31 877 -8 733 -8 c 0
 527 -8 367 59 254 195 c 0
 150 320 98 489 98 700 c 0
 98 905 153 1070 262 1194 c 0
 377 1324 535 1389 737 1389 c 0
 868 1389 981 1354 1075 1285 c 0
 1169 1216 1234 1120 1270 995 c 1
 1094 954 l 1
 1035 1141 915 1235 733 1235 c 0
 676 1235 623 1228 575 1214 c 1
EndSplineSet
EndChar
StartChar: uni2107
Encoding: 80 8455 80
OldEncoding: 8455
Width: 989
VWidth: 1000
Flags: HW
Fore
866 74 m 1
 753 20 637 -6 518 -6 c 0
 397 -6 295 23 213 82 c 0
 122 147 76 239 76 356 c 0
 76 549 201 672 451 727 c 1
 259 779 164 875 164 1016 c 0
 164 1114 206 1189 291 1239 c 0
 359 1279 446 1298 553 1298 c 0
 634 1298 731 1284 846 1255 c 1
 846 1075 l 1
 764 1075 l 1
 754 1190 682 1247 547 1247 c 0
 477 1247 422 1226 380 1185 c 0
 338 1143 317 1087 317 1018 c 0
 317 915 352 843 420 801 c 0
 474 767 556 750 666 750 c 1
 666 668 l 1
 382 668 240 563 240 354 c 0
 240 263 269 190 328 135 c 0
 385 82 459 55 551 55 c 0
 708 55 786 135 784 295 c 1
 866 295 l 1
 866 74 l 1
EndSplineSet
EndChar
StartChar: uni210A
Encoding: 81 8458 81
OldEncoding: 8458
Width: 1366
VWidth: 1000
Flags: HW
Fore
877 829 m 1
 1042 829 l 1
 883 29 l 1
 1071 102 1210 215 1300 367 c 1
 1333 348 l 1
 1224 169 1071 47 874 -18 c 1
 787 -433 594 -641 295 -641 c 0
 232 -641 177 -626 129 -596 c 0
 72 -560 43 -513 43 -455 c 0
 43 -284 266 -137 711 -12 c 1
 745 170 l 1
 681 54 592 -4 477 -4 c 0
 391 -4 321 30 266 98 c 0
 216 161 190 236 190 324 c 0
 190 459 228 578 303 680 c 0
 386 793 493 850 623 850 c 0
 735 850 810 791 848 674 c 1
 877 829 l 1
817 578 m 0
 817 632 805 681 780 723 c 0
 752 773 711 799 659 799 c 0
 563 799 485 733 428 600 c 0
 383 496 360 388 360 276 c 0
 360 221 372 172 395 131 c 0
 424 82 464 57 516 57 c 0
 621 57 701 122 756 250 c 0
 797 347 817 456 817 578 c 0
700 -57 m 1
 348 -156 172 -287 172 -453 c 0
 172 -496 190 -531 225 -558 c 0
 261 -585 301 -598 346 -598 c 0
 513 -598 631 -418 700 -57 c 1
EndSplineSet
EndChar
StartChar: uni210F
Encoding: 82 8463 82
OldEncoding: 8463
Width: 1007
VWidth: 1000
Flags: HW
Fore
356 1126 m 1
 378 1203 389 1252 389 1274 c 1
 381 1300 l 1
 355 1311 318 1315 270 1313 c 1
 270 1350 l 1
 567 1401 l 1
 566 1349 545 1257 506 1126 c 1
 877 1130 l 1
 877 1049 l 1
 483 1044 l 1
 369 631 l 1
 427 695 495 755 571 811 c 0
 671 882 750 918 809 918 c 0
 843 918 871 902 893 872 c 0
 915 842 926 810 926 774 c 0
 926 695 897 582 841 436 c 0
 784 290 756 177 756 98 c 0
 756 82 764 74 780 74 c 0
 835 74 894 127 958 233 c 1
 967 219 l 1
 965 166 934 112 872 58 c 0
 811 4 753 -23 698 -23 c 0
 634 -23 602 12 602 80 c 0
 602 162 630 278 687 428 c 0
 744 578 772 694 772 774 c 1
 749 795 730 805 717 805 c 0
 699 805 684 796 672 778 c 1
 475 695 317 436 199 0 c 1
 47 0 l 1
 334 1044 l 1
 123 1044 l 1
 129 1126 l 1
 356 1126 l 1
EndSplineSet
EndChar
StartChar: Ifraktur
Encoding: 83 8465 83
OldEncoding: 8465
Width: 1404
VWidth: 1000
Flags: HW
Fore
395 915 m 1
 403 883 l 1
 378 877 351 874 324 874 c 0
 264 874 212 896 170 938 c 0
 128 982 106 1034 106 1094 c 0
 106 1182 143 1255 215 1311 c 0
 281 1361 359 1386 451 1386 c 0
 517 1386 613 1362 737 1313 c 0
 862 1264 957 1239 1024 1239 c 0
 1105 1239 1161 1281 1194 1364 c 1
 1227 1356 l 1
 1174 1178 1071 1090 920 1090 c 0
 851 1090 754 1113 629 1159 c 0
 503 1206 406 1229 338 1229 c 0
 289 1229 246 1214 210 1185 c 0
 174 1155 156 1117 156 1069 c 0
 156 964 216 911 338 911 c 0
 356 911 375 913 395 915 c 1
1225 934 m 1
 1200 915 l 1
 1156 948 1117 965 1081 965 c 0
 1024 965 995 935 995 874 c 0
 995 842 1029 762 1098 636 c 0
 1166 510 1200 422 1200 373 c 0
 1200 246 1137 144 1010 68 c 0
 900 2 778 -31 641 -31 c 0
 565 -31 487 -10 410 31 c 0
 369 53 313 91 242 147 c 0
 188 188 152 209 133 209 c 0
 98 209 68 189 43 150 c 1
 0 150 l 1
 87 260 175 315 264 315 c 0
 328 315 395 290 463 240 c 1
 627 100 l 2
 688 50 741 25 786 25 c 0
 851 25 910 45 965 86 c 0
 1025 131 1055 185 1055 248 c 0
 1055 285 1018 370 944 503 c 0
 870 636 834 726 834 772 c 0
 834 834 854 889 895 939 c 0
 936 989 986 1014 1047 1014 c 0
 1104 1014 1163 987 1225 934 c 1
EndSplineSet
EndChar
StartChar: uni2112
Encoding: 84 8466 84
OldEncoding: 8466
Width: 2056
VWidth: 1000
Flags: HW
Fore
537 1042 m 0
 537 1184 610 1297 756 1380 c 0
 876 1449 1013 1483 1167 1483 c 0
 1277 1483 1377 1465 1468 1430 c 1
 1458 1413 l 1
 1324 1435 1232 1446 1180 1446 c 0
 1034 1446 902 1414 784 1352 c 0
 644 1274 573 1168 573 1034 c 0
 573 924 626 840 731 784 c 0
 816 739 918 717 1036 719 c 2
 1155 721 l 1
 1263 886 1389 1034 1532 1163 c 0
 1719 1334 1884 1419 2028 1419 c 0
 2058 1419 2084 1409 2106 1388 c 0
 2129 1366 2140 1341 2140 1311 c 0
 2140 1178 2037 1048 1831 920 c 0
 1681 827 1517 754 1339 700 c 1
 1230 534 1145 418 1083 352 c 0
 989 254 871 172 729 106 c 1
 848 75 952 59 1042 59 c 0
 1171 59 1324 139 1503 299 c 1
 1520 272 l 1
 1445 188 1355 119 1251 66 c 0
 1139 8 1031 -20 926 -20 c 0
 857 -20 738 -1 567 39 c 1
 409 2 274 -16 162 -16 c 0
 14 -16 -59 18 -59 88 c 0
 -59 136 -21 173 55 199 c 0
 113 218 171 227 231 227 c 0
 364 227 514 194 682 127 c 1
 760 194 840 282 922 391 c 1
 1126 686 l 1
 972 686 845 708 745 752 c 0
 606 812 537 909 537 1042 c 0
145 158 m 1
 35 159 -20 134 -20 82 c 0
 -20 38 50 16 190 16 c 0
 298 16 403 33 504 68 c 1
 328 125 l 2
 259 145 199 156 145 156 c 1
 145 158 l 1
2019 1393 m 0
 1865 1393 1644 1178 1356 748 c 1
 1490 765 1642 830 1812 942 c 0
 2006 1068 2103 1189 2103 1307 c 0
 2103 1364 2075 1393 2019 1393 c 0
EndSplineSet
EndChar
StartChar: afii61289
Encoding: 85 8467 85
OldEncoding: 8467
Width: 1116
VWidth: 1000
Flags: HW
Fore
782 457 m 1
 819 444 l 1
 717 140 581 -12 412 -12 c 0
 300 -12 244 55 244 190 c 0
 244 293 257 410 283 543 c 0
 289 570 317 685 365 889 c 1
 257 900 160 938 76 1004 c 1
 106 1036 l 1
 179 976 268 941 375 930 c 1
 390 1068 434 1189 508 1294 c 0
 594 1417 700 1479 827 1479 c 0
 958 1479 1024 1417 1024 1294 c 0
 1024 1114 861 981 535 895 c 1
 451 543 l 1
 419 401 403 281 403 184 c 0
 403 108 431 70 485 70 c 0
 547 70 609 120 672 221 c 0
 715 289 752 368 782 457 c 1
543 940 m 1
 798 1012 926 1135 926 1309 c 0
 926 1396 887 1440 809 1440 c 0
 701 1440 612 1273 543 940 c 1
EndSplineSet
EndChar
StartChar: uni2115
Encoding: 86 8469 86
OldEncoding: 8469
Width: 1605
VWidth: 1000
Flags: HW
Fore
365 0 m 1
 365 1405 l 1
 555 1405 l 1
 1292 303 l 1
 1292 1405 l 1
 1470 1405 l 1
 1470 0 l 1
 1280 0 l 1
 543 1104 l 1
 543 0 l 1
 365 0 l 1
270 1403 m 1
 272 -10 l 1
 96 -10 l 1
 94 1403 l 1
 270 1403 l 1
EndSplineSet
EndChar
StartChar: weierstrass
Encoding: 87 8472 87
OldEncoding: 8472
Width: 1710
VWidth: 1000
Flags: HW
Fore
707 1059 m 1
 731 1016 l 1
 504 879 391 714 391 520 c 0
 391 475 401 423 422 365 c 1
 573 527 690 642 772 709 c 0
 933 841 1075 907 1198 907 c 0
 1280 907 1344 880 1391 824 c 0
 1437 769 1460 700 1460 616 c 0
 1460 455 1408 311 1305 184 c 0
 1195 49 1062 -18 903 -18 c 0
 843 -18 791 0 748 37 c 0
 704 72 682 119 682 178 c 0
 682 225 693 265 715 299 c 0
 741 339 776 358 819 358 c 0
 868 358 893 334 893 285 c 0
 893 267 844 217 745 135 c 1
 747 104 764 77 797 55 c 0
 825 36 857 27 891 27 c 0
 1011 27 1111 104 1190 260 c 0
 1255 391 1288 524 1288 657 c 0
 1288 705 1276 747 1251 782 c 0
 1223 823 1186 844 1141 844 c 0
 1047 844 920 776 762 641 c 0
 647 541 542 433 446 315 c 1
 543 116 592 -29 592 -121 c 0
 592 -201 571 -273 530 -336 c 0
 484 -407 423 -442 346 -442 c 0
 281 -442 227 -418 185 -369 c 0
 144 -319 123 -261 123 -195 c 0
 123 -98 179 31 291 190 c 1
 250 286 229 367 229 434 c 0
 229 658 388 866 707 1059 c 1
313 139 m 1
 216 0 168 -112 168 -197 c 0
 168 -247 184 -293 215 -334 c 0
 246 -375 287 -395 336 -395 c 0
 374 -395 405 -380 429 -350 c 0
 453 -320 465 -286 465 -248 c 0
 465 -163 414 -34 313 139 c 1
EndSplineSet
EndChar
StartChar: uni211A
Encoding: 88 8474 88
OldEncoding: 8474
Width: 1538
VWidth: 1000
Flags: HW
Fore
1184 147 m 1
 1264 90 1342 48 1417 20 c 1
 1364 -104 l 1
 1264 -69 1167 -14 1071 61 c 1
 970 5 858 -23 735 -23 c 0
 537 -23 378 46 258 184 c 0
 143 315 86 481 86 682 c 0
 86 888 143 1056 256 1186 c 0
 375 1321 536 1389 739 1389 c 0
 944 1389 1105 1322 1223 1188 c 0
 1335 1059 1391 892 1391 684 c 0
 1391 457 1322 279 1184 147 c 1
426 252 m 1
 426 1116 l 1
 324 1021 272 876 272 682 c 0
 272 494 324 350 426 252 c 1
578 1208 m 1
 578 158 l 1
 627 140 681 131 739 131 c 0
 805 131 866 143 922 168 c 1
 866 205 806 231 743 246 c 1
 786 377 l 1
 892 348 978 305 1044 248 c 1
 1151 345 1204 490 1204 684 c 0
 1204 840 1167 967 1092 1067 c 0
 1007 1178 890 1233 739 1233 c 0
 681 1233 627 1225 578 1208 c 1
EndSplineSet
EndChar
StartChar: Rfraktur
Encoding: 89 8476 89
OldEncoding: 8476
Width: 1628
VWidth: 1000
Flags: HW
Fore
707 1188 m 1
 828 1247 897 1279 913 1286 c 0
 990 1326 1055 1365 1108 1405 c 1
 1284 1315 1372 1216 1372 1108 c 0
 1372 988 1284 883 1108 795 c 1
 1165 748 1205 666 1227 549 c 1
 1238 453 1248 357 1257 260 c 0
 1270 169 1294 123 1329 123 c 0
 1356 123 1386 137 1417 164 c 1
 1438 137 l 1
 1200 -43 l 1
 1103 31 1055 134 1055 266 c 0
 1055 287 1056 319 1058 364 c 0
 1060 408 1061 442 1061 467 c 0
 1061 568 1021 649 940 709 c 1
 741 631 l 1
 743 498 l 1
 745 371 697 261 600 168 c 0
 562 131 459 61 293 -43 c 1
 143 115 l 1
 76 72 l 1
 51 100 l 1
 287 250 l 1
 432 94 l 1
 514 134 555 234 555 395 c 2
 555 930 l 2
 555 1057 547 1146 530 1198 c 0
 500 1295 436 1343 338 1343 c 0
 279 1343 227 1325 180 1288 c 0
 130 1249 104 1200 104 1143 c 0
 104 1090 147 1024 232 945 c 0
 318 867 360 795 360 729 c 0
 360 629 304 546 190 479 c 1
 182 512 l 1
 231 538 256 569 256 606 c 0
 256 659 213 726 128 807 c 0
 43 887 -0 958 0 1020 c 0
 0 1122 40 1209 119 1280 c 0
 198 1351 289 1386 393 1386 c 0
 537 1386 641 1320 707 1188 c 1
721 1149 m 1
 743 1063 754 969 754 866 c 0
 754 808 750 745 743 678 c 1
 883 730 976 769 1022 797 c 0
 1128 861 1182 938 1182 1028 c 0
 1182 1167 1114 1237 979 1237 c 0
 905 1237 819 1208 721 1149 c 1
EndSplineSet
EndChar
StartChar: uni211D
Encoding: 90 8477 90
OldEncoding: 8477
Width: 1525
VWidth: 1000
Flags: HW
Fore
377 0 m 1
 377 1403 l 1
 926 1403 l 2
 1221 1403 1368 1275 1368 1020 c 0
 1368 800 1251 673 1018 639 c 1
 1105 587 1193 491 1280 350 c 0
 1284 343 1348 227 1470 0 c 1
 1264 0 l 1
 1183 149 1125 253 1090 313 c 0
 995 473 932 562 899 580 c 0
 846 608 790 623 731 623 c 2
 541 623 l 1
 541 0 l 1
 377 0 l 1
541 784 m 1
 893 784 l 2
 1096 784 1198 863 1198 1020 c 0
 1198 1171 1110 1247 934 1247 c 2
 541 1247 l 1
 541 784 l 1
279 1405 m 1
 279 0 l 1
 102 0 l 1
 102 1405 l 1
 279 1405 l 1
EndSplineSet
EndChar
StartChar: trademark
Encoding: 91 8482 91
OldEncoding: 8482
Width: 2048
VWidth: 1000
Flags: HW
Fore
487 649 m 1
 625 649 l 1
 625 1343 l 1
 891 1343 l 1
 891 1466 l 1
 225 1466 l 1
 225 1343 l 1
 487 1343 l 1
 487 649 l 1
983 649 m 1
 1108 649 l 1
 1108 1343 l 1
 1325 649 l 1
 1450 649 l 1
 1659 1333 l 1
 1659 649 l 1
 1784 649 l 1
 1784 1466 l 1
 1587 1466 l 1
 1389 815 l 1
 1182 1466 l 1
 983 1466 l 1
 983 649 l 1
EndSplineSet
EndChar
StartChar: uni2124
Encoding: 92 8484 92
OldEncoding: 8484
Width: 1660
VWidth: 1000
Flags: HW
Fore
1552 0 m 1
 27 0 l 1
 1006 1237 l 1
 98 1237 l 1
 98 1395 l 1
 1552 1393 l 1
 586 154 l 1
 1501 154 l 1
 1552 0 l 1
1268 1233 m 1
 1147 1233 l 1
 297 156 l 1
 434 156 l 1
 1268 1233 l 1
EndSplineSet
EndChar
StartChar: uni2127
Encoding: 93 8487 93
OldEncoding: 8487
Width: 1550
VWidth: 1000
Flags: HW
Fore
582 1155 m 1
 418 1155 l 2
 354 1155 311 1147 291 1130 c 0
 266 1111 253 1068 252 999 c 1
 158 999 l 1
 158 1264 l 1
 655 1264 l 1
 655 1155 l 1
 467 950 373 748 373 547 c 0
 373 410 406 296 473 205 c 0
 548 102 651 51 782 51 c 0
 915 51 1018 102 1092 205 c 0
 1157 296 1190 410 1190 547 c 0
 1190 748 1096 950 909 1155 c 1
 909 1264 l 1
 1405 1264 l 1
 1405 999 l 1
 1313 999 l 1
 1317 1065 1304 1109 1274 1130 c 0
 1251 1147 1205 1155 1137 1155 c 2
 983 1155 l 1
 1106 1047 1194 958 1247 889 c 0
 1333 776 1376 662 1376 547 c 0
 1376 375 1321 239 1209 138 c 0
 1098 38 956 -12 782 -12 c 0
 617 -12 478 38 365 139 c 0
 247 244 188 379 188 543 c 0
 188 660 231 776 315 889 c 0
 371 963 460 1051 582 1155 c 1
EndSplineSet
EndChar
StartChar: uni2130
Encoding: 94 8496 94
OldEncoding: 8496
Width: 1650
VWidth: 1000
Flags: HW
Fore
291 1145 m 0
 291 1251 342 1336 444 1399 c 0
 532 1453 632 1481 745 1481 c 0
 819 1481 905 1464 1004 1430 c 1
 993 1411 l 1
 920 1432 856 1442 803 1442 c 0
 696 1442 597 1419 506 1374 c 0
 391 1317 334 1241 334 1147 c 0
 334 1059 382 995 477 954 c 0
 545 926 631 911 733 909 c 1
 731 965 l 1
 726 1100 819 1214 1010 1307 c 0
 1169 1384 1326 1423 1481 1423 c 0
 1575 1423 1622 1392 1622 1329 c 0
 1622 1209 1513 1103 1294 1012 c 0
 1140 946 978 902 807 879 c 1
 807 858 l 2
 807 843 812 829 823 817 c 1
 851 820 875 821 897 821 c 0
 931 821 958 812 979 795 c 1
 979 784 l 2
 979 765 965 756 938 756 c 0
 900 756 856 765 807 782 c 1
 664 725 538 645 430 543 c 0
 302 418 238 290 238 158 c 0
 238 106 265 68 319 43 c 0
 362 24 412 14 471 14 c 0
 614 14 750 46 879 109 c 0
 1036 186 1114 289 1114 418 c 0
 1114 452 1097 479 1063 500 c 0
 1034 517 1001 526 965 526 c 0
 780 526 597 416 414 195 c 1
 391 184 l 1
 383 193 l 1
 383 201 l 2
 383 224 418 270 489 338 c 0
 645 487 795 561 940 561 c 0
 1082 561 1153 508 1153 401 c 0
 1153 272 1067 165 895 82 c 0
 753 14 609 -20 463 -20 c 0
 363 -20 283 5 221 55 c 0
 154 110 121 186 121 285 c 0
 121 547 343 722 788 811 c 1
 741 879 l 1
 441 881 291 970 291 1145 c 0
1495 1393 m 0
 1376 1393 1248 1338 1110 1229 c 0
 999 1140 902 1035 817 913 c 1
 1107 942 1328 1027 1483 1167 c 0
 1552 1230 1587 1283 1587 1325 c 0
 1587 1370 1556 1393 1495 1393 c 0
EndSplineSet
EndChar
StartChar: uni2131
Encoding: 95 8497 95
OldEncoding: 8497
Width: 1726
VWidth: 1000
Flags: HW
Fore
496 479 m 1
 624 563 788 627 989 672 c 1
 1225 927 1427 1116 1593 1239 c 1
 1606 1214 l 1
 1424 1062 1284 894 1186 713 c 1
 1210 713 l 2
 1246 713 1292 736 1349 782 c 0
 1405 829 1448 853 1477 856 c 1
 1489 848 l 1
 1489 842 l 2
 1489 820 1464 792 1415 758 c 0
 1377 732 1342 713 1311 700 c 1
 1277 647 1252 582 1237 504 c 1
 1167 481 l 1
 1181 552 1211 620 1257 684 c 1
 1167 664 l 1
 913 210 595 -16 211 -16 c 0
 23 -16 -72 40 -72 152 c 0
 -72 193 -57 229 -29 262 c 0
 0 295 35 311 76 311 c 0
 129 311 156 285 156 233 c 0
 156 213 147 197 129 185 c 0
 111 174 92 168 72 168 c 0
 53 168 29 176 0 193 c 1
 -22 191 -33 174 -33 141 c 0
 -33 61 47 20 207 20 c 0
 349 20 493 94 639 242 c 0
 691 294 797 425 956 637 c 1
 771 581 625 518 518 449 c 1
 496 479 l 1
1720 1251 m 0
 1630 1251 1497 1270 1322 1308 c 0
 1147 1345 1014 1364 924 1364 c 0
 795 1364 676 1326 565 1251 c 0
 442 1168 381 1065 381 942 c 0
 381 819 455 758 602 758 c 0
 722 758 839 797 952 874 c 0
 1056 948 1138 1041 1198 1153 c 1
 1237 1153 l 1
 1173 1026 1087 924 979 846 c 0
 862 760 736 717 602 717 c 0
 526 717 462 737 412 777 c 0
 361 817 336 875 336 950 c 0
 336 1106 424 1229 600 1319 c 0
 742 1393 899 1430 1071 1430 c 0
 1163 1430 1297 1414 1476 1383 c 0
 1654 1353 1789 1337 1880 1337 c 0
 1937 1337 2005 1353 2083 1384 c 1
 2095 1362 l 1
 1980 1288 1855 1251 1720 1251 c 0
EndSplineSet
EndChar
StartChar: aleph
Encoding: 96 8501 96
OldEncoding: 8501
Width: 1685
VWidth: 1000
Flags: HW
Fore
979 655 m 1
 1110 550 1193 481 1229 449 c 0
 1339 343 1395 259 1395 197 c 0
 1395 160 1379 114 1348 59 c 0
 1313 1 1279 -29 1245 -31 c 1
 1235 -27 l 1
 1231 -14 l 1
 1249 36 1257 70 1257 86 c 0
 1257 135 1232 186 1180 240 c 0
 1163 257 1118 297 1044 358 c 2
 455 846 l 1
 373 761 332 685 332 616 c 0
 332 556 356 497 403 438 c 1
 539 297 l 1
 586 242 610 188 610 135 c 0
 610 25 532 -31 375 -31 c 0
 332 -31 302 -25 285 -14 c 1
 279 0 l 1
 283 8 l 1
 341 41 371 75 371 111 c 0
 371 158 350 225 308 309 c 0
 267 394 246 460 246 508 c 0
 246 602 305 723 424 870 c 1
 347 940 302 983 287 999 c 0
 232 1058 205 1111 205 1159 c 0
 205 1197 218 1243 246 1296 c 0
 276 1355 308 1385 342 1386 c 1
 362 1368 l 1
 353 1307 348 1283 348 1296 c 0
 348 1221 431 1111 596 965 c 1
 950 682 l 1
 1217 1012 l 1
 1122 1087 1075 1154 1075 1212 c 0
 1075 1305 1136 1363 1257 1386 c 1
 1233 1355 1220 1324 1219 1294 c 1
 1367 1095 1442 984 1442 961 c 0
 1442 911 1412 870 1354 838 c 1
 1337 900 1302 951 1247 989 c 1
 979 655 l 1
EndSplineSet
EndChar
StartChar: arrowleft
Encoding: 97 8592 97
OldEncoding: 8592
Width: 1617
VWidth: 1000
Flags: HW
Fore
1468 592 m 1
 674 588 l 2
 619 588 576 592 545 600 c 1
 862 252 l 1
 713 111 l 1
 186 694 l 1
 713 1276 l 1
 862 1135 l 1
 545 786 l 1
 568 793 586 797 598 797 c 2
 1468 797 l 1
 1468 592 l 1
EndSplineSet
EndChar
StartChar: arrowup
Encoding: 98 8593 98
OldEncoding: 8593
Width: 1515
VWidth: 1000
Flags: HW
Fore
1339 807 m 1
 1200 657 l 1
 850 975 l 1
 857 949 860 931 860 922 c 2
 860 51 l 1
 655 51 l 1
 653 435 651 612 651 582 c 2
 651 838 l 2
 651 894 656 939 666 975 c 1
 315 657 l 1
 174 807 l 1
 758 1333 l 1
 1339 807 l 1
EndSplineSet
EndChar
StartChar: arrowright
Encoding: 99 8594 99
OldEncoding: 8594
Width: 1617
VWidth: 1000
Flags: HW
Fore
1452 696 m 1
 926 115 l 1
 776 256 l 1
 1094 604 l 1
 1072 597 1054 594 1040 594 c 2
 170 594 l 1
 170 799 l 1
 958 803 l 2
 1014 803 1059 799 1094 791 c 1
 776 1139 l 1
 926 1280 l 1
 1452 696 l 1
EndSplineSet
EndChar
StartChar: arrowdown
Encoding: 100 8595 100
OldEncoding: 8595
Width: 1515
VWidth: 1000
Flags: HW
Fore
1343 578 m 1
 760 51 l 1
 178 578 l 1
 317 727 l 1
 668 410 l 1
 661 436 657 453 657 463 c 2
 657 1333 l 1
 862 1333 l 1
 866 547 l 1
 866 491 862 445 852 410 c 1
 1202 727 l 1
 1343 578 l 1
EndSplineSet
EndChar
StartChar: arrowboth
Encoding: 101 8596 101
OldEncoding: 8596
Width: 2080
VWidth: 1000
Flags: HW
Fore
342 754 m 1
 1741 754 l 1
 1666 827 1595 930 1530 1061 c 1
 1595 1061 l 1
 1722 919 1859 810 2005 735 c 1
 2005 680 l 1
 1859 606 1722 498 1595 354 c 1
 1530 354 l 1
 1595 487 1666 589 1741 662 c 1
 342 662 l 1
 417 588 487 485 553 354 c 1
 485 354 l 1
 358 498 223 606 78 680 c 1
 78 735 l 1
 223 810 358 919 485 1061 c 1
 553 1061 l 1
 489 931 418 829 342 754 c 1
EndSplineSet
EndChar
StartChar: arrowupdn
Encoding: 102 8597 102
OldEncoding: 8597
Width: 937
VWidth: 1000
Flags: HW
Fore
424 -23 m 1
 424 1376 l 1
 349 1301 246 1231 117 1165 c 1
 117 1233 l 1
 259 1360 367 1496 440 1640 c 1
 498 1640 l 1
 571 1496 679 1360 821 1233 c 1
 821 1165 l 1
 690 1231 588 1301 514 1376 c 1
 514 -23 l 1
 589 54 692 124 821 188 c 1
 821 123 l 1
 679 -5 571 -142 498 -287 c 1
 440 -287 l 1
 368 -142 260 -5 117 123 c 1
 117 188 l 1
 246 124 349 54 424 -23 c 1
EndSplineSet
EndChar
StartChar: uni2197
Encoding: 103 8599 103
OldEncoding: 8599
Width: 1259
VWidth: 1000
Flags: HW
Fore
506 1262 m 1
 545 1262 609 1253 696 1237 c 0
 778 1222 842 1216 887 1219 c 0
 892 1219 906 1220 928 1223 c 0
 944 1224 958 1225 969 1225 c 2
 1010 1223 l 1
 1011 1171 1019 1089 1033 976 c 0
 1048 863 1055 778 1055 721 c 1
 1028 700 l 1
 991 713 954 829 918 1051 c 1
 901 1051 l 1
 207 -8 l 1
 173 -5 154 12 150 43 c 1
 840 1112 l 1
 842 1128 l 1
 763 1139 698 1150 649 1161 c 0
 551 1183 498 1207 492 1233 c 1
 506 1262 l 1
EndSplineSet
EndChar
StartChar: uni2198
Encoding: 104 8600 104
OldEncoding: 8600
Width: 1214
VWidth: 1000
Flags: HW
Fore
485 33 m 1
 528 33 591 40 675 54 c 0
 759 69 823 76 866 76 c 0
 877 76 893 74 914 72 c 0
 936 69 952 68 963 68 c 2
 989 72 l 1
 991 124 999 207 1014 322 c 0
 1027 432 1034 516 1034 573 c 1
 1008 594 l 1
 971 582 934 465 897 244 c 1
 881 244 l 1
 186 1303 l 1
 152 1300 133 1283 129 1251 c 1
 819 182 l 1
 821 166 l 1
 742 155 678 144 629 133 c 0
 530 111 478 87 471 59 c 1
 485 33 l 1
EndSplineSet
EndChar
StartChar: uni21B3
Encoding: 105 8627 105
OldEncoding: 8627
Width: 1640
VWidth: 1000
Flags: HW
Fore
152 629 m 1
 1300 623 l 1
 1251 685 1215 735 1192 770 c 0
 1148 840 1125 893 1122 930 c 1
 1157 954 l 1
 1300 770 l 1
 1344 728 1406 661 1487 569 c 1
 1331 373 l 2
 1271 299 1215 236 1163 184 c 1
 1145 182 l 1
 1122 211 l 1
 1128 253 1187 354 1300 514 c 1
 1288 524 l 1
 102 524 l 1
 152 629 l 1
78 1165 m 1
 152 1165 l 1
 152 582 l 2
 152 543 135 524 102 524 c 1
 80 537 l 1
 78 1165 l 1
EndSplineSet
EndChar
StartChar: carriagereturn
Encoding: 106 8629 106
OldEncoding: 8629
Width: 1640
VWidth: 1000
Flags: HW
Fore
1446 629 m 1
 297 623 l 1
 346 685 382 735 406 770 c 0
 449 840 472 893 475 930 c 1
 440 954 l 1
 297 770 l 1
 253 728 191 661 111 569 c 1
 266 373 l 2
 326 299 382 236 434 184 c 1
 453 182 l 1
 475 211 l 1
 470 253 410 354 297 514 c 1
 309 524 l 1
 1495 524 l 1
 1446 629 l 1
1520 1165 m 1
 1446 1165 l 1
 1446 582 l 2
 1446 543 1462 524 1495 524 c 1
 1518 537 l 1
 1520 1165 l 1
EndSplineSet
EndChar
StartChar: arrowdblleft
Encoding: 107 8656 107
OldEncoding: 8656
Width: 1658
VWidth: 1000
Flags: HW
Fore
139 629 m 0
 139 655 208 722 346 831 c 0
 484 941 569 995 600 995 c 0
 633 995 649 978 649 942 c 0
 649 916 610 878 532 827 c 1
 1561 827 l 1
 1561 729 l 1
 406 729 l 1
 268 625 l 1
 428 457 l 1
 1561 457 l 1
 1561 358 l 1
 524 358 l 1
 593 291 627 249 627 231 c 0
 627 199 609 182 573 182 c 0
 550 182 472 251 339 388 c 0
 206 525 139 606 139 629 c 0
EndSplineSet
EndChar
StartChar: arrowdblright
Encoding: 108 8658 108
OldEncoding: 8658
Width: 1634
VWidth: 1000
Flags: HW
Fore
1106 182 m 0
 1070 182 1053 199 1053 231 c 0
 1053 252 1087 294 1157 358 c 1
 119 358 l 1
 119 457 l 1
 1251 457 l 1
 1411 625 l 1
 1274 729 l 1
 119 729 l 1
 119 827 l 1
 1147 827 l 1
 1069 878 1030 916 1030 942 c 0
 1030 978 1047 995 1079 995 c 0
 1105 995 1189 939 1329 827 c 0
 1470 715 1540 649 1540 629 c 0
 1540 607 1473 527 1339 389 c 0
 1206 251 1128 182 1106 182 c 0
EndSplineSet
EndChar
StartChar: arrowdblboth
Encoding: 109 8660 109
OldEncoding: 8660
Width: 1900
VWidth: 1000
Flags: HW
Fore
1505 727 m 1
 395 723 l 1
 258 618 l 1
 418 451 l 1
 1489 451 l 1
 1649 616 l 1
 1505 727 l 1
1395 352 m 1
 512 352 l 1
 582 284 616 242 616 225 c 0
 616 193 598 176 561 176 c 0
 538 176 460 244 327 381 c 0
 194 517 127 598 127 623 c 0
 127 644 197 711 337 822 c 0
 477 934 560 989 588 989 c 0
 622 989 639 971 639 936 c 0
 639 913 600 874 522 821 c 1
 1380 821 l 1
 1305 880 1268 918 1268 934 c 0
 1268 971 1284 989 1317 989 c 0
 1347 989 1431 934 1570 824 c 0
 1708 714 1778 647 1778 623 c 0
 1778 597 1712 515 1580 379 c 0
 1448 242 1369 174 1343 174 c 0
 1308 174 1290 191 1290 225 c 0
 1290 242 1325 284 1395 352 c 1
EndSplineSet
EndChar
StartChar: uni21E4
Encoding: 110 8676 110
OldEncoding: 8676
Width: 2099
VWidth: 1000
Flags: HW
Fore
1921 858 m 1
 1921 678 l 1
 846 678 l 1
 846 319 l 1
 397 768 l 1
 846 1217 l 1
 846 858 l 1
 1921 858 l 1
307 1395 m 1
 307 141 l 1
 129 141 l 1
 129 1395 l 1
 307 1395 l 1
EndSplineSet
EndChar
StartChar: uni21E5
Encoding: 111 8677 111
OldEncoding: 8677
Width: 2048
VWidth: 1000
Flags: HW
Fore
129 858 m 1
 1204 858 l 1
 1204 1217 l 1
 1651 768 l 1
 1204 319 l 1
 1204 678 l 1
 129 678 l 1
 129 858 l 1
1741 1395 m 1
 1921 1395 l 1
 1921 141 l 1
 1741 141 l 1
 1741 1395 l 1
EndSplineSet
EndChar
StartChar: uni21E6
Encoding: 112 8678 112
OldEncoding: 8678
Width: 2390
VWidth: 1000
Flags: HW
Fore
1536 -170 m 1
 512 854 l 1
 1536 1878 l 1
 1536 1366 l 1
 1878 1366 l 1
 1878 342 l 1
 1536 342 l 1
 1536 -170 l 1
754 854 m 1
 1366 240 l 1
 1366 512 l 1
 1708 512 l 1
 1708 1194 l 1
 1366 1194 l 1
 1366 1466 l 1
 754 854 l 1
EndSplineSet
EndChar
StartChar: uni21E7
Encoding: 113 8679 113
OldEncoding: 8679
Width: 2390
VWidth: 1000
Flags: HW
Fore
170 512 m 1
 1194 1536 l 1
 2218 512 l 1
 1706 512 l 1
 1706 170 l 1
 682 170 l 1
 682 512 l 1
 170 512 l 1
1194 1294 m 1
 582 682 l 1
 854 682 l 1
 854 342 l 1
 1536 342 l 1
 1536 682 l 1
 1806 682 l 1
 1194 1294 l 1
EndSplineSet
EndChar
StartChar: uni21E8
Encoding: 114 8680 114
OldEncoding: 8680
Width: 2390
VWidth: 1000
Flags: HW
Fore
854 1878 m 1
 1878 854 l 1
 854 -170 l 1
 854 342 l 1
 512 342 l 1
 512 1366 l 1
 854 1366 l 1
 854 1878 l 1
1636 854 m 1
 1024 1466 l 1
 1024 1196 l 1
 682 1196 l 1
 682 512 l 1
 1024 512 l 1
 1024 242 l 1
 1636 854 l 1
EndSplineSet
EndChar
StartChar: uni21E9
Encoding: 115 8681 115
OldEncoding: 8681
Width: 2390
VWidth: 1000
Flags: HW
Fore
2218 1194 m 1
 1194 170 l 1
 170 1194 l 1
 682 1194 l 1
 682 1536 l 1
 1706 1536 l 1
 1706 1194 l 1
 2218 1194 l 1
1194 412 m 1
 1808 1024 l 1
 1536 1024 l 1
 1536 1366 l 1
 854 1366 l 1
 854 1024 l 1
 584 1024 l 1
 1194 412 l 1
EndSplineSet
EndChar
StartChar: universal
Encoding: 116 8704 116
OldEncoding: 8704
Width: 1771
VWidth: 1000
Flags: HW
Fore
1350 1087 m 1
 1559 1522 l 1
 1743 1522 l 1
 1028 0 l 1
 776 0 l 1
 55 1522 l 1
 248 1522 l 1
 459 1087 l 1
 1350 1087 l 1
1296 942 m 1
 512 942 l 1
 905 135 l 1
 1296 942 l 1
EndSplineSet
EndChar
StartChar: partialdiff
Encoding: 117 8706 117
OldEncoding: 8706
Width: 1091
VWidth: 1000
Flags: HW
Fore
946 717 m 1
 954 791 958 852 958 901 c 0
 958 1014 930 1105 872 1174 c 0
 811 1245 724 1280 612 1280 c 0
 483 1280 382 1227 311 1120 c 1
 266 1120 l 1
 359 1321 486 1421 647 1421 c 0
 776 1421 872 1367 936 1260 c 0
 986 1172 1012 1059 1012 920 c 0
 1012 693 969 490 885 311 c 0
 777 83 623 -31 422 -31 c 0
 318 -31 236 -1 174 58 c 0
 113 118 82 199 82 303 c 0
 82 463 133 602 236 721 c 0
 343 845 476 907 633 907 c 0
 784 907 889 844 946 717 c 1
930 629 m 1
 877 778 781 852 643 852 c 0
 519 852 419 782 344 643 c 0
 283 527 252 401 252 264 c 0
 252 197 267 142 297 98 c 0
 332 51 382 27 446 27 c 0
 571 27 680 99 774 244 c 0
 845 352 897 480 930 629 c 1
EndSplineSet
EndChar
StartChar: existential
Encoding: 118 8707 118
OldEncoding: 8707
Width: 1345
VWidth: 1000
Flags: HW
Fore
117 2 m 1
 117 131 l 1
 1034 131 l 1
 1034 670 l 1
 217 670 l 1
 217 805 l 1
 1034 805 l 1
 1034 1274 l 1
 117 1274 l 1
 117 1409 l 1
 1190 1409 l 1
 1190 2 l 1
 117 2 l 1
EndSplineSet
EndChar
StartChar: emptyset
Encoding: 119 8709 119
OldEncoding: 8709
Width: 1798
VWidth: 1000
Flags: HW
Fore
1354 1145 m 1
 1391 1036 1409 895 1409 723 c 0
 1409 225 1250 -25 932 -25 c 0
 731 -25 595 72 522 264 c 1
 327 50 218 -57 197 -57 c 0
 161 -57 143 -40 143 -4 c 0
 143 18 258 145 487 377 c 1
 466 471 455 586 455 723 c 0
 455 1223 614 1473 932 1473 c 0
 1104 1473 1230 1397 1311 1247 c 1
 1476 1432 1569 1524 1591 1524 c 0
 1627 1524 1645 1506 1645 1470 c 0
 1645 1446 1548 1337 1354 1145 c 1
1184 1112 m 1
 1143 1253 1058 1323 930 1323 c 0
 806 1323 722 1249 678 1100 c 0
 652 1012 639 887 639 723 c 0
 639 659 641 599 645 545 c 1
 1184 1112 l 1
1225 723 m 0
 1225 821 1219 911 1208 991 c 1
 662 414 l 1
 697 220 787 123 932 123 c 0
 1057 123 1142 197 1186 346 c 0
 1212 432 1225 558 1225 723 c 0
EndSplineSet
EndChar
StartChar: gradient
Encoding: 120 8711 120
OldEncoding: 8711
Width: 1679
VWidth: 1000
Flags: HW
Fore
813 -188 m 1
 0 1640 l 1
 1735 1640 l 1
 813 -188 l 1
901 229 m 1
 1563 1534 l 1
 315 1534 l 1
 901 229 l 1
EndSplineSet
EndChar
StartChar: element
Encoding: 121 8712 121
OldEncoding: 8712
Width: 1460
VWidth: 1000
Flags: HW
Fore
1257 1133 m 1
 1257 1018 l 1
 1219 1018 1157 1020 1071 1024 c 0
 991 1027 929 1028 887 1028 c 0
 715 1028 582 1006 487 961 c 0
 362 900 285 795 258 645 c 1
 1257 645 l 1
 1257 524 l 1
 260 524 l 1
 298 373 380 267 504 207 c 0
 597 162 727 139 895 139 c 0
 937 139 1000 141 1082 144 c 0
 1165 148 1223 150 1257 150 c 1
 1257 35 l 1
 780 35 l 2
 595 35 444 79 330 168 c 0
 203 266 139 406 139 586 c 0
 139 763 203 901 330 999 c 0
 444 1088 593 1133 776 1133 c 2
 1257 1133 l 1
EndSplineSet
EndChar
StartChar: notelement
Encoding: 122 8713 122
OldEncoding: 8713
Width: 1460
VWidth: 1000
Flags: HW
Fore
1264 1133 m 1
 1264 1018 l 1
 1020 1018 l 1
 807 645 l 1
 1264 645 l 1
 1264 524 l 1
 739 524 l 1
 549 186 l 1
 649 156 771 141 918 141 c 0
 957 141 1015 143 1092 145 c 0
 1174 148 1231 150 1264 150 c 1
 1264 35 l 1
 786 35 l 2
 658 35 558 50 487 80 c 1
 358 -137 l 1
 229 -137 l 1
 387 129 l 1
 226 261 145 414 145 586 c 0
 145 806 231 958 403 1042 c 0
 525 1103 709 1133 954 1133 c 1
 1065 1325 l 1
 1198 1325 l 1
 1090 1133 l 1
 1264 1133 l 1
887 1018 m 1
 768 1018 l 2
 483 1018 315 894 264 645 c 1
 672 645 l 1
 887 1018 l 1
608 524 m 1
 266 524 l 1
 302 403 362 306 449 233 c 1
 608 524 l 1
EndSplineSet
EndChar
StartChar: suchthat
Encoding: 123 8715 123
OldEncoding: 8715
Width: 1460
VWidth: 1000
Flags: HW
Fore
164 1139 m 1
 645 1139 l 2
 828 1139 977 1094 1092 1006 c 0
 1219 907 1282 769 1282 592 c 0
 1282 412 1219 272 1092 174 c 0
 977 85 827 41 641 41 c 2
 164 41 l 1
 164 156 l 1
 202 156 264 154 348 152 c 0
 429 147 489 145 530 145 c 0
 701 145 833 169 926 217 c 0
 1046 277 1124 382 1161 530 c 1
 164 530 l 1
 164 651 l 1
 1163 651 l 1
 1136 801 1059 907 934 967 c 0
 840 1012 707 1034 535 1034 c 0
 492 1034 431 1033 350 1030 c 0
 264 1026 202 1024 164 1024 c 1
 164 1139 l 1
EndSplineSet
EndChar
StartChar: uni220D
Encoding: 124 8717 124
OldEncoding: 8717
Width: 899
VWidth: 1000
Flags: HW
Fore
168 500 m 1
 629 500 l 1
 614 617 570 711 497 781 c 0
 424 852 328 887 211 887 c 0
 181 887 145 881 104 870 c 1
 104 928 l 1
 182 947 253 956 315 956 c 0
 460 956 580 915 674 831 c 0
 772 744 821 629 821 485 c 0
 821 331 771 208 672 117 c 0
 573 25 446 -20 291 -20 c 0
 238 -20 158 -5 51 25 c 1
 51 86 l 1
 124 60 192 47 256 47 c 0
 360 47 446 85 516 160 c 0
 579 229 616 318 629 426 c 1
 168 426 l 1
 168 500 l 1
EndSplineSet
EndChar
StartChar: product
Encoding: 125 8719 125
OldEncoding: 8719
Width: 1804
VWidth: 1000
Flags: HW
Fore
1296 1458 m 1
 502 1458 l 1
 502 10 l 2
 502 -53 520 -96 557 -119 c 0
 586 -137 634 -145 700 -145 c 1
 700 -184 l 1
 102 -184 l 1
 102 -145 l 1
 169 -145 217 -137 246 -119 c 0
 283 -96 301 -53 301 10 c 2
 301 1343 l 2
 301 1406 283 1449 246 1473 c 0
 217 1490 169 1499 102 1499 c 1
 102 1536 l 1
 1696 1536 l 1
 1696 1499 l 1
 1629 1499 1581 1490 1552 1473 c 0
 1517 1449 1499 1406 1499 1343 c 2
 1499 10 l 2
 1499 -53 1517 -96 1552 -119 c 0
 1581 -138 1629 -147 1696 -145 c 1
 1696 -184 l 1
 1100 -184 l 1
 1100 -147 l 1
 1231 -149 1296 -96 1296 10 c 2
 1296 1458 l 1
EndSplineSet
EndChar
StartChar: uni2210
Encoding: 126 8720 126
OldEncoding: 8720
Width: 1832
VWidth: 1000
Flags: HW
Fore
522 -127 m 1
 1317 -127 l 1
 1317 1321 l 2
 1317 1384 1298 1427 1262 1450 c 0
 1233 1468 1185 1477 1118 1477 c 1
 1118 1516 l 1
 1716 1516 l 1
 1716 1477 l 1
 1649 1477 1602 1468 1573 1450 c 0
 1536 1427 1518 1384 1518 1321 c 2
 1518 -12 l 2
 1518 -75 1536 -118 1573 -141 c 0
 1602 -159 1649 -168 1716 -168 c 1
 1716 -205 l 1
 123 -205 l 1
 123 -168 l 1
 191 -168 238 -160 264 -145 c 0
 301 -124 319 -79 319 -12 c 2
 319 1321 l 2
 319 1384 302 1427 266 1450 c 0
 238 1468 190 1477 123 1477 c 1
 123 1516 l 1
 719 1516 l 1
 719 1479 l 1
 588 1480 522 1427 522 1321 c 2
 522 -127 l 1
EndSplineSet
EndChar
StartChar: summation
Encoding: 127 8721 127
OldEncoding: 8721
Width: 1622
VWidth: 1000
Flags: HW
Fore
1436 -205 m 1
 123 -205 l 1
 123 -168 l 1
 793 664 l 1
 123 1481 l 1
 123 1518 l 1
 1401 1518 l 1
 1427 1180 l 1
 1386 1180 l 1
 1369 1350 1286 1436 1139 1436 c 2
 399 1436 l 1
 961 750 l 1
 332 -29 l 1
 1149 -29 l 2
 1313 -29 1417 53 1460 217 c 1
 1499 211 l 1
 1436 -205 l 1
EndSplineSet
EndChar
StartChar: uni2213
Encoding: 129 8723 129
OldEncoding: 8723
Width: 1628
VWidth: 1000
Flags: HW
Fore
1407 1184 m 1
 1407 1085 l 1
 221 1085 l 1
 221 1184 l 1
 1407 1184 l 1
864 889 m 1
 864 494 l 1
 1407 494 l 1
 1407 395 l 1
 864 395 l 1
 864 0 l 1
 766 0 l 1
 766 395 l 1
 221 395 l 1
 221 494 l 1
 766 494 l 1
 766 889 l 1
 864 889 l 1
EndSplineSet
EndChar
StartChar: uni2216
Encoding: 130 8726 130
OldEncoding: 8726
Width: 927
VWidth: 1000
Flags: HW
Fore
0 1491 m 1
 145 1491 l 1
 938 -25 l 1
 795 -25 l 1
 0 1491 l 1
EndSplineSet
EndChar
StartChar: asteriskmath
Encoding: 131 8727 131
OldEncoding: 8727
Width: 1480
VWidth: 1000
Flags: HW
Fore
666 147 m 1
 702 528 l 1
 393 305 l 1
 319 434 l 1
 666 592 l 1
 319 750 l 1
 393 879 l 1
 702 655 l 1
 666 1036 l 1
 815 1036 l 1
 778 655 l 1
 1087 879 l 1
 1163 752 l 1
 815 592 l 1
 1163 434 l 1
 1087 305 l 1
 778 528 l 1
 815 147 l 1
 666 147 l 1
EndSplineSet
EndChar
StartChar: radical
Encoding: 132 8730 132
OldEncoding: 8730
Width: 1091
VWidth: 1000
Flags: HW
Fore
569 0 m 1
 233 668 l 1
 90 582 l 1
 66 623 l 1
 301 764 l 1
 608 145 l 1
 1061 1647 l 1
 1110 1647 l 1
 614 0 l 1
 569 0 l 1
EndSplineSet
EndChar
StartChar: proportional
Encoding: 133 8733 133
OldEncoding: 8733
Width: 1460
VWidth: 1000
Flags: HW
Fore
682 668 m 1
 724 760 770 827 819 868 c 0
 878 919 954 944 1047 944 c 0
 1149 944 1246 909 1337 838 c 1
 1337 778 l 1
 1261 838 1184 868 1106 868 c 0
 1019 868 945 820 887 723 c 0
 858 677 822 591 778 465 c 1
 857 281 969 188 1114 188 c 0
 1196 188 1270 216 1337 270 c 1
 1337 213 l 1
 1266 142 1185 106 1094 106 c 0
 968 106 853 203 750 395 c 1
 674 238 566 160 424 160 c 0
 323 160 241 196 177 268 c 0
 114 341 82 428 82 530 c 0
 82 627 109 711 162 782 c 0
 221 859 297 897 391 897 c 0
 511 897 608 821 682 668 c 1
653 590 m 1
 592 733 502 805 385 805 c 0
 311 805 252 778 206 724 c 0
 160 670 137 606 137 530 c 0
 137 457 156 391 195 334 c 0
 238 270 296 238 367 238 c 0
 444 238 509 279 559 362 c 0
 585 403 616 479 653 590 c 1
EndSplineSet
EndChar
StartChar: infinity
Encoding: 134 8734 134
OldEncoding: 8734
Width: 1540
VWidth: 1000
Flags: HW
Fore
702 668 m 1
 743 760 790 828 842 870 c 0
 902 920 979 944 1073 944 c 0
 1188 944 1281 902 1354 819 c 0
 1422 740 1456 642 1456 526 c 0
 1456 418 1425 324 1364 242 c 0
 1296 152 1210 106 1106 106 c 0
 984 106 872 202 770 393 c 1
 692 238 584 160 444 160 c 0
 342 160 259 195 197 266 c 0
 134 337 102 425 102 528 c 0
 102 624 129 708 182 780 c 0
 241 858 317 897 410 897 c 0
 479 897 539 874 588 827 c 0
 623 795 662 741 702 668 c 1
799 465 m 1
 878 289 982 201 1110 201 c 0
 1200 201 1272 233 1325 297 c 0
 1374 358 1399 435 1399 526 c 0
 1399 612 1374 689 1323 756 c 0
 1268 829 1199 866 1116 866 c 0
 1036 866 966 817 907 719 c 0
 883 677 847 592 799 465 c 1
674 590 m 1
 612 733 523 805 406 805 c 0
 332 805 272 778 226 724 c 0
 181 670 158 606 158 530 c 0
 158 457 177 391 215 334 c 0
 259 270 316 238 387 238 c 0
 465 238 529 279 580 362 c 0
 606 403 637 479 674 590 c 1
EndSplineSet
EndChar
StartChar: uni2221
Encoding: 135 8737 135
OldEncoding: 8737
Width: 1536
VWidth: 1000
Flags: HW
Fore
922 102 m 1
 902 242 848 371 758 492 c 1
 389 102 l 1
 922 102 l 1
1331 1188 m 1
 1331 1044 l 1
 840 553 l 1
 938 426 999 276 1024 102 c 1
 1331 102 l 1
 1331 0 l 1
 143 0 l 1
 1331 1188 l 1
EndSplineSet
EndChar
StartChar: uni2222
Encoding: 136 8738 136
OldEncoding: 8738
Width: 1628
VWidth: 1000
Flags: HW
Fore
1075 344 m 1
 1407 209 l 1
 1368 117 l 1
 1042 252 l 1
 995 143 930 46 850 -37 c 1
 780 35 l 1
 850 109 907 194 950 291 c 1
 221 592 l 1
 950 895 l 1
 900 1003 843 1088 780 1151 c 1
 850 1221 l 1
 929 1133 993 1037 1042 932 c 1
 1368 1067 l 1
 1407 977 l 1
 1075 840 l 1
 1098 747 1110 664 1110 592 c 0
 1110 521 1098 438 1075 344 c 1
983 383 m 1
 1002 466 1012 536 1012 592 c 0
 1012 652 1002 722 983 801 c 1
 481 592 l 1
 983 383 l 1
EndSplineSet
EndChar
StartChar: uni2223
Encoding: 137 8739 137
OldEncoding: 8739
Width: 813
VWidth: 1000
Flags: HW
Fore
358 -440 m 1
 358 1620 l 1
 457 1620 l 1
 457 -440 l 1
 358 -440 l 1
EndSplineSet
EndChar
StartChar: uni2224
Encoding: 138 8740 138
OldEncoding: 8740
Width: 972
VWidth: 1000
Flags: HW
Fore
539 588 m 1
 539 -481 l 1
 440 -481 l 1
 440 487 l 1
 266 292 161 195 127 195 c 0
 93 195 76 212 76 246 c 0
 76 272 197 401 440 633 c 1
 440 1579 l 1
 539 1579 l 1
 539 733 l 1
 712 923 814 1018 844 1018 c 0
 878 1018 895 1001 895 967 c 0
 895 941 776 814 539 588 c 1
EndSplineSet
EndChar
StartChar: uni2225
Encoding: 139 8741 139
OldEncoding: 8741
Width: 1183
VWidth: 1000
Flags: HW
Fore
334 -430 m 1
 334 1620 l 1
 432 1620 l 1
 432 -430 l 1
 334 -430 l 1
752 -430 m 1
 752 1620 l 1
 850 1620 l 1
 850 -430 l 1
 752 -430 l 1
EndSplineSet
EndChar
StartChar: logicaland
Encoding: 140 8743 140
OldEncoding: 8743
Width: 1628
VWidth: 1000
Flags: HW
Fore
221 0 m 1
 809 1174 l 1
 1401 0 l 1
 1292 0 l 1
 811 958 l 1
 330 0 l 1
 221 0 l 1
EndSplineSet
EndChar
StartChar: logicalor
Encoding: 141 8744 141
OldEncoding: 8744
Width: 1628
VWidth: 1000
Flags: HW
Fore
221 1180 m 1
 330 1180 l 1
 811 215 l 1
 1292 1180 l 1
 1401 1180 l 1
 811 0 l 1
 221 1180 l 1
EndSplineSet
EndChar
StartChar: intersection
Encoding: 142 8745 142
OldEncoding: 8745
Width: 1628
VWidth: 1000
Flags: HW
Fore
221 0 m 1
 221 592 l 2
 221 771 275 914 383 1022 c 0
 491 1130 634 1184 813 1184 c 0
 993 1184 1137 1130 1245 1023 c 0
 1353 916 1407 772 1407 592 c 2
 1407 0 l 1
 1309 0 l 1
 1309 40 1311 106 1315 199 c 0
 1318 286 1319 352 1319 397 c 0
 1319 610 1289 770 1229 877 c 0
 1150 1016 1011 1085 813 1085 c 0
 667 1085 549 1040 458 948 c 0
 367 857 322 738 322 592 c 2
 322 0 l 1
 221 0 l 1
EndSplineSet
EndChar
StartChar: union
Encoding: 143 8746 143
OldEncoding: 8746
Width: 1628
VWidth: 1000
Flags: HW
Fore
1407 1184 m 1
 1407 592 l 2
 1407 412 1353 268 1245 161 c 0
 1137 54 993 0 813 0 c 0
 633 0 489 54 383 161 c 0
 276 268 223 412 223 592 c 2
 223 1184 l 1
 322 1184 l 1
 322 592 l 2
 322 446 367 327 459 236 c 0
 549 144 667 98 813 98 c 0
 1014 98 1154 170 1233 313 c 0
 1290 418 1319 577 1319 788 c 0
 1319 838 1318 906 1315 993 c 0
 1311 1086 1309 1150 1309 1184 c 1
 1407 1184 l 1
EndSplineSet
EndChar
StartChar: integral
Encoding: 144 8747 144
OldEncoding: 8747
Width: 1183
VWidth: 1000
Flags: HW
Fore
367 -211 m 1
 379 -219 392 -223 406 -223 c 0
 481 -223 518 -153 518 -12 c 0
 518 35 516 108 512 205 c 0
 508 302 506 374 506 422 c 2
 506 907 l 2
 506 1380 608 1616 813 1616 c 0
 854 1616 889 1604 919 1579 c 0
 948 1554 963 1522 963 1481 c 0
 963 1455 954 1431 936 1409 c 0
 918 1387 896 1376 870 1376 c 0
 813 1376 784 1404 784 1460 c 0
 784 1486 795 1509 817 1530 c 1
 778 1542 l 1
 702 1542 664 1481 664 1360 c 0
 664 1308 666 1231 671 1129 c 0
 675 1028 678 951 678 899 c 2
 678 453 l 2
 678 -46 575 -295 371 -295 c 0
 271 -295 221 -251 221 -162 c 0
 221 -91 253 -55 315 -55 c 0
 370 -55 397 -85 397 -145 c 0
 397 -163 387 -185 367 -211 c 1
EndSplineSet
EndChar
StartChar: uni222C
Encoding: 145 8748 145
OldEncoding: 8748
Width: 1751
VWidth: 1000
Flags: HW
Fore
367 -211 m 1
 379 -219 392 -223 406 -223 c 0
 481 -223 518 -153 518 -12 c 0
 518 35 516 108 512 205 c 0
 508 302 506 374 506 422 c 2
 506 907 l 2
 506 1380 608 1616 813 1616 c 0
 854 1616 889 1604 919 1579 c 0
 948 1554 963 1522 963 1481 c 0
 963 1455 954 1431 936 1409 c 0
 918 1387 896 1376 870 1376 c 0
 813 1376 784 1404 784 1460 c 0
 784 1486 795 1509 817 1530 c 1
 778 1542 l 1
 702 1542 664 1481 664 1360 c 0
 664 1308 666 1231 671 1129 c 0
 675 1028 678 951 678 899 c 2
 678 453 l 2
 678 -46 575 -295 371 -295 c 0
 271 -295 221 -251 221 -162 c 0
 221 -91 253 -55 315 -55 c 0
 370 -55 397 -85 397 -145 c 0
 397 -163 387 -185 367 -211 c 1
934 -211 m 1
 946 -219 959 -223 973 -223 c 0
 1048 -223 1085 -152 1085 -10 c 0
 1085 38 1083 110 1079 206 c 0
 1075 302 1073 374 1073 422 c 2
 1073 883 l 2
 1073 1371 1176 1616 1382 1616 c 0
 1423 1616 1458 1604 1487 1579 c 0
 1516 1554 1530 1522 1530 1481 c 0
 1530 1455 1521 1431 1503 1409 c 0
 1485 1387 1464 1376 1438 1376 c 0
 1382 1376 1354 1404 1354 1460 c 0
 1354 1486 1364 1509 1384 1530 c 1
 1372 1538 1359 1542 1346 1542 c 0
 1269 1542 1231 1481 1231 1358 c 0
 1231 1307 1233 1231 1238 1129 c 0
 1243 1028 1245 951 1245 899 c 2
 1245 453 l 2
 1245 -46 1143 -295 938 -295 c 0
 838 -295 788 -251 788 -162 c 0
 788 -91 820 -55 883 -55 c 0
 937 -55 965 -85 965 -145 c 0
 965 -166 954 -188 934 -211 c 1
EndSplineSet
Ligature: 0 0 'liga' integral integral
EndChar
StartChar: uni222D
Encoding: 146 8749 146
OldEncoding: 8749
Width: 2318
VWidth: 1000
Flags: HW
Fore
367 -211 m 1
 379 -219 392 -223 406 -223 c 0
 481 -223 518 -153 518 -12 c 0
 518 35 516 108 512 205 c 0
 508 302 506 374 506 422 c 2
 506 907 l 2
 506 1380 608 1616 813 1616 c 0
 854 1616 889 1604 919 1579 c 0
 948 1554 963 1522 963 1481 c 0
 963 1455 954 1431 936 1409 c 0
 918 1387 896 1376 870 1376 c 0
 813 1376 784 1404 784 1460 c 0
 784 1486 795 1509 817 1530 c 1
 778 1542 l 1
 702 1542 664 1481 664 1360 c 0
 664 1308 666 1231 671 1129 c 0
 675 1028 678 951 678 899 c 2
 678 453 l 2
 678 -46 575 -295 371 -295 c 0
 271 -295 221 -251 221 -162 c 0
 221 -91 253 -55 315 -55 c 0
 370 -55 397 -85 397 -145 c 0
 397 -163 387 -185 367 -211 c 1
934 -211 m 1
 946 -219 959 -223 973 -223 c 0
 1048 -223 1085 -152 1085 -10 c 0
 1085 38 1083 110 1079 206 c 0
 1075 302 1073 374 1073 422 c 2
 1073 883 l 2
 1073 1371 1176 1616 1382 1616 c 0
 1423 1616 1458 1604 1487 1579 c 0
 1516 1554 1530 1522 1530 1481 c 0
 1530 1455 1521 1431 1503 1409 c 0
 1485 1387 1464 1376 1438 1376 c 0
 1382 1376 1354 1404 1354 1460 c 0
 1354 1486 1364 1509 1384 1530 c 1
 1372 1538 1359 1542 1346 1542 c 0
 1269 1542 1231 1481 1231 1358 c 0
 1231 1307 1233 1231 1238 1129 c 0
 1243 1028 1245 951 1245 899 c 2
 1245 453 l 2
 1245 -46 1143 -295 938 -295 c 0
 838 -295 788 -251 788 -162 c 0
 788 -91 820 -55 883 -55 c 0
 937 -55 965 -85 965 -145 c 0
 965 -166 954 -188 934 -211 c 1
1501 -211 m 1
 1513 -219 1526 -223 1540 -223 c 0
 1617 -223 1655 -153 1655 -12 c 0
 1655 35 1653 108 1649 205 c 0
 1645 302 1642 374 1642 422 c 2
 1642 907 l 2
 1642 1380 1745 1616 1950 1616 c 0
 1991 1616 2025 1604 2054 1579 c 0
 2083 1554 2097 1522 2097 1481 c 0
 2097 1455 2088 1431 2071 1409 c 0
 2053 1387 2031 1376 2005 1376 c 0
 1949 1376 1921 1404 1921 1460 c 0
 1921 1486 1931 1509 1952 1530 c 1
 1913 1542 l 1
 1838 1542 1800 1481 1800 1358 c 0
 1800 1307 1803 1231 1807 1128 c 0
 1812 1026 1815 950 1815 899 c 2
 1815 453 l 2
 1815 -46 1711 -295 1505 -295 c 0
 1407 -295 1358 -251 1358 -162 c 0
 1358 -91 1389 -55 1450 -55 c 0
 1505 -55 1532 -85 1532 -145 c 0
 1532 -170 1522 -192 1501 -211 c 1
EndSplineSet
Ligature: 0 0 'liga' integral integral integral
EndChar
StartChar: uni222E
Encoding: 147 8750 147
OldEncoding: 8750
Width: 1257
VWidth: 1000
Flags: HW
Fore
545 983 m 1
 471 964 411 924 365 864 c 0
 318 804 295 736 295 659 c 0
 295 584 319 517 367 457 c 0
 414 397 474 357 547 338 c 1
 537 525 537 740 545 983 c 1
711 338 m 1
 783 357 843 397 891 457 c 0
 939 517 963 584 963 659 c 0
 963 736 939 805 892 865 c 0
 845 926 784 966 711 985 c 1
 716 644 716 428 711 338 c 1
403 -211 m 1
 416 -219 429 -223 442 -223 c 0
 517 -223 555 -146 555 8 c 0
 555 93 553 177 549 260 c 1
 449 279 370 325 310 398 c 0
 251 471 221 558 221 659 c 0
 221 759 252 846 312 921 c 0
 373 995 452 1042 549 1061 c 1
 560 1218 579 1335 606 1411 c 0
 655 1548 737 1616 852 1616 c 0
 950 1616 999 1571 999 1481 c 0
 999 1411 969 1376 907 1376 c 0
 850 1376 821 1405 821 1462 c 0
 821 1484 832 1507 854 1530 c 1
 815 1542 l 1
 739 1542 700 1481 700 1358 c 0
 700 1329 703 1230 709 1061 c 1
 807 1042 886 995 946 922 c 0
 1006 848 1036 760 1036 659 c 0
 1036 557 1006 469 946 396 c 0
 886 323 806 278 707 260 c 1
 682 -110 582 -295 408 -295 c 0
 308 -295 258 -251 258 -162 c 0
 258 -91 289 -55 352 -55 c 0
 407 -55 434 -85 434 -145 c 0
 434 -170 424 -192 403 -211 c 1
EndSplineSet
EndChar
StartChar: uni222F
Encoding: 148 8751 148
OldEncoding: 8751
Width: 1826
VWidth: 1000
Flags: HW
Fore
1604 659 m 0
 1604 509 1495 394 1278 313 c 1
 1257 -92 1156 -295 975 -295 c 0
 875 -295 825 -251 825 -162 c 0
 825 -91 857 -55 920 -55 c 0
 974 -55 1001 -85 1001 -145 c 0
 1001 -166 991 -188 971 -211 c 1
 983 -219 996 -223 1010 -223 c 0
 1085 -223 1122 -152 1122 -10 c 0
 1122 85 1120 179 1116 270 c 1
 1048 259 980 254 913 254 c 0
 845 254 776 259 707 270 c 1
 682 -106 582 -295 408 -295 c 0
 308 -295 258 -251 258 -162 c 0
 258 -91 289 -55 352 -55 c 0
 407 -55 434 -85 434 -145 c 0
 434 -170 424 -192 403 -211 c 1
 416 -219 429 -223 442 -223 c 0
 517 -223 555 -152 555 -10 c 0
 555 89 553 197 549 313 c 1
 330 393 221 508 221 659 c 0
 221 808 330 924 547 1008 c 1
 559 1413 661 1616 852 1616 c 0
 950 1616 999 1571 999 1481 c 0
 999 1411 969 1376 907 1376 c 0
 850 1376 821 1405 821 1462 c 0
 821 1484 832 1507 854 1530 c 1
 815 1542 l 1
 739 1542 700 1481 700 1360 c 0
 700 1343 704 1240 711 1051 c 1
 780 1062 848 1067 913 1067 c 0
 980 1067 1048 1062 1116 1051 c 1
 1127 1213 1146 1332 1171 1407 c 0
 1219 1546 1302 1616 1419 1616 c 0
 1518 1616 1567 1571 1567 1481 c 0
 1567 1411 1536 1376 1475 1376 c 0
 1419 1376 1391 1404 1391 1460 c 0
 1391 1486 1401 1509 1421 1530 c 1
 1409 1538 1396 1542 1382 1542 c 0
 1306 1542 1268 1481 1268 1358 c 0
 1268 1325 1270 1209 1276 1010 c 1
 1494 926 1604 810 1604 659 c 0
547 393 m 1
 540 502 539 681 545 928 c 1
 378 859 295 769 295 657 c 0
 295 548 379 460 547 393 c 1
1114 346 m 1
 1105 521 1104 731 1112 977 c 1
 1044 988 977 993 911 993 c 0
 844 993 778 988 713 977 c 1
 721 782 721 571 713 344 c 1
 778 333 844 328 911 328 c 0
 984 328 1051 334 1114 346 c 1
1530 659 m 0
 1530 773 1446 863 1278 930 c 1
 1285 816 1285 638 1280 395 c 1
 1447 459 1530 547 1530 659 c 0
EndSplineSet
Ligature: 0 0 'liga' uni222E uni222E
EndChar
StartChar: uni2230
Encoding: 149 8752 149
OldEncoding: 8752
Width: 2392
VWidth: 1000
Flags: HW
Fore
2171 659 m 0
 2171 538 2064 438 1849 358 c 1
 1833 -77 1731 -295 1542 -295 c 0
 1444 -295 1395 -251 1395 -162 c 0
 1395 -91 1425 -55 1487 -55 c 0
 1541 -55 1569 -85 1569 -145 c 0
 1569 -167 1559 -189 1538 -211 c 1
 1550 -219 1564 -223 1579 -223 c 0
 1655 -223 1693 -147 1692 6 c 1
 1692 6 l 1
 1683 307 l 1
 1559 277 1423 260 1274 256 c 1
 1247 -111 1147 -295 975 -295 c 0
 875 -295 825 -251 825 -162 c 0
 825 -91 857 -55 920 -55 c 0
 974 -55 1001 -85 1001 -145 c 0
 1001 -166 991 -188 971 -211 c 1
 983 -219 996 -223 1010 -223 c 0
 1085 -223 1122 -152 1122 -10 c 0
 1122 55 1121 144 1118 256 c 1
 975 260 839 278 711 309 c 1
 690 -94 589 -295 408 -295 c 0
 308 -295 258 -251 258 -162 c 0
 258 -91 289 -55 352 -55 c 0
 407 -55 434 -85 434 -145 c 0
 434 -170 424 -192 403 -211 c 1
 416 -219 429 -223 442 -223 c 0
 517 -223 555 -152 555 -10 c 0
 555 106 552 229 547 358 c 1
 330 439 221 538 221 655 c 0
 221 777 329 880 545 965 c 1
 552 1145 567 1279 592 1368 c 0
 640 1533 726 1616 852 1616 c 0
 950 1616 999 1571 999 1481 c 0
 999 1411 969 1376 907 1376 c 0
 850 1376 821 1405 821 1462 c 0
 821 1484 832 1507 854 1530 c 1
 815 1542 l 1
 739 1542 700 1481 700 1358 c 0
 700 1347 704 1234 711 1018 c 1
 829 1047 965 1063 1116 1067 c 1
 1138 1433 1239 1616 1419 1616 c 0
 1518 1616 1567 1571 1567 1481 c 0
 1567 1411 1536 1376 1475 1376 c 0
 1419 1376 1391 1404 1391 1460 c 0
 1391 1486 1401 1509 1421 1530 c 1
 1409 1538 1396 1542 1382 1542 c 0
 1306 1542 1268 1481 1268 1358 c 0
 1268 1328 1270 1230 1276 1065 c 1
 1432 1061 1567 1044 1683 1016 c 1
 1696 1416 1797 1616 1987 1616 c 0
 2085 1616 2134 1571 2134 1481 c 0
 2134 1411 2104 1376 2044 1376 c 0
 1987 1376 1958 1404 1958 1460 c 0
 1958 1489 1968 1512 1989 1530 c 1
 1950 1542 l 1
 1873 1542 1835 1482 1835 1362 c 0
 1835 1351 1839 1219 1847 965 c 1
 2063 880 2171 778 2171 659 c 0
545 430 m 1
 541 501 540 654 543 889 c 1
 378 827 295 750 295 657 c 0
 295 566 378 490 545 430 c 1
1114 330 m 1
 1102 539 1102 759 1114 991 c 1
 965 987 831 971 713 942 c 1
 718 744 718 556 713 379 c 1
 836 350 969 334 1114 330 c 1
1681 381 m 1
 1679 532 1679 720 1681 942 c 1
 1560 971 1425 987 1278 991 c 1
 1283 651 1283 431 1278 330 c 1
 1419 331 1553 348 1681 381 c 1
2097 659 m 0
 2097 751 2015 828 1849 891 c 1
 1853 823 1854 670 1851 432 c 1
 2015 495 2097 571 2097 659 c 0
EndSplineSet
Ligature: 0 0 'liga' uni222E uni222E uni222E
EndChar
StartChar: uni2243
Encoding: 150 8771 150
OldEncoding: 8771
Width: 1628
VWidth: 1000
Flags: HW
Fore
221 260 m 1
 221 358 l 1
 1405 358 l 1
 1405 260 l 1
 221 260 l 1
283 629 m 1
 221 629 l 1
 231 842 319 948 485 948 c 0
 562 948 681 908 843 828 c 0
 1005 749 1115 709 1176 709 c 0
 1272 709 1328 781 1343 926 c 1
 1405 926 l 1
 1393 713 1305 606 1141 606 c 0
 1056 606 941 646 795 726 c 0
 649 806 533 846 449 846 c 0
 397 846 355 822 324 774 c 0
 296 732 283 683 283 629 c 1
EndSplineSet
EndChar
StartChar: congruent
Encoding: 151 8773 151
OldEncoding: 8773
Width: 1628
VWidth: 1000
Flags: HW
Fore
221 424 m 1
 221 522 l 1
 1405 522 l 1
 1405 424 l 1
 221 424 l 1
283 670 m 1
 221 670 l 1
 231 883 319 989 485 989 c 0
 562 989 681 949 843 869 c 0
 1005 790 1115 750 1176 750 c 0
 1272 750 1328 822 1343 967 c 1
 1405 967 l 1
 1393 754 1305 647 1141 647 c 0
 1056 647 941 687 795 767 c 0
 649 847 533 887 449 887 c 0
 397 887 355 863 324 815 c 0
 296 773 283 724 283 670 c 1
221 219 m 1
 221 317 l 1
 1405 317 l 1
 1405 219 l 1
 221 219 l 1
EndSplineSet
EndChar
StartChar: approxequal
Encoding: 152 8776 152
OldEncoding: 8776
Width: 1628
VWidth: 1000
Flags: HW
Fore
307 621 m 1
 246 621 l 1
 255 834 343 940 510 940 c 0
 585 940 703 900 864 820 c 0
 1025 740 1137 700 1200 700 c 0
 1297 700 1353 773 1368 918 c 1
 1430 918 l 1
 1417 705 1329 598 1165 598 c 0
 1081 598 965 638 819 718 c 0
 673 798 558 838 473 838 c 0
 421 838 380 814 348 766 c 0
 321 724 307 675 307 621 c 1
340 317 m 1
 279 317 l 1
 288 530 376 637 543 637 c 0
 618 637 736 597 897 517 c 0
 1058 437 1170 397 1233 397 c 0
 1330 397 1386 470 1401 614 c 1
 1462 614 l 1
 1450 401 1362 295 1198 295 c 0
 1113 295 998 335 852 415 c 0
 706 495 591 535 506 535 c 0
 454 535 412 511 381 463 c 0
 354 421 340 372 340 317 c 1
EndSplineSet
EndChar
StartChar: uni2254
Encoding: 153 8788 153
OldEncoding: 8788
Width: 1738
VWidth: 1000
Flags: HW
Fore
446 358 m 1
 446 457 l 1
 1630 457 l 1
 1630 358 l 1
 446 358 l 1
446 729 m 1
 446 827 l 1
 1630 827 l 1
 1630 729 l 1
 446 729 l 1
207 1087 m 0
 237 1087 263 1077 285 1055 c 0
 307 1033 317 1007 317 977 c 0
 317 947 307 921 285 899 c 0
 263 877 237 866 207 866 c 0
 177 866 151 877 129 899 c 0
 107 921 96 947 96 977 c 0
 96 1007 107 1033 129 1055 c 0
 151 1077 177 1087 207 1087 c 0
205 338 m 0
 235 338 261 327 284 305 c 0
 306 283 317 257 317 227 c 0
 317 197 306 171 284 148 c 0
 261 126 235 115 205 115 c 0
 175 115 149 126 127 148 c 0
 105 171 94 197 94 227 c 0
 94 257 105 283 127 305 c 0
 149 327 175 338 205 338 c 0
EndSplineSet
EndChar
StartChar: uni2255
Encoding: 154 8789 154
OldEncoding: 8789
Width: 1685
VWidth: 1000
Flags: HW
Fore
78 358 m 1
 78 457 l 1
 1262 457 l 1
 1262 358 l 1
 78 358 l 1
78 729 m 1
 78 827 l 1
 1262 827 l 1
 1262 729 l 1
 78 729 l 1
1497 1087 m 0
 1527 1087 1553 1077 1575 1055 c 0
 1597 1033 1608 1007 1608 977 c 0
 1608 947 1597 921 1575 899 c 0
 1553 877 1527 866 1497 866 c 0
 1467 866 1441 877 1419 899 c 0
 1397 921 1386 947 1386 977 c 0
 1386 1007 1397 1033 1419 1055 c 0
 1441 1077 1467 1087 1497 1087 c 0
1495 338 m 0
 1525 338 1551 327 1574 305 c 0
 1596 283 1608 257 1608 227 c 0
 1608 197 1596 171 1574 148 c 0
 1551 126 1525 115 1495 115 c 0
 1465 115 1439 126 1417 148 c 0
 1395 171 1384 197 1384 227 c 0
 1384 257 1395 283 1417 305 c 0
 1439 327 1465 338 1495 338 c 0
EndSplineSet
EndChar
StartChar: uni2259
Encoding: 155 8793 155
OldEncoding: 8793
Width: 1628
VWidth: 1000
Flags: HW
Fore
229 938 m 1
 811 1434 l 1
 1374 954 l 1
 1270 954 l 1
 807 1282 l 1
 336 938 l 1
 229 938 l 1
221 358 m 1
 221 457 l 1
 1405 457 l 1
 1405 358 l 1
 221 358 l 1
221 729 m 1
 221 827 l 1
 1405 827 l 1
 1405 729 l 1
 221 729 l 1
EndSplineSet
EndChar
StartChar: uni225D
Encoding: 156 8797 156
OldEncoding: 8797
Width: 1628
VWidth: 1000
Flags: HW
Fore
221 164 m 1
 221 262 l 1
 1407 262 l 1
 1407 164 l 1
 221 164 l 1
221 535 m 1
 221 633 l 1
 1407 633 l 1
 1407 535 l 1
 221 535 l 1
553 854 m 1
 553 938 l 1
 519 877 470 846 406 846 c 0
 291 846 233 918 233 1063 c 0
 233 1130 248 1186 279 1231 c 0
 313 1284 361 1311 424 1311 c 0
 477 1311 520 1290 553 1249 c 1
 553 1501 l 1
 635 1501 l 1
 635 854 l 1
 553 854 l 1
553 1192 m 1
 515 1230 475 1249 434 1249 c 0
 358 1249 319 1190 319 1071 c 0
 319 967 354 915 422 915 c 0
 460 915 504 940 553 989 c 1
 553 1192 l 1
1071 868 m 1
 1012 853 966 846 932 846 c 0
 865 846 811 868 771 911 c 0
 731 955 711 1011 711 1079 c 0
 711 1139 728 1193 763 1240 c 0
 798 1287 844 1311 903 1311 c 0
 1016 1311 1073 1229 1073 1065 c 1
 793 1065 l 1
 802 958 853 905 946 905 c 0
 984 905 1026 914 1071 932 c 1
 1071 868 l 1
797 1124 m 1
 991 1124 l 1
 991 1208 961 1249 899 1249 c 0
 839 1249 805 1208 797 1124 c 1
1169 854 m 1
 1169 1239 l 1
 1106 1239 l 1
 1106 1300 l 1
 1169 1300 l 1
 1169 1369 1177 1417 1192 1446 c 0
 1212 1490 1253 1511 1315 1511 c 0
 1338 1511 1369 1507 1407 1499 c 1
 1407 1434 l 1
 1365 1445 1335 1450 1319 1450 c 0
 1271 1450 1248 1414 1249 1341 c 1
 1249 1300 l 1
 1362 1300 l 1
 1362 1239 l 1
 1249 1239 l 1
 1249 854 l 1
 1169 854 l 1
EndSplineSet
EndChar
StartChar: notequal
Encoding: 157 8800 157
OldEncoding: 8800
Width: 1628
VWidth: 1000
Flags: HW
Fore
883 827 m 1
 1098 1204 l 1
 1208 1204 l 1
 993 827 l 1
 1405 827 l 1
 1405 729 l 1
 936 729 l 1
 780 457 l 1
 1405 457 l 1
 1405 358 l 1
 725 358 l 1
 518 -4 l 1
 401 -4 l 1
 610 358 l 1
 221 358 l 1
 221 457 l 1
 668 457 l 1
 825 729 l 1
 221 729 l 1
 221 827 l 1
 883 827 l 1
EndSplineSet
EndChar
StartChar: equivalence
Encoding: 158 8801 158
OldEncoding: 8801
Width: 1628
VWidth: 1000
Flags: HW
Fore
221 172 m 1
 221 270 l 1
 1405 270 l 1
 1405 172 l 1
 221 172 l 1
221 543 m 1
 221 641 l 1
 1405 641 l 1
 1405 543 l 1
 221 543 l 1
221 913 m 1
 221 1012 l 1
 1405 1012 l 1
 1405 913 l 1
 221 913 l 1
EndSplineSet
EndChar
StartChar: lessequal
Encoding: 159 8804 159
OldEncoding: 8804
Width: 1628
VWidth: 1000
Flags: HW
Fore
221 0 m 1
 221 98 l 1
 1405 98 l 1
 1405 0 l 1
 221 0 l 1
1405 1184 m 1
 1405 1077 l 1
 489 711 l 1
 1405 342 l 1
 1405 238 l 1
 221 711 l 1
 1405 1184 l 1
EndSplineSet
EndChar
StartChar: greaterequal
Encoding: 160 8805 160
OldEncoding: 8805
Width: 1628
VWidth: 1000
Flags: HW
Fore
1405 0 m 1
 221 0 l 1
 221 98 l 1
 1405 98 l 1
 1405 0 l 1
221 1184 m 1
 1405 711 l 1
 221 238 l 1
 221 342 l 1
 1139 713 l 1
 221 1077 l 1
 221 1184 l 1
EndSplineSet
EndChar
StartChar: uni226A
Encoding: 161 8810 161
OldEncoding: 8810
Width: 2289
VWidth: 1000
Flags: HW
Fore
1407 0 m 1
 223 592 l 1
 1407 1184 l 1
 1407 1073 l 1
 446 592 l 1
 1407 111 l 1
 1407 0 l 1
2068 0 m 1
 885 592 l 1
 2068 1184 l 1
 2068 1073 l 1
 1108 592 l 1
 2068 111 l 1
 2068 0 l 1
EndSplineSet
EndChar
StartChar: uni226B
Encoding: 162 8811 162
OldEncoding: 8811
Width: 2289
VWidth: 1000
Flags: HW
Fore
885 0 m 1
 885 111 l 1
 1845 594 l 1
 885 1073 l 1
 885 1184 l 1
 2068 592 l 1
 885 0 l 1
223 0 m 1
 223 111 l 1
 1184 594 l 1
 223 1073 l 1
 223 1184 l 1
 1407 592 l 1
 223 0 l 1
EndSplineSet
EndChar
StartChar: propersubset
Encoding: 163 8834 163
OldEncoding: 8834
Width: 1628
VWidth: 1000
Flags: HW
Fore
1407 281 m 1
 1407 182 l 1
 641 182 l 2
 520 182 419 222 341 301 c 0
 262 380 223 481 223 602 c 0
 223 722 263 822 342 901 c 0
 421 980 521 1020 641 1020 c 2
 1407 1020 l 1
 1407 922 l 1
 641 922 l 2
 552 922 477 891 415 828 c 0
 353 766 322 691 322 602 c 0
 322 513 353 438 415 375 c 0
 477 312 552 281 641 281 c 2
 1407 281 l 1
EndSplineSet
EndChar
StartChar: propersuperset
Encoding: 164 8835 164
OldEncoding: 8835
Width: 1628
VWidth: 1000
Flags: HW
Fore
221 281 m 1
 987 281 l 2
 1076 281 1152 312 1214 375 c 0
 1277 438 1309 513 1309 602 c 0
 1309 689 1277 765 1214 827 c 0
 1152 890 1076 922 987 922 c 2
 221 922 l 1
 221 1020 l 1
 987 1020 l 2
 1109 1020 1209 981 1288 902 c 0
 1367 824 1407 724 1407 602 c 0
 1407 482 1367 382 1287 302 c 0
 1207 222 1107 182 987 182 c 2
 221 182 l 1
 221 281 l 1
EndSplineSet
EndChar
StartChar: notsubset
Encoding: 165 8836 165
OldEncoding: 8836
Width: 1628
VWidth: 1000
Flags: HW
Fore
948 922 m 1
 641 922 l 2
 552 922 477 891 415 828 c 0
 353 766 322 691 322 602 c 0
 322 526 346 457 394 397 c 0
 443 337 504 300 580 287 c 1
 948 922 l 1
1407 281 m 1
 1407 182 l 1
 637 182 l 1
 563 38 512 -35 483 -35 c 0
 448 -35 430 -18 430 14 c 0
 430 29 462 90 526 197 c 1
 435 218 361 268 306 344 c 0
 251 421 223 507 223 602 c 0
 223 745 266 851 352 920 c 0
 421 973 522 1005 655 1016 c 0
 688 1019 805 1020 1006 1020 c 1
 1103 1215 1169 1313 1204 1313 c 0
 1240 1313 1257 1296 1257 1264 c 0
 1257 1250 1213 1169 1124 1020 c 1
 1407 1020 l 1
 1407 922 l 1
 1067 922 l 1
 694 281 l 1
 1407 281 l 1
EndSplineSet
EndChar
StartChar: uni2285
Encoding: 166 8837 166
OldEncoding: 8837
Width: 1628
VWidth: 1000
Flags: HW
Fore
1061 913 m 1
 694 281 l 1
 987 281 l 2
 1076 281 1152 312 1214 375 c 0
 1277 438 1309 513 1309 602 c 0
 1309 674 1285 740 1238 800 c 0
 1191 859 1132 897 1061 913 c 1
1114 1004 m 1
 1203 979 1274 929 1327 855 c 0
 1380 781 1407 696 1407 602 c 0
 1407 460 1365 355 1282 287 c 0
 1215 233 1116 201 985 188 c 0
 943 184 827 182 637 182 c 1
 569 42 519 -29 487 -29 c 0
 452 -29 434 -12 434 20 c 0
 434 35 462 89 518 182 c 1
 221 182 l 1
 221 281 l 1
 575 281 l 1
 948 922 l 1
 221 922 l 1
 221 1020 l 1
 1004 1020 l 1
 1098 1211 1163 1307 1198 1307 c 0
 1234 1307 1251 1290 1251 1257 c 0
 1251 1244 1206 1159 1114 1004 c 1
EndSplineSet
EndChar
StartChar: reflexsubset
Encoding: 167 8838 167
OldEncoding: 8838
Width: 1628
VWidth: 1000
Flags: HW
Fore
1407 98 m 1
 1407 0 l 1
 223 0 l 1
 223 98 l 1
 1407 98 l 1
1407 444 m 1
 1407 346 l 1
 641 346 l 2
 520 346 419 386 341 465 c 0
 262 544 223 644 223 766 c 0
 223 886 263 986 342 1065 c 0
 421 1144 521 1184 641 1184 c 2
 1407 1184 l 1
 1407 1085 l 1
 641 1085 l 2
 552 1085 477 1054 415 992 c 0
 353 930 322 855 322 766 c 0
 322 677 353 601 415 539 c 0
 477 476 552 444 641 444 c 2
 1407 444 l 1
EndSplineSet
EndChar
StartChar: reflexsuperset
Encoding: 168 8839 168
OldEncoding: 8839
Width: 1628
VWidth: 1000
Flags: HW
Fore
221 98 m 1
 1407 98 l 1
 1407 0 l 1
 221 0 l 1
 221 98 l 1
221 444 m 1
 987 444 l 2
 1076 444 1152 476 1214 539 c 0
 1277 601 1309 677 1309 766 c 0
 1309 853 1277 928 1214 991 c 0
 1152 1054 1076 1085 987 1085 c 2
 221 1085 l 1
 221 1184 l 1
 987 1184 l 2
 1109 1184 1209 1144 1288 1066 c 0
 1367 987 1407 887 1407 766 c 0
 1407 646 1367 546 1287 466 c 0
 1207 386 1107 346 987 346 c 2
 221 346 l 1
 221 444 l 1
EndSplineSet
EndChar
StartChar: uni2288
Encoding: 169 8840 169
OldEncoding: 8840
Width: 1628
VWidth: 1000
Flags: HW
Fore
756 444 m 1
 1407 444 l 1
 1407 346 l 1
 700 346 l 1
 559 98 l 1
 1407 98 l 1
 1407 0 l 1
 504 0 l 1
 453 -90 l 1
 336 -90 l 1
 387 0 l 1
 223 0 l 1
 223 98 l 1
 444 98 l 1
 588 348 l 1
 483 360 396 407 327 487 c 0
 258 568 223 661 223 766 c 0
 223 937 285 1054 410 1118 c 0
 497 1165 631 1188 813 1188 c 0
 844 1188 889 1187 947 1186 c 0
 1005 1184 1045 1184 1067 1184 c 1
 1126 1286 l 1
 1237 1286 l 1
 1178 1184 l 1
 1407 1184 l 1
 1407 1085 l 1
 1122 1085 l 1
 756 444 l 1
1012 1085 m 1
 641 1085 l 2
 552 1085 477 1054 415 992 c 0
 353 930 322 855 322 766 c 0
 322 677 353 601 416 539 c 0
 479 476 554 444 643 444 c 1
 1012 1085 l 1
EndSplineSet
EndChar
StartChar: uni2289
Encoding: 170 8841 170
OldEncoding: 8841
Width: 1628
VWidth: 1000
Flags: HW
Fore
1012 1085 m 1
 221 1085 l 1
 221 1184 l 1
 280 1184 369 1185 489 1189 c 0
 610 1192 700 1194 762 1194 c 0
 896 1194 997 1189 1065 1178 c 1
 1126 1286 l 1
 1237 1286 l 1
 1159 1149 l 1
 1324 1067 1407 939 1407 766 c 0
 1407 646 1367 546 1287 466 c 0
 1207 386 1107 346 987 346 c 2
 700 346 l 1
 559 98 l 1
 1407 98 l 1
 1407 0 l 1
 504 0 l 1
 453 -90 l 1
 336 -90 l 1
 387 0 l 1
 221 0 l 1
 221 98 l 1
 444 98 l 1
 586 346 l 1
 221 346 l 1
 221 444 l 1
 643 444 l 1
 1012 1085 l 1
756 444 m 1
 987 444 l 2
 1076 444 1152 476 1214 539 c 0
 1277 601 1309 677 1309 766 c 0
 1309 830 1291 891 1254 947 c 0
 1218 1004 1170 1042 1110 1063 c 1
 756 444 l 1
EndSplineSet
EndChar
StartChar: circleplus
Encoding: 171 8853 171
OldEncoding: 8853
Width: 1628
VWidth: 1000
Flags: HW
Fore
813 0 m 0
 634 0 491 54 383 162 c 0
 275 270 221 413 221 592 c 0
 221 772 275 916 382 1023 c 0
 489 1130 633 1184 813 1184 c 0
 992 1184 1135 1130 1243 1022 c 0
 1351 914 1405 771 1405 592 c 0
 1405 412 1351 268 1244 161 c 0
 1137 54 993 0 813 0 c 0
862 641 m 1
 1305 641 l 1
 1288 761 1240 861 1161 940 c 0
 1082 1019 982 1067 862 1083 c 1
 862 641 l 1
766 543 m 1
 322 543 l 1
 353 287 500 140 764 100 c 1
 766 543 l 1
764 641 m 1
 766 1083 l 1
 646 1067 545 1019 465 940 c 0
 384 861 337 761 322 641 c 1
 764 641 l 1
862 543 m 1
 862 100 l 1
 982 117 1082 165 1161 244 c 0
 1240 323 1288 423 1305 543 c 1
 862 543 l 1
EndSplineSet
EndChar
StartChar: uni2296
Encoding: 172 8854 172
OldEncoding: 8854
Width: 1628
VWidth: 1000
Flags: HW
Fore
813 0 m 0
 634 0 491 54 383 162 c 0
 275 270 221 413 221 592 c 0
 221 772 275 916 382 1023 c 0
 489 1130 633 1184 813 1184 c 0
 992 1184 1135 1130 1243 1022 c 0
 1351 914 1405 771 1405 592 c 0
 1405 412 1351 268 1244 161 c 0
 1137 54 993 0 813 0 c 0
1305 641 m 1
 1288 771 1235 877 1144 961 c 0
 1053 1044 943 1085 813 1085 c 0
 683 1085 573 1043 482 959 c 0
 392 876 338 769 322 641 c 1
 1305 641 l 1
322 543 m 1
 338 413 392 307 482 223 c 0
 573 140 683 98 813 98 c 0
 945 98 1057 140 1147 223 c 0
 1233 304 1285 410 1305 543 c 1
 322 543 l 1
EndSplineSet
EndChar
StartChar: circlemultiply
Encoding: 173 8855 173
OldEncoding: 8855
Width: 1628
VWidth: 1000
Flags: HW
Fore
885 592 m 1
 1196 281 l 1
 1271 376 1309 480 1309 592 c 0
 1309 704 1271 808 1196 903 c 1
 885 592 l 1
743 592 m 1
 432 903 l 1
 358 808 322 704 322 592 c 0
 322 485 358 382 432 281 c 1
 743 592 l 1
813 662 m 1
 1126 975 l 1
 1031 1049 927 1085 815 1085 c 0
 699 1085 595 1049 502 975 c 1
 813 662 l 1
813 522 m 1
 502 211 l 1
 597 136 702 98 815 98 c 0
 927 98 1031 136 1126 211 c 1
 813 522 l 1
813 0 m 0
 633 0 489 54 383 161 c 0
 276 268 223 412 223 592 c 0
 223 772 276 916 383 1023 c 0
 489 1130 633 1184 813 1184 c 0
 993 1184 1137 1130 1245 1023 c 0
 1353 916 1407 772 1407 592 c 0
 1407 412 1353 268 1245 161 c 0
 1137 54 993 0 813 0 c 0
EndSplineSet
EndChar
StartChar: uni2298
Encoding: 174 8856 174
OldEncoding: 8856
Width: 1628
VWidth: 1000
Flags: HW
Fore
1126 975 m 1
 1031 1049 926 1085 813 1085 c 0
 667 1085 548 1040 457 949 c 0
 365 858 319 740 319 594 c 0
 319 477 357 372 432 281 c 1
 1126 975 l 1
502 211 m 1
 597 136 702 98 815 98 c 0
 961 98 1080 144 1170 236 c 0
 1261 327 1307 446 1307 592 c 0
 1307 704 1270 808 1196 903 c 1
 502 211 l 1
813 0 m 0
 634 0 491 54 383 162 c 0
 275 270 221 413 221 592 c 0
 221 772 275 916 382 1023 c 0
 489 1130 633 1184 813 1184 c 0
 992 1184 1135 1130 1243 1022 c 0
 1351 914 1405 771 1405 592 c 0
 1405 412 1351 268 1244 161 c 0
 1137 54 993 0 813 0 c 0
EndSplineSet
EndChar
StartChar: uni2299
Encoding: 175 8857 175
OldEncoding: 8857
Width: 1628
VWidth: 1000
Flags: HW
Fore
813 0 m 0
 633 0 489 54 383 161 c 0
 276 268 223 412 223 592 c 0
 223 772 276 916 383 1023 c 0
 489 1130 633 1184 813 1184 c 0
 993 1184 1137 1130 1245 1023 c 0
 1353 916 1407 772 1407 592 c 0
 1407 412 1353 268 1245 161 c 0
 1137 54 993 0 813 0 c 0
813 98 m 0
 959 98 1078 144 1170 236 c 0
 1263 327 1309 446 1309 592 c 0
 1309 738 1263 857 1170 948 c 0
 1078 1040 959 1085 813 1085 c 0
 667 1085 549 1040 458 948 c 0
 367 857 322 738 322 592 c 0
 322 446 367 327 459 236 c 0
 549 144 667 98 813 98 c 0
702 481 m 1
 702 702 l 1
 924 702 l 1
 924 481 l 1
 702 481 l 1
EndSplineSet
EndChar
StartChar: uni22A4
Encoding: 176 8868 176
OldEncoding: 8868
Width: 1400
VWidth: 1000
Flags: HW
Fore
668 0 m 1
 668 1260 l 1
 82 1260 l 1
 82 1356 l 1
 1356 1356 l 1
 1356 1260 l 1
 764 1260 l 1
 764 0 l 1
 668 0 l 1
EndSplineSet
EndChar
StartChar: perpendicular
Encoding: 177 8869 177
OldEncoding: 8869
Width: 1431
VWidth: 1000
Flags: HW
Fore
770 1356 m 1
 770 96 l 1
 1356 96 l 1
 1356 0 l 1
 82 0 l 1
 82 96 l 1
 674 96 l 1
 674 1356 l 1
 770 1356 l 1
EndSplineSet
EndChar
StartChar: uni22B6
Encoding: 178 8886 178
OldEncoding: 8886
Width: 1851
VWidth: 1000
Flags: HW
Fore
686 543 m 1
 675 491 648 447 603 412 c 0
 559 376 510 358 457 358 c 0
 393 358 337 381 291 427 c 0
 244 473 221 528 221 592 c 0
 221 655 245 710 292 757 c 0
 339 804 394 827 457 827 c 0
 584 827 660 765 686 641 c 1
 1165 641 l 1
 1194 765 1270 827 1395 827 c 0
 1460 827 1516 805 1561 759 c 0
 1606 713 1628 657 1628 592 c 0
 1628 528 1605 473 1560 427 c 0
 1514 381 1459 358 1395 358 c 0
 1340 358 1291 376 1248 411 c 0
 1205 445 1178 489 1165 543 c 1
 686 543 l 1
319 592 m 0
 319 554 333 522 359 496 c 0
 386 470 418 457 457 457 c 0
 494 457 525 470 552 497 c 0
 579 523 592 555 592 592 c 0
 592 629 579 660 552 687 c 0
 525 714 494 727 457 727 c 0
 420 727 388 714 360 687 c 0
 333 660 319 629 319 592 c 0
EndSplineSet
EndChar
StartChar: uni22B7
Encoding: 179 8887 179
OldEncoding: 8887
Width: 1851
VWidth: 1000
Flags: HW
Fore
1165 543 m 1
 686 543 l 1
 675 491 648 447 603 412 c 0
 559 376 510 358 457 358 c 0
 393 358 337 381 291 427 c 0
 244 473 221 528 221 592 c 0
 221 655 245 710 292 757 c 0
 339 804 394 827 457 827 c 0
 581 827 657 765 686 641 c 1
 1165 641 l 1
 1190 765 1266 827 1395 827 c 0
 1460 827 1516 805 1561 759 c 0
 1606 713 1628 657 1628 592 c 0
 1628 528 1605 473 1560 427 c 0
 1514 381 1459 358 1395 358 c 0
 1340 358 1291 376 1248 411 c 0
 1205 445 1178 489 1165 543 c 1
1530 592 m 0
 1530 629 1517 660 1490 687 c 0
 1463 714 1432 727 1395 727 c 0
 1358 727 1326 714 1298 687 c 0
 1271 660 1257 629 1257 592 c 0
 1257 554 1271 522 1297 496 c 0
 1324 470 1356 457 1395 457 c 0
 1432 457 1463 470 1490 497 c 0
 1517 523 1530 555 1530 592 c 0
EndSplineSet
EndChar
StartChar: uni22BE
Encoding: 180 8894 180
OldEncoding: 8894
Width: 1478
VWidth: 1000
Flags: HW
Fore
29 -8 m 1
 31 1335 l 1
 131 1335 l 1
 131 770 l 1
 614 774 856 547 856 90 c 1
 1403 90 l 1
 1403 -10 l 1
 29 -8 l 1
760 96 m 1
 749 294 689 439 582 530 c 0
 479 618 328 661 127 659 c 1
 127 96 l 1
 760 96 l 1
295 334 m 0
 295 352 302 368 315 382 c 0
 329 396 345 403 362 403 c 0
 382 403 398 397 412 383 c 0
 425 369 432 353 432 334 c 0
 432 316 425 300 411 287 c 0
 396 273 380 266 362 266 c 0
 345 266 329 273 315 287 c 0
 302 300 295 316 295 334 c 0
EndSplineSet
EndChar
StartChar: dotmath
Encoding: 181 8901 181
OldEncoding: 8901
Width: 1183
VWidth: 1000
Flags: HW
Fore
469 592 m 0
 469 621 480 646 502 669 c 0
 524 691 549 702 578 702 c 0
 608 702 634 692 655 670 c 0
 677 648 688 622 688 592 c 0
 688 562 677 536 655 514 c 0
 634 492 608 481 578 481 c 0
 549 481 524 493 502 515 c 0
 480 538 469 563 469 592 c 0
EndSplineSet
EndChar
StartChar: uni22EE
Encoding: 182 8942 182
OldEncoding: 8942
Width: 1210
VWidth: 1000
Flags: HW
Fore
567 20 m 0
 599 20 625 10 647 -11 c 0
 669 -32 680 -59 680 -90 c 0
 680 -120 669 -146 646 -168 c 0
 624 -190 597 -201 567 -201 c 0
 537 -201 511 -190 489 -168 c 0
 468 -146 457 -120 457 -90 c 0
 457 -60 468 -34 489 -12 c 0
 511 10 537 20 567 20 c 0
567 702 m 0
 597 702 624 692 646 671 c 0
 669 650 680 624 680 594 c 0
 680 564 669 538 646 515 c 0
 624 493 597 481 567 481 c 0
 537 481 511 493 489 515 c 0
 468 538 457 564 457 594 c 0
 457 666 494 702 567 702 c 0
567 1386 m 0
 599 1386 625 1376 647 1355 c 0
 669 1334 680 1307 680 1276 c 0
 680 1246 669 1220 646 1198 c 0
 624 1176 597 1165 567 1165 c 0
 537 1165 511 1176 489 1198 c 0
 468 1220 457 1246 457 1276 c 0
 457 1306 468 1332 489 1354 c 0
 511 1376 537 1386 567 1386 c 0
EndSplineSet
EndChar
StartChar: uni22EF
Encoding: 183 8943 183
OldEncoding: 8943
Width: 2048
VWidth: 1000
Flags: HW
Fore
410 590 m 0
 410 558 399 532 378 510 c 0
 357 488 330 477 299 477 c 0
 269 477 243 488 221 511 c 0
 199 534 188 560 188 590 c 0
 188 620 199 646 221 668 c 0
 243 689 269 700 299 700 c 0
 329 700 355 689 377 668 c 0
 399 646 410 620 410 590 c 0
1092 590 m 0
 1092 560 1081 534 1060 511 c 0
 1039 488 1013 477 983 477 c 0
 953 477 927 488 904 511 c 0
 882 534 870 560 870 590 c 0
 870 620 882 646 904 668 c 0
 927 689 953 700 983 700 c 0
 1055 700 1092 664 1092 590 c 0
1776 590 m 0
 1776 558 1765 532 1744 510 c 0
 1723 488 1696 477 1665 477 c 0
 1635 477 1609 488 1587 511 c 0
 1565 534 1554 560 1554 590 c 0
 1554 620 1565 646 1587 668 c 0
 1609 689 1635 700 1665 700 c 0
 1695 700 1721 689 1743 668 c 0
 1765 646 1776 620 1776 590 c 0
EndSplineSet
EndChar
StartChar: uni22F0
Encoding: 184 8944 184
OldEncoding: 8944
Width: 1693
VWidth: 1000
Flags: HW
Fore
422 113 m 0
 422 83 411 57 389 35 c 0
 367 13 341 2 311 2 c 0
 280 2 253 13 231 34 c 0
 210 55 199 81 199 113 c 0
 199 143 209 169 230 191 c 0
 252 214 276 225 305 225 c 0
 335 225 362 214 386 191 c 0
 410 169 422 143 422 113 c 0
905 596 m 0
 905 566 894 540 872 518 c 0
 851 496 825 485 795 485 c 0
 721 485 684 522 684 596 c 0
 684 626 695 652 716 674 c 0
 737 696 763 707 793 707 c 0
 823 707 849 696 871 674 c 0
 894 652 905 626 905 596 c 0
1389 1079 m 0
 1389 1048 1378 1021 1357 999 c 0
 1336 978 1309 967 1278 967 c 0
 1248 967 1222 978 1199 1000 c 0
 1177 1023 1165 1049 1165 1079 c 0
 1165 1109 1177 1135 1199 1157 c 0
 1222 1179 1248 1190 1278 1190 c 0
 1307 1190 1332 1179 1355 1156 c 0
 1377 1134 1389 1108 1389 1079 c 0
EndSplineSet
EndChar
StartChar: uni22F1
Encoding: 185 8945 185
OldEncoding: 8945
Width: 1667
VWidth: 1000
Flags: HW
Fore
311 973 m 0
 281 973 255 984 233 1006 c 0
 212 1027 201 1053 201 1083 c 0
 201 1115 211 1141 232 1163 c 0
 254 1185 280 1196 311 1196 c 0
 341 1196 368 1185 390 1164 c 0
 413 1143 424 1118 424 1090 c 0
 424 1059 413 1033 390 1009 c 0
 368 985 341 973 311 973 c 0
788 489 m 0
 760 489 735 501 715 523 c 0
 694 546 684 571 684 600 c 0
 684 674 721 711 795 711 c 0
 868 711 905 674 905 602 c 0
 905 572 894 546 870 523 c 0
 847 501 820 489 788 489 c 0
1278 6 m 0
 1247 6 1220 17 1198 38 c 0
 1176 59 1165 85 1165 117 c 0
 1165 147 1177 173 1199 196 c 0
 1222 218 1248 229 1278 229 c 0
 1308 229 1334 218 1356 196 c 0
 1378 173 1389 147 1389 117 c 0
 1389 88 1377 62 1355 40 c 0
 1332 17 1307 6 1278 6 c 0
EndSplineSet
EndChar
StartChar: uni2308
Encoding: 190 8968 190
OldEncoding: 8968
Width: 577
VWidth: 1000
Flags: HW
Fore
150 -403 m 1
 150 1622 l 1
 504 1622 l 1
 504 1581 l 1
 248 1581 l 1
 248 -403 l 1
 150 -403 l 1
EndSplineSet
EndChar
StartChar: uni2309
Encoding: 191 8969 191
OldEncoding: 8969
Width: 577
VWidth: 1000
Flags: HW
Fore
428 -403 m 1
 330 -403 l 1
 330 1581 l 1
 74 1581 l 1
 74 1622 l 1
 428 1622 l 1
 428 -403 l 1
EndSplineSet
EndChar
StartChar: uni230A
Encoding: 192 8970 192
OldEncoding: 8970
Width: 577
VWidth: 1000
Flags: HW
Fore
150 -403 m 1
 150 1622 l 1
 248 1622 l 1
 248 -360 l 1
 504 -360 l 1
 504 -403 l 1
 150 -403 l 1
EndSplineSet
EndChar
StartChar: uni230B
Encoding: 193 8971 193
OldEncoding: 8971
Width: 577
VWidth: 1000
Flags: HW
Fore
428 -403 m 1
 74 -403 l 1
 74 -360 l 1
 330 -360 l 1
 330 1622 l 1
 428 1622 l 1
 428 -403 l 1
EndSplineSet
EndChar
StartChar: angleleft
Encoding: 198 9001 194
OldEncoding: 9001
Width: 686
VWidth: 1000
Flags: HW
Fore
86 592 m 1
 578 1606 l 1
 625 1581 l 1
 145 592 l 1
 625 -397 l 1
 578 -422 l 1
 86 592 l 1
EndSplineSet
EndChar
StartChar: angleright
Encoding: 199 9002 195
OldEncoding: 9002
Width: 686
VWidth: 1000
Flags: HW
Fore
600 592 m 1
 109 -422 l 1
 59 -397 l 1
 539 592 l 1
 59 1581 l 1
 109 1606 l 1
 600 592 l 1
EndSplineSet
EndChar
StartChar: uni2334
Encoding: 201 9012 197
OldEncoding: 9012
Width: 619
Flags: HW
Fore
24 0 m 25
 117 0 l 25
 117 -106 l 25
 525 -106 l 25
 525 0 l 25
 609 0 l 25
 609 -171 l 25
 24 -171 l 25
 24 0 l 25
EndSplineSet
EndChar
StartChar: uni2373
Encoding: 204 9075 196
OldEncoding: 9075
Width: 569
VWidth: 1000
Flags: HW
Fore
471 905 m 1
 348 504 l 1
 285 295 254 167 254 119 c 0
 254 96 264 84 285 84 c 0
 319 84 369 132 436 227 c 1
 471 205 l 1
 370 52 273 -25 180 -25 c 0
 119 -25 88 4 88 61 c 0
 88 143 119 261 181 416 c 0
 243 570 274 688 274 770 c 0
 274 804 253 821 209 821 c 0
 201 821 173 818 127 811 c 1
 127 850 l 1
 471 905 l 1
EndSplineSet
EndChar
StartChar: uni2460
Encoding: 205 9312 197
OldEncoding: 9312
Width: 1826
Flags: HW
Fore
172 740 m 0
 172 944 244 1118 390 1264 c 128
 534 1408 708 1480 914 1480 c 0
 1118 1480 1292 1408 1436 1264 c 128
 1580 1118 1652 944 1652 740 c 0
 1652 534 1580 360 1436 218 c 128
 1292 72 1118 0 914 0 c 0
 708 0 534 72 390 218 c 128
 244 360 172 534 172 740 c 0
272 740 m 0
 272 562 334 410 458 286 c 128
 584 162 736 98 914 98 c 0
 1090 98 1242 162 1366 286 c 128
 1492 410 1554 562 1554 740 c 0
 1554 916 1492 1068 1366 1194 c 128
 1242 1320 1090 1382 914 1382 c 0
 736 1382 584 1320 458 1194 c 128
 334 1068 272 916 272 740 c 0
864 270 m 1
 864 1110 l 1
 716 1110 l 1
 716 1190 l 1
 988 1212 l 1
 988 270 l 1
 864 270 l 1
EndSplineSet
EndChar
StartChar: uni2461
Encoding: 206 9313 198
OldEncoding: 9313
Width: 1812
Flags: HW
Fore
172 740 m 0
 172 944 244 1118 390 1264 c 128
 534 1408 708 1480 914 1480 c 0
 1118 1480 1292 1408 1436 1264 c 128
 1580 1118 1652 944 1652 740 c 0
 1652 534 1580 360 1436 218 c 128
 1292 72 1118 0 914 0 c 0
 708 0 534 72 390 218 c 128
 244 360 172 534 172 740 c 0
272 740 m 0
 272 562 334 410 458 286 c 128
 584 162 736 98 914 98 c 0
 1090 98 1242 162 1366 286 c 128
 1492 410 1554 562 1554 740 c 0
 1554 916 1492 1068 1366 1194 c 128
 1242 1320 1090 1382 914 1382 c 0
 736 1382 584 1320 458 1194 c 128
 334 1068 272 916 272 740 c 0
642 284 m 1
 642 394 l 1
 676 476 750 568 860 668 c 2
 932 734 l 2
 1024 816 1070 898 1070 978 c 0
 1070 1034 1054 1076 1024 1104 c 128
 996 1132 952 1146 892 1146 c 0
 830 1146 754 1122 666 1072 c 1
 666 1182 l 1
 748 1220 830 1240 912 1240 c 0
 998 1240 1070 1216 1122 1170 c 128
 1174 1122 1200 1058 1200 980 c 0
 1200 926 1188 876 1162 834 c 128
 1134 790 1084 738 1012 676 c 2
 964 634 l 2
 864 550 808 470 792 394 c 1
 1196 394 l 1
 1196 284 l 1
 642 284 l 1
EndSplineSet
EndChar
StartChar: uni2462
Encoding: 207 9314 199
OldEncoding: 9314
Width: 1866
Flags: HW
Fore
172 740 m 0
 172 944 244 1118 390 1264 c 128
 534 1408 708 1480 914 1480 c 0
 1118 1480 1292 1408 1436 1264 c 128
 1580 1118 1652 944 1652 740 c 0
 1652 534 1580 360 1436 218 c 128
 1292 72 1118 0 914 0 c 0
 708 0 534 72 390 218 c 128
 244 360 172 534 172 740 c 0
272 740 m 0
 272 562 334 410 458 286 c 128
 584 162 736 98 914 98 c 0
 1090 98 1242 162 1366 286 c 128
 1492 410 1554 562 1554 740 c 0
 1554 916 1492 1068 1366 1194 c 128
 1242 1320 1090 1382 914 1382 c 0
 736 1382 584 1320 458 1194 c 128
 334 1068 272 916 272 740 c 0
674 280 m 1
 674 398 l 1
 764 362 834 344 884 344 c 0
 944 344 992 362 1028 396 c 128
 1066 430 1086 476 1086 530 c 0
 1086 598 1062 648 1016 680 c 128
 970 712 902 728 812 728 c 2
 762 728 l 1
 762 812 l 1
 804 812 l 2
 890 812 956 826 1000 858 c 128
 1042 888 1062 934 1062 994 c 0
 1062 1042 1048 1078 1020 1102 c 128
 992 1126 948 1136 890 1136 c 0
 830 1136 762 1120 686 1086 c 1
 686 1194 l 1
 760 1218 832 1230 902 1230 c 0
 996 1230 1068 1214 1116 1178 c 128
 1164 1140 1188 1086 1188 1014 c 0
 1188 960 1172 912 1138 874 c 128
 1106 834 1058 804 994 780 c 1
 1068 762 1124 734 1162 692 c 128
 1200 652 1218 598 1218 532 c 0
 1218 446 1190 376 1130 326 c 128
 1074 276 994 252 892 252 c 0
 836 252 762 262 674 280 c 1
EndSplineSet
EndChar
StartChar: uni2463
Encoding: 208 9315 200
OldEncoding: 9315
Width: 1850
Flags: HW
Fore
172 740 m 0
 172 944 244 1118 390 1264 c 128
 534 1408 708 1480 914 1480 c 0
 1118 1480 1292 1408 1436 1264 c 128
 1580 1118 1652 944 1652 740 c 0
 1652 534 1580 360 1436 218 c 128
 1292 72 1118 0 914 0 c 0
 708 0 534 72 390 218 c 128
 244 360 172 534 172 740 c 0
272 740 m 0
 272 562 334 410 458 286 c 128
 584 162 736 98 914 98 c 0
 1090 98 1242 162 1366 286 c 128
 1492 410 1554 562 1554 740 c 0
 1554 916 1492 1068 1366 1194 c 128
 1242 1320 1090 1382 914 1382 c 0
 736 1382 584 1320 458 1194 c 128
 334 1068 272 916 272 740 c 0
938 284 m 1
 938 548 l 1
 518 548 l 1
 518 642 l 1
 938 1216 l 1
 1054 1216 l 1
 1054 650 l 1
 1180 650 l 1
 1180 548 l 1
 1054 548 l 1
 1054 284 l 1
 938 284 l 1
638 650 m 1
 946 650 l 1
 946 1064 l 1
 638 650 l 1
EndSplineSet
EndChar
StartChar: uni2464
Encoding: 209 9316 201
OldEncoding: 9316
Width: 1806
Flags: HW
Fore
172 740 m 0
 172 944 244 1118 390 1264 c 128
 534 1408 708 1480 914 1480 c 0
 1118 1480 1292 1408 1436 1264 c 128
 1580 1118 1652 944 1652 740 c 0
 1652 534 1580 360 1436 218 c 128
 1292 72 1118 0 914 0 c 0
 708 0 534 72 390 218 c 128
 244 360 172 534 172 740 c 0
272 740 m 0
 272 562 334 410 458 286 c 128
 584 162 736 98 914 98 c 0
 1090 98 1242 162 1366 286 c 128
 1492 410 1554 562 1554 740 c 0
 1554 916 1492 1068 1366 1194 c 128
 1242 1320 1090 1382 914 1382 c 0
 736 1382 584 1320 458 1194 c 128
 334 1068 272 916 272 740 c 0
682 268 m 1
 682 378 l 1
 744 354 802 342 858 342 c 0
 926 342 974 358 1008 392 c 128
 1040 426 1056 476 1056 544 c 0
 1056 614 1032 666 986 702 c 128
 938 738 864 756 768 756 c 0
 746 756 722 754 698 750 c 1
 698 1204 l 1
 1172 1204 l 1
 1172 1096 l 1
 808 1096 l 1
 808 850 l 1
 928 850 1020 822 1088 768 c 128
 1156 712 1190 636 1190 538 c 0
 1190 448 1160 376 1098 326 c 128
 1036 274 952 248 846 248 c 0
 796 248 740 254 682 268 c 1
EndSplineSet
EndChar
StartChar: uni2465
Encoding: 210 9317 202
OldEncoding: 9317
Width: 1840
Flags: HW
Fore
172 740 m 0
 172 944 244 1118 390 1264 c 128
 534 1408 708 1480 914 1480 c 0
 1118 1480 1292 1408 1436 1264 c 128
 1580 1118 1652 944 1652 740 c 0
 1652 534 1580 360 1436 218 c 128
 1292 72 1118 0 914 0 c 0
 708 0 534 72 390 218 c 128
 244 360 172 534 172 740 c 0
272 740 m 0
 272 562 334 410 458 286 c 128
 584 162 736 98 914 98 c 0
 1090 98 1242 162 1366 286 c 128
 1492 410 1554 562 1554 740 c 0
 1554 916 1492 1068 1366 1194 c 128
 1242 1320 1090 1382 914 1382 c 0
 736 1382 584 1320 458 1194 c 128
 334 1068 272 916 272 740 c 0
718 754 m 1
 748 792 782 822 820 842 c 128
 856 860 898 870 942 870 c 0
 1024 870 1090 844 1142 788 c 128
 1194 736 1220 666 1220 582 c 0
 1220 484 1192 404 1132 342 c 128
 1076 280 1002 248 912 248 c 0
 808 248 728 290 670 372 c 128
 612 456 584 570 584 716 c 0
 584 878 616 1004 682 1094 c 128
 748 1184 842 1228 962 1228 c 0
 1020 1228 1090 1218 1172 1194 c 1
 1172 1084 l 1
 1084 1118 1012 1134 954 1134 c 0
 876 1134 818 1102 778 1038 c 128
 738 976 718 880 718 754 c 1
1096 558 m 0
 1096 632 1080 688 1050 724 c 128
 1022 762 978 780 918 780 c 0
 864 780 818 762 780 728 c 128
 744 692 724 650 724 600 c 0
 724 522 742 460 778 412 c 128
 814 366 860 342 920 342 c 0
 978 342 1022 360 1052 396 c 128
 1082 430 1096 484 1096 558 c 0
EndSplineSet
EndChar
StartChar: uni2466
Encoding: 211 9318 203
OldEncoding: 9318
Width: 1802
Flags: HW
Fore
172 740 m 0
 172 944 244 1118 390 1264 c 128
 534 1408 708 1480 914 1480 c 0
 1118 1480 1292 1408 1436 1264 c 128
 1580 1118 1652 944 1652 740 c 0
 1652 534 1580 360 1436 218 c 128
 1292 72 1118 0 914 0 c 0
 708 0 534 72 390 218 c 128
 244 360 172 534 172 740 c 0
272 740 m 0
 272 562 334 410 458 286 c 128
 584 162 736 98 914 98 c 0
 1090 98 1242 162 1366 286 c 128
 1492 410 1554 562 1554 740 c 0
 1554 916 1492 1068 1366 1194 c 128
 1242 1320 1090 1382 914 1382 c 0
 736 1382 584 1320 458 1194 c 128
 334 1068 272 916 272 740 c 0
686 234 m 1
 706 354 764 490 858 642 c 2
 1112 1050 l 1
 632 1050 l 1
 632 1168 l 1
 1230 1168 l 1
 1230 1050 l 1
 992 698 858 426 830 234 c 1
 686 234 l 1
EndSplineSet
EndChar
StartChar: uni2467
Encoding: 212 9319 204
OldEncoding: 9319
Width: 1786
Flags: HW
Fore
172 740 m 0
 172 944 244 1118 390 1264 c 128
 534 1408 708 1480 914 1480 c 0
 1118 1480 1292 1408 1436 1264 c 128
 1580 1118 1652 944 1652 740 c 0
 1652 534 1580 360 1436 218 c 128
 1292 72 1118 0 914 0 c 0
 708 0 534 72 390 218 c 128
 244 360 172 534 172 740 c 0
272 740 m 0
 272 562 334 410 458 286 c 128
 584 162 736 98 914 98 c 0
 1090 98 1242 162 1366 286 c 128
 1492 410 1554 562 1554 740 c 0
 1554 916 1492 1068 1366 1194 c 128
 1242 1320 1090 1382 914 1382 c 0
 736 1382 584 1320 458 1194 c 128
 334 1068 272 916 272 740 c 0
776 778 m 1
 686 842 642 912 642 990 c 0
 642 1060 666 1118 718 1162 c 128
 770 1204 838 1226 922 1226 c 0
 998 1226 1060 1208 1108 1172 c 128
 1156 1134 1180 1086 1180 1026 c 0
 1180 936 1122 854 1006 778 c 1
 1146 710 1216 622 1216 512 c 0
 1216 434 1188 370 1128 322 c 128
 1070 272 994 248 902 248 c 0
 808 248 734 272 678 318 c 128
 620 364 592 426 592 502 c 0
 592 612 654 704 776 778 c 1
936 818 m 1
 1024 874 1068 938 1068 1010 c 0
 1068 1046 1052 1076 1022 1100 c 128
 994 1122 956 1134 910 1134 c 0
 862 1134 826 1122 796 1100 c 128
 768 1078 754 1050 754 1014 c 0
 754 952 814 886 936 818 c 1
846 730 m 1
 760 664 716 594 716 520 c 0
 716 466 734 424 768 392 c 128
 802 358 848 342 904 342 c 0
 958 342 1002 356 1036 382 c 128
 1070 412 1088 448 1088 494 c 0
 1088 556 1036 616 934 676 c 2
 846 730 l 1
EndSplineSet
EndChar
StartChar: uni2468
Encoding: 213 9320 205
OldEncoding: 9320
Width: 1792
Flags: HW
Fore
172 740 m 0
 172 944 244 1118 390 1264 c 128
 534 1408 708 1480 914 1480 c 0
 1118 1480 1292 1408 1436 1264 c 128
 1580 1118 1652 944 1652 740 c 0
 1652 534 1580 360 1436 218 c 128
 1292 72 1118 0 914 0 c 0
 708 0 534 72 390 218 c 128
 244 360 172 534 172 740 c 0
272 740 m 0
 272 562 334 410 458 286 c 128
 584 162 736 98 914 98 c 0
 1090 98 1242 162 1366 286 c 128
 1492 410 1554 562 1554 740 c 0
 1554 916 1492 1068 1366 1194 c 128
 1242 1320 1090 1382 914 1382 c 0
 736 1382 584 1320 458 1194 c 128
 334 1068 272 916 272 740 c 0
656 276 m 1
 656 382 l 1
 736 356 804 342 858 342 c 0
 940 342 1002 372 1042 434 c 128
 1084 496 1104 590 1104 714 c 1
 1072 676 1040 646 1004 626 c 128
 968 608 930 598 888 598 c 0
 810 598 744 626 690 684 c 128
 636 742 608 812 608 898 c 0
 608 992 636 1070 694 1132 c 128
 752 1196 826 1226 914 1226 c 0
 1016 1226 1096 1186 1156 1106 c 128
 1212 1024 1242 912 1242 772 c 0
 1242 610 1206 484 1134 390 c 128
 1064 294 968 248 846 248 c 0
 796 248 734 258 656 276 c 1
732 916 m 0
 732 840 746 784 776 746 c 128
 806 706 852 686 912 686 c 0
 964 686 1010 704 1046 742 c 128
 1084 776 1102 820 1102 870 c 0
 1102 950 1084 1014 1048 1060 c 128
 1014 1110 966 1134 908 1134 c 0
 848 1134 804 1116 776 1080 c 128
 746 1042 732 988 732 916 c 0
EndSplineSet
EndChar
StartChar: uni2469
Encoding: 214 9321 206
OldEncoding: 9321
Width: 1816
Flags: HW
Fore
172 740 m 0
 172 944 244 1118 390 1264 c 128
 534 1408 708 1480 914 1480 c 0
 1118 1480 1292 1408 1436 1264 c 128
 1580 1118 1652 944 1652 740 c 0
 1652 534 1580 360 1436 218 c 128
 1292 72 1118 0 914 0 c 0
 708 0 534 72 390 218 c 128
 244 360 172 534 172 740 c 0
272 740 m 0
 272 562 334 410 458 286 c 128
 584 162 736 98 914 98 c 0
 1090 98 1242 162 1366 286 c 128
 1492 410 1554 562 1554 740 c 0
 1554 916 1492 1068 1366 1194 c 128
 1242 1320 1090 1382 914 1382 c 0
 736 1382 584 1320 458 1194 c 128
 334 1068 272 916 272 740 c 0
604 270 m 1
 604 1110 l 1
 506 1110 l 1
 506 1190 l 1
 730 1212 l 1
 730 270 l 1
 604 270 l 1
1110 248 m 0
 1026 248 960 292 910 382 c 128
 858 472 834 590 834 738 c 0
 834 884 858 1002 910 1092 c 128
 960 1182 1026 1226 1110 1226 c 0
 1194 1226 1262 1182 1312 1092 c 128
 1364 1002 1388 884 1388 738 c 0
 1388 590 1364 472 1312 382 c 128
 1262 292 1194 248 1110 248 c 0
1110 342 m 0
 1160 342 1196 374 1220 440 c 128
 1244 508 1256 606 1256 740 c 0
 1256 872 1244 970 1220 1036 c 128
 1196 1102 1160 1134 1110 1134 c 0
 1062 1134 1026 1102 1004 1034 c 128
 978 968 966 870 966 738 c 0
 966 606 978 508 1004 440 c 128
 1026 374 1062 342 1110 342 c 0
EndSplineSet
LCarets: 0 65535 '    ' 2 0 0 
Ligature: 0 0 'liga' one zero uni20DD
EndChar
StartChar: uni24EA
Encoding: 215 9450 207
OldEncoding: 9450
Width: 1826
Flags: HW
Fore
172 740 m 0
 172 944 244 1118 390 1264 c 128
 534 1408 708 1480 914 1480 c 0
 1118 1480 1292 1408 1436 1264 c 128
 1580 1118 1652 944 1652 740 c 0
 1652 534 1580 360 1436 218 c 128
 1292 72 1118 0 914 0 c 0
 708 0 534 72 390 218 c 128
 244 360 172 534 172 740 c 0
272 740 m 0
 272 562 334 410 458 286 c 128
 584 162 736 98 914 98 c 0
 1090 98 1242 162 1366 286 c 128
 1492 410 1554 562 1554 740 c 0
 1554 916 1492 1068 1366 1194 c 128
 1242 1320 1090 1382 914 1382 c 0
 736 1382 584 1320 458 1194 c 128
 334 1068 272 916 272 740 c 0
914 252 m 0
 816 252 736 296 676 386 c 128
 618 476 588 594 588 742 c 0
 588 888 618 1006 676 1096 c 128
 736 1186 816 1230 914 1230 c 0
 1012 1230 1090 1186 1150 1096 c 128
 1210 1006 1240 888 1240 742 c 0
 1240 594 1210 476 1150 386 c 128
 1090 296 1012 252 914 252 c 0
914 344 m 0
 978 344 1028 378 1058 444 c 128
 1092 510 1108 608 1108 742 c 0
 1108 872 1092 972 1058 1038 c 128
 1028 1104 978 1136 914 1136 c 0
 848 1136 800 1104 768 1038 c 128
 736 972 718 872 718 742 c 0
 718 608 736 510 768 444 c 128
 800 378 848 344 914 344 c 0
EndSplineSet
EndChar
StartChar: SF100000
Encoding: 216 9472 208
OldEncoding: 9472
Width: 1628
VWidth: 1000
Flags: HW
Fore
221 543 m 1
 221 641 l 1
 1405 641 l 1
 1405 543 l 1
 221 543 l 1
EndSplineSet
EndChar
StartChar: uni2501
Encoding: 217 9473 209
OldEncoding: 9473
Width: 681
VWidth: 1000
Flags: HW
Fore
66 502 m 1
 66 682 l 1
 618 682 l 1
 618 502 l 1
 66 502 l 1
EndSplineSet
EndChar
StartChar: SF110000
Encoding: 218 9474 210
OldEncoding: 9474
Width: 741
VWidth: 1000
Flags: HW
Fore
391 993 m 1
 494 993 l 1
 494 0 l 1
 391 0 l 1
 391 993 l 1
EndSplineSet
EndChar
StartChar: uni2503
Encoding: 219 9475 211
OldEncoding: 9475
Width: 567
VWidth: 1000
Flags: HW
Fore
508 1458 m 1
 508 0 l 1
 59 0 l 1
 59 1458 l 1
 508 1458 l 1
EndSplineSet
EndChar
StartChar: filledbox
Encoding: 220 9632 197
OldEncoding: 9632
Width: 1531
VWidth: 1000
Flags: HW
Fore
174 147 m 1
 174 1331 l 1
 1358 1331 l 1
 1358 147 l 1
 174 147 l 1
EndSplineSet
EndChar
StartChar: H22073
Encoding: 221 9633 198
OldEncoding: 9633
Width: 1826
VWidth: 1000
Flags: HW
Fore
371 197 m 1
 1456 197 l 1
 1456 1284 l 1
 371 1284 l 1
 371 197 l 1
174 0 m 1
 174 1483 l 1
 1653 1483 l 1
 1653 0 l 1
 174 0 l 1
EndSplineSet
EndChar
StartChar: triagup
Encoding: 222 9650 199
OldEncoding: 9650
Width: 1903
Flags: HW
Fore
80 0 m 25
 898 1485 l 25
 1790 0 l 25
 80 0 l 25
EndSplineSet
EndChar
StartChar: uni25B3
Encoding: 223 9651 200
OldEncoding: 9651
Width: 1903
Flags: HW
Fore
80 0 m 25
 898 1485 l 25
 1790 0 l 25
 80 0 l 25
249.252 100 m 1
 1613.28 100 l 1
 901.751 1284.55 l 1
 249.252 100 l 1
EndSplineSet
EndChar
StartChar: uni25B4
Encoding: 224 9652 199
OldEncoding: 9652
Width: 1351
VWidth: 1000
Flags: HW
Fore
1178 193 m 1
 176 193 l 1
 684 1192 l 1
 1178 193 l 1
EndSplineSet
EndChar
StartChar: uni25B5
Encoding: 225 9653 200
OldEncoding: 9653
Width: 1351
VWidth: 1000
Flags: HW
Fore
1178 193 m 1
 176 193 l 1
 684 1192 l 1
 1178 193 l 1
1079 260 m 1
 684 1061 l 1
 279 260 l 1
 1079 260 l 1
EndSplineSet
EndChar
StartChar: uni25B6
Encoding: 226 9654 201
OldEncoding: 9654
Width: 1903
Flags: HW
Fore
192.5 1597.5 m 25
 1677.5 779.5 l 25
 192.5 -112.5 l 25
 192.5 1597.5 l 25
EndSplineSet
EndChar
StartChar: uni25B7
Encoding: 227 9655 202
OldEncoding: 9655
Width: 1903
Flags: HW
Fore
192.5 1597.5 m 25
 1677.5 779.5 l 25
 192.5 -112.5 l 25
 192.5 1597.5 l 25
292.5 1428.25 m 1
 292.5 64.2207 l 1
 1477.05 775.749 l 1
 292.5 1428.25 l 1
EndSplineSet
EndChar
StartChar: uni25B8
Encoding: 228 9656 203
OldEncoding: 9656
Width: 1351
VWidth: 1000
Flags: HW
Fore
177.5 191.5 m 1
 177.5 1193.5 l 1
 1176.5 685.5 l 1
 177.5 191.5 l 1
EndSplineSet
EndChar
StartChar: uni25B9
Encoding: 229 9657 204
OldEncoding: 9657
Width: 1351
VWidth: 1000
Flags: HW
Fore
177.5 191.5 m 1
 177.5 1193.5 l 1
 1176.5 685.5 l 1
 177.5 191.5 l 1
244.5 290.5 m 1
 1045.5 685.5 l 1
 244.5 1090.5 l 1
 244.5 290.5 l 1
EndSplineSet
EndChar
StartChar: triagrt
Encoding: 230 9658 205
OldEncoding: 9658
Width: 1670
VWidth: 1000
Flags: HW
Fore
177.5 191.5 m 1
 177.5 1193.5 l 1
 1495.5 685.5 l 5
 177.5 191.5 l 1
EndSplineSet
EndChar
StartChar: uni25BB
Encoding: 231 9659 206
OldEncoding: 9659
Width: 1670
VWidth: 1000
Flags: HW
Fore
177.5 191.5 m 1
 177.5 1193.5 l 1
 1495.5 685.5 l 5
 177.5 191.5 l 1
244.5 290.5 m 1
 1364.5 685.5 l 5
 244.5 1090.5 l 1
 244.5 290.5 l 1
EndSplineSet
EndChar
StartChar: triagdn
Encoding: 232 9660 207
OldEncoding: 9660
Width: 1903
Flags: HW
Fore
1790 1485 m 25
 972 0 l 25
 80 1485 l 25
 1790 1485 l 25
EndSplineSet
EndChar
StartChar: uni25BD
Encoding: 233 9661 208
OldEncoding: 9661
Width: 1903
Flags: HW
Fore
1790 1485 m 25
 972 0 l 25
 80 1485 l 25
 1790 1485 l 25
1620.75 1385 m 1
 256.721 1385 l 1
 968.249 200.45 l 1
 1620.75 1385 l 1
EndSplineSet
EndChar
StartChar: uni25BE
Encoding: 234 9662 201
OldEncoding: 9662
Width: 1351
VWidth: 1000
Flags: HW
Fore
1178 1192 m 1
 684 193 l 1
 176 1192 l 1
 1178 1192 l 1
EndSplineSet
EndChar
StartChar: uni25BF
Encoding: 235 9663 202
OldEncoding: 9663
Width: 1351
VWidth: 1000
Flags: HW
Fore
1178 1192 m 1
 684 193 l 1
 176 1192 l 1
 1178 1192 l 1
1087 1130 m 1
 285 1130 l 1
 692 332 l 1
 1087 1130 l 1
EndSplineSet
EndChar
StartChar: uni25C0
Encoding: 236 9664 203
OldEncoding: 9664
Width: 1903
Flags: HW
Fore
1677.5 -112.5 m 25
 192.5 705.5 l 25
 1677.5 1597.5 l 25
 1677.5 -112.5 l 25
EndSplineSet
EndChar
StartChar: uni25C1
Encoding: 237 9665 204
OldEncoding: 9665
Width: 1903
Flags: HW
Fore
1677.5 -112.5 m 25
 192.5 705.5 l 25
 1677.5 1597.5 l 25
 1677.5 -112.5 l 25
1577.5 56.752 m 1
 1577.5 1420.78 l 1
 392.95 709.251 l 1
 1577.5 56.752 l 1
EndSplineSet
EndChar
StartChar: uni25C2
Encoding: 238 9666 205
OldEncoding: 9666
Width: 1351
VWidth: 1000
Flags: HW
Fore
1176.5 1193.5 m 1
 1176.5 191.5 l 1
 177.5 699.5 l 1
 1176.5 1193.5 l 1
EndSplineSet
EndChar
StartChar: uni25C3
Encoding: 239 9667 206
OldEncoding: 9667
Width: 1351
VWidth: 1000
Flags: HW
Fore
1176.5 1193.5 m 1
 1176.5 191.5 l 1
 177.5 699.5 l 1
 1176.5 1193.5 l 1
1109.5 1094.5 m 1
 308.5 699.5 l 1
 1109.5 294.5 l 1
 1109.5 1094.5 l 1
EndSplineSet
EndChar
StartChar: triaglf
Encoding: 240 9668 207
OldEncoding: 9668
Width: 1670
VWidth: 1000
Flags: HW
Fore
1495.5 1193.5 m 1
 1495.5 191.5 l 1
 177.5 699.5 l 5
 1495.5 1193.5 l 1
EndSplineSet
EndChar
StartChar: uni25C5
Encoding: 241 9669 208
OldEncoding: 9669
Width: 1670
VWidth: 1000
Flags: HW
Fore
1495.5 1193.5 m 1
 1495.5 191.5 l 1
 177.5 699.5 l 5
 1495.5 1193.5 l 1
1428.5 1094.5 m 1
 308.5 699.5 l 5
 1428.5 294.5 l 1
 1428.5 1094.5 l 1
EndSplineSet
EndChar
StartChar: H18533
Encoding: 242 9679 203
OldEncoding: 9679
Width: 1548
VWidth: 1000
Flags: HW
Fore
786 1473 m 0
 987 1473 1152 1408 1281 1278 c 0
 1410 1148 1475 983 1475 782 c 0
 1475 579 1411 413 1283 286 c 0
 1155 158 990 94 786 94 c 0
 586 94 421 159 291 288 c 0
 161 417 96 582 96 782 c 0
 96 986 160 1152 289 1280 c 0
 417 1408 583 1473 786 1473 c 0
EndSplineSet
EndChar
StartChar: uni25D7
Encoding: 243 9687 204
OldEncoding: 9687
Width: 897
VWidth: 1000
Flags: HW
Fore
59 1489 m 1
 275 1489 459 1416 610 1271 c 0
 762 1125 838 945 838 729 c 0
 838 509 763 329 614 188 c 0
 466 46 281 -27 59 -31 c 1
 59 1489 l 1
EndSplineSet
EndChar
StartChar: uni260E
Encoding: 244 9742 205
OldEncoding: 9742
Width: 2154
VWidth: 1000
Flags: HW
Fore
2056 1106 m 1
 2056 1044 2034 1004 1989 985 c 0
 1963 973 1914 967 1843 967 c 0
 1763 967 1705 973 1669 987 c 0
 1613 1009 1583 1053 1579 1120 c 1
 1739 1094 1898 1090 2056 1106 c 1
2056 1155 m 1
 2007 1148 1961 1145 1919 1145 c 0
 1896 1145 1774 1154 1554 1171 c 1
 1546 1236 1498 1276 1409 1292 c 1
 1413 1149 l 1
 1498 1067 1576 929 1647 735 c 0
 1716 548 1751 392 1751 266 c 0
 1751 146 1729 86 1683 86 c 2
 479 86 l 2
 422 86 393 136 393 236 c 0
 393 361 429 522 500 719 c 0
 575 925 654 1068 737 1149 c 1
 737 1292 l 1
 651 1277 603 1237 594 1171 c 1
 520 1154 419 1145 291 1145 c 0
 205 1145 139 1148 92 1155 c 1
 99 1343 157 1473 266 1542 c 0
 339 1589 469 1625 657 1651 c 0
 801 1670 940 1679 1075 1679 c 0
 1464 1679 1733 1634 1882 1542 c 0
 1994 1474 2052 1345 2056 1155 c 1
1339 1307 m 1
 1242 1334 1153 1348 1071 1348 c 0
 993 1348 904 1334 803 1307 c 1
 852 1184 l 1
 1292 1184 l 1
 1339 1307 l 1
1405 707 m 0
 1405 784 1368 847 1294 893 c 0
 1232 933 1158 952 1075 952 c 0
 993 952 920 932 856 891 c 0
 781 844 743 783 743 707 c 0
 743 629 781 567 856 520 c 0
 920 479 993 459 1075 459 c 0
 1157 459 1230 479 1294 520 c 0
 1368 567 1405 629 1405 707 c 0
1571 231 m 1
 1591 252 l 1
 1571 272 l 1
 584 272 l 1
 563 252 l 1
 584 231 l 1
 1571 231 l 1
1354 801 m 0
 1354 769 1337 754 1305 754 c 0
 1270 754 1253 769 1253 801 c 0
 1253 834 1270 850 1305 850 c 0
 1337 850 1354 834 1354 801 c 0
1249 872 m 0
 1249 840 1232 823 1198 823 c 0
 1165 823 1149 840 1149 872 c 0
 1149 904 1165 920 1198 920 c 0
 1232 920 1249 904 1249 872 c 0
1386 684 m 0
 1386 651 1369 635 1335 635 c 0
 1303 635 1286 651 1286 684 c 0
 1286 715 1303 731 1335 731 c 0
 1369 731 1386 715 1386 684 c 0
1096 893 m 0
 1096 860 1079 844 1044 844 c 0
 1012 844 995 860 995 893 c 0
 995 924 1012 940 1044 940 c 0
 1079 940 1096 924 1096 893 c 0
1317 573 m 0
 1317 541 1300 524 1266 524 c 0
 1233 524 1217 541 1217 573 c 0
 1217 605 1233 621 1266 621 c 0
 1300 621 1317 605 1317 573 c 0
1280 709 m 0
 1280 666 1255 629 1206 598 c 0
 1163 572 1118 559 1071 559 c 0
 1025 559 981 572 940 598 c 0
 892 628 868 665 868 709 c 0
 868 752 894 786 946 811 c 0
 987 830 1032 840 1079 840 c 0
 1127 840 1170 829 1208 809 c 0
 1256 786 1280 752 1280 709 c 0
954 844 m 0
 954 812 938 797 905 797 c 0
 871 797 854 812 854 844 c 0
 854 877 871 893 905 893 c 0
 938 893 954 877 954 844 c 0
1192 516 m 0
 1192 483 1175 467 1141 467 c 0
 1108 467 1092 483 1092 516 c 0
 1092 547 1108 563 1141 563 c 0
 1175 563 1192 547 1192 516 c 0
868 741 m 0
 868 710 852 694 819 694 c 0
 785 694 768 710 768 741 c 0
 768 774 785 791 819 791 c 0
 852 791 868 774 868 741 c 0
1030 524 m 0
 1030 493 1014 477 981 477 c 0
 947 477 930 493 930 524 c 0
 930 557 947 573 981 573 c 0
 1014 573 1030 557 1030 524 c 0
897 596 m 0
 897 565 881 549 848 549 c 0
 814 549 797 565 797 596 c 0
 797 629 814 645 848 645 c 0
 881 645 897 629 897 596 c 0
571 1120 m 1
 567 1053 533 1008 469 985 c 0
 433 973 373 967 289 967 c 0
 226 967 181 974 154 989 c 0
 114 1010 94 1049 94 1106 c 1
 153 1100 207 1098 256 1098 c 0
 361 1098 466 1105 571 1120 c 1
EndSplineSet
EndChar
StartChar: uni2611
Encoding: 245 9745 206
OldEncoding: 9745
Width: 1826
VWidth: 1000
Flags: HW
Fore
1653 0 m 1
 174 0 l 1
 174 1483 l 1
 1599 1483 l 1
 1733 1561 l 1
 1767 1509 l 1
 1739 1492 1701 1460 1653 1415 c 1
 1653 0 l 1
1505 1270 m 1
 1243 983 1042 692 901 397 c 1
 848 360 782 312 702 252 c 1
 612 548 509 720 391 768 c 1
 458 844 524 883 590 883 c 0
 647 883 714 789 791 602 c 1
 915 811 1121 1055 1409 1335 c 1
 322 1335 l 1
 322 147 l 1
 1505 147 l 1
 1505 1270 l 1
EndSplineSet
EndChar
StartChar: uni2612
Encoding: 246 9746 207
OldEncoding: 9746
Width: 1826
VWidth: 1000
Flags: HW
Fore
322 147 m 1
 1505 147 l 1
 1505 1335 l 1
 322 1335 l 1
 322 147 l 1
174 0 m 1
 174 1483 l 1
 1653 1483 l 1
 1653 0 l 1
 174 0 l 1
907 551 m 1
 790 380 700 295 637 295 c 0
 558 295 482 357 410 481 c 1
 446 479 l 2
 509 475 569 500 625 555 c 0
 645 574 687 627 752 715 c 1
 629 842 567 943 567 1018 c 0
 567 1079 621 1149 729 1227 c 1
 745 1119 801 1006 897 887 c 1
 1025 1049 1135 1130 1225 1130 c 0
 1296 1130 1349 1077 1384 971 c 1
 1352 973 l 2
 1286 977 1226 950 1171 891 c 0
 1169 888 1128 831 1049 721 c 1
 1178 598 1300 537 1413 537 c 1
 1353 410 1288 346 1219 346 c 0
 1158 346 1055 414 907 551 c 1
EndSplineSet
EndChar
StartChar: uni261B
Encoding: 247 9755 208
OldEncoding: 9755
Width: 1581
VWidth: 1000
Flags: HW
Fore
174 221 m 0
 129 221 96 261 76 340 c 0
 61 393 53 453 53 518 c 0
 53 575 63 636 84 700 c 0
 110 785 144 827 186 827 c 0
 205 827 221 819 231 801 c 1
 186 797 152 756 129 680 c 0
 114 627 106 568 106 504 c 0
 106 337 144 254 219 254 c 1
 212 232 197 221 174 221 c 0
653 182 m 0
 600 182 511 214 387 279 c 1
 231 291 l 1
 181 322 156 403 156 535 c 0
 156 607 164 657 180 686 c 0
 194 709 220 727 258 739 c 2
 395 784 l 1
 717 913 l 1
 833 912 978 893 1153 856 c 0
 1380 808 1493 751 1493 684 c 0
 1493 666 1479 651 1452 639 c 0
 1430 628 1409 623 1389 623 c 0
 1342 623 1227 638 1044 670 c 1
 1088 644 1110 611 1110 571 c 0
 1110 520 1079 489 1016 481 c 1
 1043 470 1057 447 1057 412 c 0
 1057 373 1036 346 995 330 c 1
 1001 301 l 1
 1001 222 885 182 653 182 c 0
EndSplineSet
EndChar
StartChar: uni261E
Encoding: 248 9758 209
OldEncoding: 9758
Width: 2037
VWidth: 1000
Flags: HW
Fore
1952 952 m 1
 1872 877 l 1
 1759 881 1615 890 1440 905 c 1
 1317 840 l 1
 1409 741 l 1
 1479 565 l 1
 1430 475 l 1
 1382 457 l 1
 1368 383 l 1
 1274 332 l 1
 1257 276 l 1
 1159 223 l 1
 1001 279 l 1
 894 273 834 270 821 270 c 0
 735 270 641 301 539 362 c 1
 518 229 l 1
 174 244 l 1
 154 909 l 1
 508 963 l 1
 514 907 l 1
 750 1030 l 2
 763 1037 865 1056 1056 1087 c 0
 1246 1119 1355 1135 1382 1135 c 0
 1605 1135 1793 1091 1946 1004 c 1
 1952 952 l 1
1909 975 m 1
 1754 1049 1587 1085 1405 1085 c 0
 1234 1085 1083 1068 952 1034 c 0
 813 997 675 935 539 848 c 1
 524 846 l 1
 554 697 569 603 569 565 c 0
 569 549 564 500 553 418 c 1
 580 428 l 1
 633 373 l 1
 717 335 809 315 907 315 c 0
 944 315 977 319 1006 326 c 1
 1157 270 l 1
 1217 309 l 1
 1241 356 l 1
 1176 403 1106 440 1032 469 c 1
 1051 512 l 1
 1135 485 1213 441 1284 381 c 1
 1339 430 l 1
 1323 492 l 1
 1210 616 l 1
 1116 651 l 1
 1135 696 l 1
 1243 647 l 1
 1370 494 l 1
 1425 571 l 1
 1352 737 l 1
 1210 870 l 1
 1247 901 l 1
 1276 870 l 1
 1438 952 l 1
 1860 909 l 1
 1909 975 l 1
262 401 m 1
 262 307 l 1
 455 307 l 1
 455 401 l 1
 262 401 l 1
EndSplineSet
EndChar
StartChar: uni2639
Encoding: 249 9785 210
OldEncoding: 9785
Width: 1728
VWidth: 1000
Flags: HW
Fore
864 -33 m 0
 636 -33 451 40 307 184 c 0
 162 328 90 513 90 741 c 0
 90 969 162 1155 306 1299 c 0
 450 1443 636 1516 864 1516 c 0
 1092 1516 1278 1443 1422 1299 c 0
 1566 1155 1638 969 1638 741 c 0
 1638 513 1566 328 1421 184 c 0
 1278 40 1092 -33 864 -33 c 0
864 66 m 0
 1064 66 1226 128 1352 254 c 0
 1477 380 1540 542 1540 741 c 0
 1540 941 1477 1103 1352 1229 c 0
 1226 1354 1064 1417 864 1417 c 0
 668 1417 506 1354 379 1227 c 0
 252 1100 188 938 188 741 c 0
 188 545 252 383 379 256 c 0
 506 129 668 66 864 66 c 0
408 254 m 1
 421 388 467 495 546 575 c 0
 624 656 730 696 862 696 c 0
 995 696 1101 655 1182 571 c 0
 1258 494 1305 388 1321 254 c 1
 1257 254 l 1
 1212 467 1081 573 862 573 c 0
 645 573 514 467 469 254 c 1
 408 254 l 1
614 868 m 0
 582 868 553 881 528 905 c 0
 504 930 492 958 492 991 c 0
 492 1024 504 1053 528 1077 c 0
 553 1102 582 1114 614 1114 c 0
 647 1114 676 1102 700 1077 c 0
 725 1053 737 1024 737 991 c 0
 737 957 725 928 701 904 c 0
 678 880 649 868 614 868 c 0
1110 868 m 0
 1077 868 1048 881 1023 905 c 0
 998 930 985 958 985 991 c 0
 985 1025 997 1054 1022 1078 c 0
 1047 1102 1076 1114 1110 1114 c 0
 1144 1114 1173 1102 1197 1078 c 0
 1221 1054 1233 1025 1233 991 c 0
 1233 958 1221 930 1196 905 c 0
 1171 881 1143 868 1110 868 c 0
EndSplineSet
EndChar
StartChar: smileface
Encoding: 250 9786 211
OldEncoding: 9786
Width: 1728
VWidth: 1000
Flags: HW
Fore
864 -33 m 0
 636 -33 451 40 307 184 c 0
 162 328 90 513 90 741 c 0
 90 969 162 1155 306 1299 c 0
 450 1443 636 1516 864 1516 c 0
 1092 1516 1278 1443 1422 1299 c 0
 1566 1155 1638 969 1638 741 c 0
 1638 513 1566 328 1421 184 c 0
 1278 40 1092 -33 864 -33 c 0
864 66 m 0
 1064 66 1226 128 1352 254 c 0
 1477 380 1540 542 1540 741 c 0
 1540 941 1477 1103 1352 1229 c 0
 1226 1354 1064 1417 864 1417 c 0
 668 1417 506 1354 379 1227 c 0
 252 1100 188 938 188 741 c 0
 188 545 252 383 379 256 c 0
 506 129 668 66 864 66 c 0
408 696 m 1
 469 696 l 1
 514 483 645 377 862 377 c 0
 1081 377 1212 483 1257 696 c 1
 1321 696 l 1
 1305 563 1258 457 1182 379 c 0
 1101 296 995 254 862 254 c 0
 731 254 625 296 543 379 c 0
 466 458 421 564 408 696 c 1
614 868 m 0
 582 868 553 881 528 905 c 0
 504 930 492 958 492 991 c 0
 492 1024 504 1053 528 1077 c 0
 553 1102 582 1114 614 1114 c 0
 647 1114 676 1102 700 1077 c 0
 725 1053 737 1024 737 991 c 0
 737 957 725 928 701 904 c 0
 678 880 649 868 614 868 c 0
1110 868 m 0
 1077 868 1048 881 1023 905 c 0
 998 930 985 958 985 991 c 0
 985 1025 997 1054 1022 1078 c 0
 1047 1102 1076 1114 1110 1114 c 0
 1144 1114 1173 1102 1197 1078 c 0
 1221 1054 1233 1025 1233 991 c 0
 1233 958 1221 930 1196 905 c 0
 1171 881 1143 868 1110 868 c 0
EndSplineSet
EndChar
StartChar: sun
Encoding: 251 9788 212
OldEncoding: 9788
Width: 1752
VWidth: 1000
Flags: HW
Fore
894 1010 m 4
 710 1010 618 918 618 734 c 4
 618 548 710 454 894 454 c 4
 1080 454 1174 548 1174 734 c 4
 1174 918 1080 1010 894 1010 c 4
168 730 m 5
 536 824 l 5
 290 1098 l 5
 626 1026 l 5
 550 1374 l 5
 798 1098 l 5
 890 1454 l 5
 998 1098 l 5
 1272 1360 l 5
 1166 1008 l 5
 1536 1098 l 5
 1258 836 l 5
 1628 730 l 5
 1258 624 l 5
 1536 376 l 5
 1182 452 l 5
 1288 100 l 5
 998 376 l 5
 890 12 l 5
 798 376 l 5
 536 100 l 5
 626 452 l 5
 274 362 l 5
 536 624 l 5
 168 730 l 5
EndSplineSet
EndChar
StartChar: spade
Encoding: 252 9824 212
OldEncoding: 9824
Width: 1282
VWidth: 1000
Flags: HW
Fore
621 1444 m 1
 662 1444 l 1
 683 1425 706 1397 729 1362 c 0
 747 1331 765 1300 784 1270 c 0
 820 1218 885 1152 981 1071 c 0
 1082 985 1150 920 1186 877 c 0
 1249 796 1280 711 1280 621 c 0
 1280 543 1255 477 1204 422 c 0
 1154 367 1090 340 1014 340 c 0
 914 340 820 399 731 518 c 1
 748 311 798 138 883 0 c 1
 399 0 l 1
 484 138 535 311 551 518 c 1
 462 399 368 340 268 340 c 0
 189 340 125 367 76 422 c 0
 27 475 2 541 2 621 c 0
 2 708 33 792 96 872 c 0
 133 922 201 989 299 1073 c 0
 397 1158 464 1223 498 1270 c 2
 621 1444 l 1
EndSplineSet
EndChar
StartChar: club
Encoding: 253 9827 213
OldEncoding: 9827
Width: 1589
VWidth: 1000
Flags: HW
Fore
530 956 m 1
 487 1027 465 1091 465 1147 c 0
 465 1232 499 1303 567 1362 c 0
 633 1417 709 1444 795 1444 c 0
 882 1444 959 1416 1025 1360 c 0
 1091 1304 1124 1233 1124 1147 c 0
 1124 1088 1103 1025 1059 956 c 1
 1108 973 1152 981 1192 981 c 0
 1285 981 1362 951 1424 891 c 0
 1487 831 1518 754 1518 662 c 0
 1518 573 1487 497 1424 434 c 0
 1362 371 1287 340 1198 340 c 0
 1085 340 981 404 887 532 c 1
 910 298 958 120 1032 0 c 1
 555 0 l 1
 629 120 678 298 702 532 c 1
 608 404 504 340 389 340 c 0
 300 340 225 371 164 434 c 0
 102 497 72 573 72 662 c 0
 72 754 103 831 166 891 c 0
 229 951 307 981 399 981 c 0
 438 981 481 973 530 956 c 1
EndSplineSet
EndChar
StartChar: heart
Encoding: 254 9829 214
OldEncoding: 9829
Width: 1421
VWidth: 1000
Flags: HW
Fore
711 1139 m 1
 767 1342 871 1444 1024 1444 c 0
 1118 1444 1198 1413 1264 1353 c 0
 1329 1292 1362 1214 1362 1120 c 0
 1362 1007 1319 880 1233 739 c 0
 1214 708 1133 597 991 406 c 0
 969 375 926 307 860 199 c 0
 807 111 759 45 717 0 c 1
 705 0 l 1
 676 26 650 63 627 111 c 2
 569 236 l 1
 535 304 470 397 375 514 c 0
 267 645 195 739 160 797 c 0
 93 907 59 1012 59 1110 c 0
 59 1207 91 1287 155 1350 c 0
 218 1412 298 1444 395 1444 c 0
 550 1444 655 1342 711 1139 c 1
EndSplineSet
EndChar
StartChar: diamond
Encoding: 255 9830 215
OldEncoding: 9830
Width: 1179
VWidth: 1000
Flags: HW
Fore
580 1141 m 1
 1163 571 l 1
 580 0 l 1
 -4 571 l 1
 580 1141 l 1
EndSplineSet
EndChar
StartChar: uni2702
Encoding: 256 9986 216
OldEncoding: 9986
Width: 1968
VWidth: 1000
Flags: HW
Fore
764 778 m 1
 1030 991 l 2
 1150 1085 1255 1156 1343 1202 c 0
 1461 1266 1565 1298 1657 1298 c 1
 1686 1288 l 1
 942 733 l 1
 1313 733 l 1
 1313 666 l 1
 942 666 l 1
 1681 109 l 1
 1657 98 l 1
 1552 98 1442 130 1329 195 c 0
 1254 237 1157 307 1038 406 c 0
 905 516 813 588 764 621 c 1
 651 547 530 488 403 444 c 1
 500 424 549 372 549 289 c 0
 549 229 519 181 459 145 c 0
 408 115 351 100 287 100 c 0
 147 100 78 154 78 260 c 0
 78 311 158 390 317 500 c 0
 360 528 466 595 637 698 c 1
 462 802 355 868 315 895 c 0
 157 1003 78 1083 78 1137 c 0
 78 1190 102 1232 150 1262 c 0
 189 1288 237 1300 293 1300 c 0
 358 1300 416 1285 465 1255 c 0
 521 1220 549 1171 549 1108 c 0
 549 1022 499 970 399 952 c 1
 525 915 646 857 764 778 c 1
283 1231 m 0
 193 1231 147 1198 147 1133 c 0
 147 1090 171 1057 217 1034 c 0
 254 1015 296 1006 342 1006 c 0
 433 1006 479 1039 479 1106 c 0
 479 1150 456 1182 410 1204 c 0
 374 1222 332 1231 283 1231 c 0
346 389 m 0
 214 389 147 349 147 268 c 0
 147 201 193 168 283 168 c 0
 332 168 373 176 408 193 c 0
 453 213 475 245 475 289 c 0
 475 356 432 389 346 389 c 0
158 733 m 1
 575 733 l 1
 575 666 l 1
 158 666 l 1
 158 733 l 1
1475 733 m 1
 1890 733 l 1
 1890 666 l 1
 1475 666 l 1
 1475 733 l 1
EndSplineSet
EndChar
StartChar: uni2708
Encoding: 257 9992 217
OldEncoding: 9992
Width: 1619
VWidth: 1000
Flags: HW
Fore
686 1325 m 1
 727 1279 775 1207 829 1110 c 0
 890 1006 936 934 969 893 c 0
 1021 829 1094 789 1188 774 c 1
 1419 762 l 1
 1500 754 1554 724 1581 672 c 1
 1558 623 1508 592 1432 580 c 0
 1408 575 1346 573 1245 573 c 0
 1152 573 1088 563 1053 541 c 0
 1013 516 951 435 866 297 c 0
 765 132 705 38 686 14 c 1
 657 2 627 -3 596 -2 c 2
 522 0 l 1
 496 23 l 1
 511 68 562 150 649 270 c 0
 723 371 760 459 760 535 c 1
 745 557 l 1
 674 580 539 598 338 610 c 1
 307 596 l 1
 292 554 269 497 238 426 c 1
 205 412 l 1
 117 420 l 1
 82 446 l 1
 97 487 113 543 129 614 c 1
 107 624 76 642 35 670 c 1
 44 679 60 689 83 698 c 0
 105 708 121 717 129 725 c 1
 128 747 120 777 106 814 c 0
 93 852 85 879 82 895 c 1
 117 920 l 1
 205 928 l 1
 240 911 l 1
 255 869 278 812 309 741 c 1
 340 729 l 1
 407 729 481 735 561 745 c 0
 672 760 738 780 760 805 c 1
 760 881 722 969 647 1069 c 0
 561 1185 511 1268 496 1319 c 1
 504 1333 l 1
 520 1339 541 1341 567 1341 c 0
 614 1341 653 1336 686 1325 c 1
EndSplineSet
EndChar
StartChar: uni270D
Encoding: 258 9997 218
OldEncoding: 9997
Width: 1376
VWidth: 1000
Flags: HW
Fore
596 567 m 1
 483 440 l 1
 510 434 l 1
 536 434 552 446 559 469 c 1
 584 498 596 530 596 567 c 1
139 219 m 1
 102 150 l 1
 104 139 l 1
 115 135 l 1
 156 143 181 158 190 180 c 1
 188 198 173 212 147 221 c 1
 139 219 l 1
215 469 m 1
 242 470 256 453 256 416 c 0
 256 387 242 354 215 315 c 1
 240 315 l 1
 261 337 285 374 309 425 c 0
 334 476 355 512 373 532 c 2
 621 819 l 1
 555 852 l 1
 416 815 302 687 215 469 c 1
156 315 m 1
 168 309 l 1
 188 330 204 350 215 369 c 1
 215 410 l 1
 209 430 l 1
 156 315 l 1
432 236 m 1
 496 233 530 231 535 231 c 0
 563 231 618 241 700 260 c 1
 737 251 788 246 852 246 c 0
 913 246 976 255 1040 274 c 1
 1051 332 1057 374 1057 401 c 0
 1057 440 1047 504 1028 596 c 1
 940 596 l 1
 725 721 l 1
 702 692 676 645 647 579 c 0
 618 512 593 466 571 440 c 1
 590 438 l 1
 624 448 665 461 713 479 c 1
 713 469 l 1
 659 403 l 1
 608 403 l 2
 533 403 472 399 426 389 c 0
 344 371 303 338 303 289 c 1
 322 266 l 1
 337 258 350 254 362 254 c 0
 391 254 407 286 410 350 c 1
 434 330 447 309 449 289 c 1
 432 236 l 1
1065 188 m 1
 1217 188 l 1
 1234 273 1243 346 1243 408 c 0
 1243 487 1230 552 1204 604 c 1
 1079 604 l 1
 1090 521 1096 457 1096 414 c 0
 1096 321 1085 246 1065 188 c 1
41 102 m 1
 41 117 74 184 139 303 c 1
 117 303 l 1
 184 459 225 580 240 668 c 1
 337 765 443 846 559 911 c 1
 647 848 l 1
 739 961 801 1018 834 1018 c 0
 853 1018 868 1009 879 991 c 0
 890 973 895 955 895 936 c 1
 889 899 l 1
 764 760 l 1
 817 723 857 698 883 684 c 0
 932 657 976 643 1016 643 c 1
 1028 668 l 1
 1280 655 l 1
 1302 588 1313 510 1313 420 c 0
 1313 319 1298 225 1268 139 c 1
 1040 139 l 1
 999 213 l 1
 919 197 874 188 864 188 c 2
 520 188 l 2
 468 188 393 199 293 221 c 1
 227 150 l 1
 155 117 96 91 51 74 c 1
 41 102 l 1
EndSplineSet
EndChar
StartChar: uni270E
Encoding: 259 9998 219
OldEncoding: 9998
Width: 1515
VWidth: 1000
Flags: HW
Fore
1100 567 m 1
 791 764 l 2
 673 836 568 898 475 948 c 1
 516 801 l 1
 1100 440 l 1
 1107 469 1110 494 1110 514 c 0
 1110 532 1107 550 1100 567 c 1
1083 391 m 1
 487 760 l 1
 399 596 l 1
 983 240 l 1
 1025 270 1059 320 1083 391 c 1
948 199 m 1
 377 555 l 1
 209 520 l 1
 856 123 l 1
 898 152 929 177 948 199 c 1
948 123 m 1
 1225 123 l 2
 1248 123 1266 133 1280 154 c 0
 1294 174 1300 197 1300 221 c 1
 1149 489 l 1
 1151 436 l 1
 1154 382 1131 324 1083 262 c 0
 1059 229 1014 183 948 123 c 1
412 987 m 1
 223 948 l 1
 109 772 l 1
 160 555 l 1
 352 604 l 1
 465 801 l 1
 412 987 l 1
1337 74 m 2
 856 74 l 1
 125 518 l 1
 55 772 l 1
 188 987 l 1
 424 1036 l 1
 1137 604 l 2
 1172 582 1217 520 1272 418 c 1
 1380 199 l 1
 1405 152 1417 122 1417 109 c 0
 1417 85 1391 74 1337 74 c 2
197 774 m 0
 197 803 209 827 233 846 c 0
 244 855 270 869 309 887 c 1
 346 888 365 869 365 829 c 0
 365 794 354 761 334 731 c 0
 312 697 284 680 250 680 c 0
 214 680 197 711 197 774 c 0
EndSplineSet
EndChar
StartChar: uni2713
Encoding: 260 10003 220
OldEncoding: 10003
Width: 1613
VWidth: 1000
Flags: HW
Fore
1499 1569 m 1
 1534 1518 l 1
 1373 1396 1208 1225 1038 1004 c 0
 880 796 754 593 659 395 c 1
 583 345 517 297 461 252 c 1
 371 547 266 718 147 766 c 1
 214 842 281 881 346 881 c 0
 402 881 470 787 549 600 c 1
 804 1030 1121 1353 1499 1569 c 1
EndSplineSet
EndChar
StartChar: uni2714
Encoding: 261 10004 221
OldEncoding: 10004
Width: 1343
VWidth: 1000
Flags: HW
Fore
285 -33 m 0
 181 -33 111 30 74 156 c 0
 52 228 41 333 41 471 c 0
 41 550 55 617 82 672 c 0
 116 743 169 778 240 778 c 0
 293 778 328 747 346 684 c 0
 346 683 354 624 369 508 c 0
 377 444 397 411 428 410 c 1
 1163 1116 l 2
 1174 1127 1196 1133 1229 1133 c 0
 1271 1133 1292 1118 1292 1087 c 2
 1292 965 l 2
 1292 929 1282 901 1262 881 c 2
 442 47 l 2
 390 -6 338 -33 285 -33 c 0
EndSplineSet
EndChar
StartChar: uni2717
Encoding: 262 10007 222
OldEncoding: 10007
Width: 983
VWidth: 1000
Flags: HW
Fore
0 -2 m 1
 -7 13 -15 26 -25 37 c 1
 356 567 l 1
 262 823 215 952 215 954 c 0
 215 989 240 999 289 987 c 1
 308 991 330 999 354 1012 c 1
 381 999 l 1
 492 748 l 1
 772 1049 l 1
 836 1024 l 1
 860 1049 l 1
 879 1040 900 1026 922 1006 c 1
 886 937 836 864 770 784 c 0
 769 783 710 716 594 584 c 1
 774 223 l 1
 774 196 753 168 711 139 c 1
 727 119 l 1
 717 90 699 76 672 76 c 0
 642 76 570 177 457 381 c 1
 164 -76 l 2
 142 -110 111 -127 72 -127 c 0
 28 -127 7 -110 8 -76 c 1
 -1 -63 -4 -39 0 -2 c 1
EndSplineSet
EndChar
StartChar: uni2718
Encoding: 263 10008 223
OldEncoding: 10008
Width: 1056
VWidth: 1000
Flags: HW
Fore
72 152 m 1
 33 201 l 1
 311 532 l 1
 187 770 125 909 125 948 c 0
 125 969 137 990 160 1012 c 1
 180 1020 l 1
 194 1014 206 1008 217 999 c 1
 223 999 l 1
 245 1043 270 1065 299 1065 c 1
 504 760 l 1
 717 1006 842 1128 879 1128 c 0
 906 1128 929 1115 948 1087 c 1
 948 1049 l 1
 996 1032 1020 1008 1020 977 c 1
 651 545 l 1
 885 276 l 1
 893 252 l 1
 893 233 885 211 870 185 c 0
 855 160 839 147 821 145 c 1
 815 164 l 1
 814 105 795 76 758 76 c 1
 744 85 732 98 721 113 c 1
 670 57 l 1
 651 49 l 1
 627 53 560 133 453 289 c 1
 209 -25 l 1
 182 -39 l 1
 166 -25 154 -4 147 25 c 1
 96 25 l 1
 72 51 54 80 43 113 c 1
 72 152 l 1
EndSplineSet
EndChar
StartChar: uni2719
Encoding: 264 10009 224
OldEncoding: 10009
Width: 1196
VWidth: 1000
Flags: HW
Fore
754 1053 m 1
 473 1053 l 1
 473 686 l 1
 111 686 l 1
 111 418 l 1
 473 418 l 1
 473 49 l 1
 754 49 l 1
 754 418 l 1
 1110 418 l 1
 1110 686 l 1
 754 688 l 1
 754 1053 l 1
1174 369 m 1
 803 369 l 1
 803 0 l 1
 422 0 l 1
 422 369 l 1
 43 369 l 1
 43 737 l 1
 422 737 l 1
 422 1114 l 1
 803 1114 l 1
 803 737 l 1
 1174 737 l 1
 1174 369 l 1
688 100 m 1
 524 100 l 1
 524 469 l 1
 156 469 l 1
 156 633 l 1
 524 633 l 1
 524 999 l 1
 688 999 l 1
 688 633 l 1
 1057 633 l 1
 1057 469 l 1
 688 469 l 1
 688 100 l 1
EndSplineSet
EndChar
StartChar: uni271A
Encoding: 265 10010 225
OldEncoding: 10010
Width: 1196
VWidth: 1000
Flags: HW
Fore
1171 360 m 1
 801 360 l 1
 801 0 l 1
 408 0 l 1
 408 360 l 1
 41 360 l 1
 41 737 l 1
 408 737 l 1
 408 1114 l 1
 793 1114 l 1
 793 737 l 1
 1171 737 l 1
 1171 360 l 1
EndSplineSet
EndChar
StartChar: uni271B
Encoding: 266 10011 226
OldEncoding: 10011
Width: 1196
VWidth: 1000
Flags: HW
Fore
500 0 m 1
 500 457 l 1
 29 457 l 1
 29 639 l 1
 500 639 l 1
 500 1114 l 1
 688 1114 l 1
 688 639 l 1
 1159 639 l 1
 1159 457 l 1
 688 457 l 1
 688 0 l 1
 500 0 l 1
512 623 m 1
 512 475 l 1
 678 475 l 1
 678 623 l 1
 512 623 l 1
EndSplineSet
EndChar
StartChar: uni271C
Encoding: 267 10012 227
OldEncoding: 10012
Width: 1163
VWidth: 1000
Flags: HW
Fore
424 391 m 1
 756 391 l 1
 756 696 l 1
 424 696 l 1
 424 391 l 1
768 -27 m 1
 412 -27 l 1
 412 367 l 1
 33 367 l 1
 33 719 l 1
 412 719 l 1
 412 1098 l 1
 768 1098 l 1
 768 719 l 1
 1137 719 l 1
 1137 367 l 1
 768 367 l 1
 768 -27 l 1
EndSplineSet
EndChar
StartChar: uni2721
Encoding: 268 10017 228
OldEncoding: 10017
Width: 1417
VWidth: 1000
Flags: HW
Fore
707 1475 m 1
 926 1102 l 1
 1358 1102 l 1
 1141 725 l 1
 1358 348 l 1
 926 348 l 1
 707 -25 l 1
 494 348 l 1
 59 348 l 1
 276 725 l 1
 59 1102 l 1
 494 1102 l 1
 707 1475 l 1
707 1376 m 1
 551 1102 l 1
 864 1102 l 1
 707 1376 l 1
147 1051 m 1
 305 774 l 1
 463 1051 l 1
 147 1051 l 1
520 1051 m 1
 334 725 l 1
 520 397 l 1
 897 397 l 1
 1083 725 l 1
 897 1051 l 1
 520 1051 l 1
952 1051 m 1
 1112 772 l 1
 1274 1051 l 1
 952 1051 l 1
305 676 m 1
 147 397 l 1
 465 397 l 1
 305 676 l 1
1112 674 m 1
 952 397 l 1
 1272 397 l 1
 1112 674 l 1
551 348 m 1
 707 72 l 1
 868 348 l 1
 551 348 l 1
EndSplineSet
EndChar
StartChar: uni2722
Encoding: 269 10018 229
OldEncoding: 10018
Width: 1163
VWidth: 1000
Flags: HW
Fore
459 94 m 0
 459 153 469 220 489 295 c 0
 491 298 512 362 553 487 c 1
 508 487 442 473 355 444 c 0
 269 416 202 401 156 401 c 0
 55 401 4 442 4 524 c 0
 4 557 15 587 38 613 c 0
 60 640 87 653 119 653 c 0
 169 653 242 639 337 609 c 0
 432 580 504 565 553 565 c 1
 547 597 528 665 494 770 c 0
 466 855 453 924 453 979 c 0
 453 1016 466 1048 492 1074 c 0
 517 1101 549 1114 586 1114 c 0
 662 1114 700 1068 700 977 c 0
 700 929 686 861 656 771 c 0
 627 682 612 613 612 565 c 1
 815 627 l 1
 893 647 963 657 1024 657 c 0
 1059 657 1090 645 1114 620 c 0
 1139 594 1151 564 1151 528 c 0
 1151 490 1138 458 1111 432 c 0
 1084 406 1052 393 1014 393 c 0
 941 393 808 426 612 492 c 1
 615 449 632 386 663 302 c 0
 693 218 709 152 709 104 c 0
 709 65 697 30 673 0 c 0
 649 -30 617 -45 578 -45 c 0
 541 -45 512 -31 490 -3 c 0
 469 25 459 57 459 94 c 0
EndSplineSet
EndChar
StartChar: uni2723
Encoding: 270 10019 230
OldEncoding: 10019
Width: 1179
VWidth: 1000
Flags: HW
Fore
567 647 m 1
 566 687 542 747 496 828 c 0
 449 910 426 961 426 981 c 0
 426 1023 443 1057 477 1083 c 0
 511 1109 550 1122 592 1122 c 0
 701 1122 755 1067 754 956 c 1
 666 805 l 1
 629 735 610 683 608 647 c 1
 655 647 685 622 700 571 c 1
 736 573 793 596 870 642 c 0
 948 688 1001 711 1030 711 c 0
 1074 711 1108 694 1133 662 c 0
 1157 629 1169 590 1169 545 c 0
 1169 501 1158 463 1135 430 c 0
 1107 395 1072 377 1030 377 c 0
 1001 377 947 403 866 455 c 0
 786 507 730 533 700 535 c 1
 700 510 691 488 673 470 c 0
 654 452 633 442 608 442 c 1
 610 408 634 353 682 278 c 0
 730 202 754 150 754 121 c 0
 754 80 738 45 707 17 c 0
 675 -11 638 -25 596 -25 c 0
 555 -25 519 -10 487 20 c 0
 457 49 442 84 442 125 c 0
 442 158 459 205 494 268 c 2
 571 408 l 1
 567 442 l 1
 544 442 524 452 508 470 c 0
 492 488 483 509 483 532 c 1
 449 527 396 500 323 452 c 0
 250 403 199 379 170 379 c 0
 126 379 90 395 61 426 c 0
 31 459 16 498 16 543 c 0
 16 588 30 625 57 655 c 0
 85 685 120 700 164 700 c 0
 195 700 247 678 321 633 c 0
 394 588 440 565 461 565 c 2
 483 567 l 1
 500 621 528 647 567 647 c 1
EndSplineSet
EndChar
StartChar: uni2724
Encoding: 271 10020 231
OldEncoding: 10020
Width: 1163
VWidth: 1000
Flags: HW
Fore
360 188 m 0
 360 212 389 264 445 344 c 0
 502 425 532 482 537 516 c 1
 352 390 243 328 209 328 c 0
 147 328 98 349 59 391 c 0
 21 433 2 486 2 549 c 0
 2 609 20 659 57 700 c 0
 94 741 142 762 201 762 c 0
 236 762 289 738 360 690 c 1
 508 580 l 1
 537 584 l 1
 532 621 502 680 445 763 c 0
 389 845 360 899 360 924 c 0
 360 981 382 1028 425 1066 c 0
 468 1104 518 1122 575 1122 c 0
 633 1122 683 1105 727 1071 c 0
 771 1037 793 992 793 936 c 0
 793 895 765 836 711 758 c 0
 653 673 622 614 616 580 c 1
 649 588 706 621 786 680 c 0
 860 733 913 760 944 760 c 0
 1007 760 1058 741 1098 702 c 0
 1137 664 1157 614 1157 551 c 0
 1157 494 1140 442 1106 397 c 0
 1069 348 1023 324 969 324 c 0
 932 324 872 353 788 412 c 0
 698 474 637 509 604 516 c 1
 611 485 644 428 705 346 c 0
 762 271 791 217 791 184 c 0
 791 124 769 71 725 25 c 0
 681 -20 629 -43 569 -43 c 0
 508 -43 457 -20 418 25 c 0
 380 71 360 126 360 188 c 0
EndSplineSet
EndChar
StartChar: uni2725
Encoding: 272 10021 232
OldEncoding: 10021
Width: 1179
VWidth: 1000
Flags: HW
Fore
487 125 m 1
 444 123 l 2
 405 122 385 156 385 225 c 0
 385 298 416 334 477 334 c 0
 504 334 531 328 557 315 c 1
 557 520 l 1
 340 532 l 1
 363 505 375 478 375 451 c 0
 375 419 362 392 336 370 c 0
 310 347 281 336 250 336 c 0
 188 336 153 375 143 455 c 1
 127 446 111 442 94 442 c 0
 67 442 44 454 27 477 c 0
 9 500 -0 526 0 555 c 0
 0 584 11 608 33 627 c 0
 53 644 78 653 106 653 c 0
 124 653 141 650 156 643 c 1
 164 717 199 754 260 754 c 0
 290 754 317 744 340 724 c 0
 363 704 375 680 375 651 c 0
 375 627 363 599 340 567 c 1
 557 567 l 1
 567 782 l 1
 541 762 515 752 487 752 c 0
 457 752 433 764 415 790 c 0
 396 815 387 842 387 872 c 0
 387 941 422 975 492 975 c 1
 483 995 479 1014 479 1032 c 0
 479 1098 515 1130 588 1130 c 0
 660 1130 696 1101 696 1042 c 0
 696 1030 691 1011 680 985 c 1
 759 971 799 933 799 868 c 0
 799 838 787 813 764 792 c 0
 741 770 714 760 684 760 c 0
 658 760 631 767 604 782 c 1
 616 567 l 1
 813 567 l 1
 801 592 795 615 795 637 c 0
 795 667 806 693 829 714 c 0
 853 735 879 745 909 745 c 0
 980 745 1016 711 1016 641 c 1
 1044 646 1062 649 1067 649 c 2
 1112 647 l 1
 1146 627 1163 597 1163 557 c 0
 1163 481 1132 442 1069 442 c 0
 1051 442 1034 447 1016 457 c 1
 1012 412 977 389 911 389 c 0
 829 389 788 411 788 455 c 0
 788 478 797 504 813 532 c 1
 616 520 l 1
 604 315 l 1
 637 329 666 336 690 336 c 0
 717 336 741 326 762 305 c 0
 782 285 793 261 793 233 c 0
 793 157 756 121 682 125 c 1
 692 100 696 80 696 63 c 0
 696 36 685 14 664 -4 c 0
 640 -22 615 -31 588 -31 c 0
 559 -31 533 -22 509 -4 c 0
 485 14 473 37 473 66 c 0
 473 87 478 107 487 125 c 1
EndSplineSet
EndChar
StartChar: uni272B
Encoding: 273 10027 233
OldEncoding: 10027
Width: 1286
VWidth: 1000
Flags: HW
Fore
600 328 m 2
 645 328 l 2
 687 328 721 342 746 372 c 0
 772 401 784 437 784 479 c 0
 784 523 768 561 735 594 c 0
 702 627 664 643 621 643 c 0
 574 643 535 629 503 601 c 0
 471 573 455 536 455 489 c 0
 455 447 469 410 497 377 c 0
 525 344 559 328 600 328 c 2
836 416 m 1
 1028 -47 l 1
 621 264 l 1
 227 -47 l 1
 403 416 l 1
 0 668 l 1
 483 643 l 1
 608 1128 l 1
 760 643 l 1
 1268 668 l 1
 836 416 l 1
EndSplineSet
EndChar
StartChar: uni272C
Encoding: 274 10028 234
OldEncoding: 10028
Width: 1269
VWidth: 1000
Flags: HW
Fore
518 633 m 1
 102 668 l 1
 442 440 l 1
 449 430 l 1
 449 534 472 601 518 633 c 1
725 643 m 1
 637 1024 l 1
 537 643 l 1
 565 664 599 674 639 674 c 0
 676 674 705 664 725 643 c 1
819 440 m 1
 1163 668 l 1
 748 633 l 1
 795 601 819 537 819 440 c 1
647 303 m 1
 969 25 l 1
 811 416 l 1
 773 341 718 303 647 303 c 1
457 416 m 1
 319 37 l 1
 621 303 l 1
 550 303 495 341 457 416 c 1
899 403 m 1
 1016 -37 l 1
 637 201 l 1
 256 -37 l 1
 356 403 l 1
 0 696 l 1
 457 721 l 1
 637 1128 l 1
 801 721 l 1
 1255 696 l 1
 899 403 l 1
EndSplineSet
EndChar
StartChar: uni272D
Encoding: 275 10029 235
OldEncoding: 10029
Width: 1212
VWidth: 1000
Flags: HW
Fore
473 680 m 1
 100 651 l 1
 395 444 l 1
 289 43 l 1
 623 256 l 1
 934 27 l 1
 840 428 l 1
 1110 649 l 1
 754 678 l 1
 608 1010 l 1
 473 680 l 1
233 -8 m 1
 233 55 244 127 266 209 c 0
 268 212 289 281 332 418 c 1
 158 545 l 1
 70 612 21 655 10 676 c 1
 39 709 184 729 444 737 c 1
 479 842 502 911 514 944 c 0
 555 1051 589 1107 616 1114 c 1
 653 1080 687 1021 719 938 c 1
 784 737 l 1
 840 735 921 728 1026 719 c 0
 1149 708 1210 692 1210 670 c 0
 1210 644 1107 560 899 418 c 1
 995 -33 l 1
 983 -49 l 1
 847 38 726 122 621 201 c 1
 522 126 464 82 444 70 c 0
 376 22 312 -13 252 -35 c 1
 233 -8 l 1
442 461 m 1
 213 623 l 1
 504 643 l 1
 608 899 l 1
 721 641 l 1
 997 621 l 1
 786 449 l 1
 860 137 l 1
 621 315 l 1
 360 150 l 1
 442 461 l 1
EndSplineSet
EndChar
StartChar: uni272E
Encoding: 276 10030 236
OldEncoding: 10030
Width: 1212
VWidth: 1000
Flags: HW
Fore
496 643 m 1
 188 621 l 1
 432 457 l 1
 344 125 l 1
 621 303 l 1
 877 113 l 1
 801 440 l 1
 1028 621 l 1
 735 633 l 1
 608 924 l 1
 496 643 l 1
233 -8 m 1
 233 55 244 127 266 209 c 0
 268 212 289 281 332 418 c 1
 158 545 l 1
 70 612 21 655 10 676 c 1
 39 709 184 729 444 737 c 1
 479 842 502 911 514 944 c 0
 555 1051 589 1107 616 1114 c 1
 653 1080 687 1021 719 938 c 1
 784 737 l 1
 840 735 921 728 1026 719 c 0
 1149 708 1210 692 1210 670 c 0
 1210 644 1107 560 899 418 c 1
 995 -33 l 1
 983 -49 l 1
 847 38 726 122 621 201 c 1
 522 126 464 82 444 70 c 0
 376 22 312 -13 252 -35 c 1
 233 -8 l 1
801 240 m 1
 608 381 l 1
 420 240 l 1
 496 457 l 1
 356 584 l 1
 537 584 l 1
 608 772 l 1
 684 584 l 1
 864 584 l 1
 725 457 l 1
 801 240 l 1
EndSplineSet
EndChar
StartChar: uni272F
Encoding: 277 10031 237
OldEncoding: 10031
Width: 1245
VWidth: 1000
Flags: HW
Fore
647 504 m 1
 1104 643 l 1
 764 643 l 1
 647 504 l 1
637 504 m 1
 637 999 l 1
 508 655 l 1
 637 504 l 1
432 428 m 1
 608 492 l 1
 139 633 l 1
 432 428 l 1
659 479 m 1
 977 76 l 1
 836 428 l 1
 659 479 l 1
637 479 m 1
 332 76 l 1
 637 289 l 1
 637 479 l 1
889 416 m 1
 1065 -47 l 1
 637 252 l 1
 227 -47 l 1
 381 416 l 1
 12 684 l 1
 471 684 l 1
 637 1141 l 1
 784 684 l 1
 1243 684 l 1
 889 416 l 1
EndSplineSet
EndChar
StartChar: uni2730
Encoding: 278 10032 238
OldEncoding: 10032
Width: 1392
VWidth: 1000
Flags: HW
Fore
629 1065 m 1
 504 696 l 1
 135 696 l 1
 426 469 l 1
 289 88 l 1
 629 340 l 1
 948 76 l 1
 815 469 l 1
 1139 696 l 1
 745 696 l 1
 629 1065 l 1
971 8 m 1
 731 188 l 1
 436 -25 l 1
 223 25 l 1
 360 440 l 1
 8 735 l 1
 465 735 l 1
 604 1153 l 1
 815 1116 l 1
 950 735 l 1
 1303 735 l 1
 1391 696 l 1
 1032 440 l 1
 1186 0 l 1
 971 8 l 1
EndSplineSet
EndChar
StartChar: uni2733
Encoding: 279 10035 239
OldEncoding: 10035
Width: 1114
VWidth: 1000
Flags: HW
Fore
915 131 m 1
 584 483 l 1
 596 0 l 1
 520 0 l 1
 537 496 l 1
 205 131 l 1
 139 182 l 1
 496 524 l 1
 12 508 l 1
 12 598 l 1
 508 569 l 1
 129 924 l 1
 205 965 l 1
 537 606 l 1
 520 1098 l 1
 596 1098 l 1
 567 606 l 1
 928 965 l 1
 977 911 l 1
 596 569 l 1
 1104 598 l 1
 1104 508 l 1
 608 524 l 1
 977 195 l 1
 915 131 l 1
EndSplineSet
EndChar
StartChar: uni2734
Encoding: 280 10036 240
OldEncoding: 10036
Width: 1179
VWidth: 1000
Flags: HW
Fore
588 -55 m 1
 556 -33 535 124 524 416 c 1
 436 327 381 273 360 254 c 0
 294 194 231 152 174 127 c 1
 166 137 l 1
 189 201 283 319 449 492 c 1
 313 494 236 496 217 498 c 0
 116 504 43 520 -2 543 c 1
 47 566 197 586 449 604 c 1
 349 700 294 753 285 764 c 0
 226 828 184 891 160 952 c 1
 170 963 l 1
 214 948 332 855 524 684 c 1
 530 819 533 896 535 913 c 0
 543 1025 558 1096 580 1124 c 1
 606 1082 625 930 637 668 c 1
 726 758 782 814 807 836 c 0
 885 907 948 951 997 969 c 1
 1012 956 l 1
 982 898 937 836 877 770 c 1
 717 604 l 1
 911 585 1062 569 1169 555 c 1
 1176 549 l 1
 1118 528 965 509 717 492 c 1
 812 392 865 336 874 324 c 0
 932 258 975 195 1004 135 c 1
 991 127 l 1
 946 142 828 234 637 403 c 1
 637 279 636 200 633 166 c 0
 626 53 611 -21 588 -55 c 1
EndSplineSet
EndChar
StartChar: uni2735
Encoding: 281 10037 241
OldEncoding: 10037
Width: 1179
VWidth: 1000
Flags: HW
Fore
621 596 m 1
 899 872 l 1
 684 748 l 1
 621 596 l 1
100 545 m 1
 387 479 l 1
 545 545 l 1
 100 545 l 1
553 504 m 1
 223 176 l 1
 504 369 l 1
 553 504 l 1
592 492 m 1
 592 59 l 1
 668 356 l 1
 592 492 l 1
633 520 m 1
 948 201 l 1
 784 457 l 1
 633 520 l 1
643 555 m 1
 1075 555 l 1
 797 633 l 1
 643 555 l 1
580 596 m 1
 580 1024 l 1
 520 748 l 1
 580 596 l 1
403 643 m 1
 553 584 l 1
 252 872 l 1
 403 643 l 1
983 139 m 1
 696 315 l 1
 604 -37 l 1
 580 -37 l 1
 504 303 l 1
 188 113 l 1
 160 139 l 1
 352 440 l 1
 -4 532 l 1
 -4 555 l 1
 352 633 l 1
 160 965 l 1
 188 977 l 1
 479 784 l 1
 580 1128 l 1
 604 1128 l 1
 684 801 l 1
 999 977 l 1
 1024 965 l 1
 819 655 l 1
 1163 567 l 1
 1163 545 l 1
 836 469 l 1
 1012 152 l 1
 983 139 l 1
EndSplineSet
EndChar
StartChar: uni2736
Encoding: 282 10038 242
OldEncoding: 10038
Width: 1040
VWidth: 1000
Flags: HW
Fore
498 -43 m 1
 470 -5 438 137 399 381 c 1
 274 329 211 302 211 301 c 0
 137 274 71 257 12 250 c 1
 0 254 l 1
 -6 260 l 1
 13 300 119 395 311 545 c 1
 220 609 163 650 141 668 c 0
 80 718 33 770 0 823 c 1
 6 827 l 1
 68 825 199 785 399 709 c 1
 410 782 422 857 434 932 c 0
 453 1030 477 1098 506 1137 c 1
 532 1062 559 919 588 709 c 1
 681 743 749 767 793 780 c 0
 869 805 939 824 1001 838 c 1
 1014 829 l 1
 984 779 935 727 868 674 c 1
 692 545 l 1
 718 520 775 472 862 399 c 0
 935 341 989 289 1024 246 c 1
 1014 242 l 1
 940 257 798 303 588 381 c 1
 569 244 558 171 557 160 c 0
 539 55 520 -13 498 -43 c 1
EndSplineSet
EndChar
StartChar: uni2737
Encoding: 283 10039 243
OldEncoding: 10039
Width: 1163
VWidth: 1000
Flags: HW
Fore
332 -10 m 1
 387 369 l 1
 201 335 79 317 20 317 c 2
 10 319 l 1
 4 326 l 1
 35 372 143 449 328 555 c 1
 182 640 74 716 6 784 c 1
 16 791 l 1
 33 793 l 2
 101 793 225 773 403 735 c 1
 376 843 361 905 358 920 c 0
 343 989 336 1051 336 1106 c 1
 344 1126 l 1
 378 1107 453 1001 567 809 c 1
 634 915 669 971 672 977 c 0
 717 1038 764 1083 813 1112 c 1
 823 1098 l 1
 735 735 l 1
 922 775 1054 795 1130 795 c 2
 1143 793 l 1
 1149 786 l 1
 836 545 l 1
 948 477 1005 442 1008 440 c 0
 1073 397 1121 352 1151 305 c 1
 1126 297 l 1
 1053 297 922 325 735 381 c 1
 750 325 778 195 819 -8 c 1
 811 -23 l 1
 777 -3 696 100 567 289 c 1
 509 186 475 130 467 119 c 0
 426 56 383 8 338 -27 c 1
 332 -10 l 1
EndSplineSet
EndChar
StartChar: uni2738
Encoding: 284 10040 244
OldEncoding: 10040
Width: 1179
VWidth: 1000
Flags: HW
Fore
25 340 m 1
 289 584 l 1
 8 809 l 1
 365 784 l 1
 356 1141 l 1
 580 872 l 1
 819 1141 l 1
 797 784 l 1
 1163 819 l 1
 872 584 l 1
 1153 340 l 1
 797 369 l 1
 819 0 l 1
 580 264 l 1
 340 0 l 1
 365 369 l 1
 25 340 l 1
EndSplineSet
EndChar
StartChar: uni2739
Encoding: 285 10041 245
OldEncoding: 10041
Width: 1236
VWidth: 1000
Flags: HW
Fore
8 555 m 1
 311 633 l 1
 109 860 l 1
 387 801 l 1
 324 1087 l 1
 528 860 l 1
 604 1153 l 1
 692 860 l 1
 920 1075 l 1
 831 784 l 1
 1137 860 l 1
 907 643 l 1
 1212 555 l 1
 907 469 l 1
 1137 264 l 1
 844 328 l 1
 932 37 l 1
 692 264 l 1
 604 -37 l 1
 528 264 l 1
 311 37 l 1
 387 328 l 1
 96 252 l 1
 311 469 l 1
 8 555 l 1
EndSplineSet
EndChar
StartChar: uni273F
Encoding: 286 10047 246
OldEncoding: 10047
Width: 1691
VWidth: 1000
Flags: HW
Fore
854 170 m 1
 794 57 705 0 586 0 c 0
 493 0 413 32 347 97 c 0
 281 162 248 241 248 334 c 0
 248 402 276 470 334 539 c 1
 255 555 191 591 143 645 c 0
 96 700 72 767 72 846 c 0
 72 935 102 1012 162 1079 c 0
 222 1146 296 1180 385 1180 c 0
 427 1180 473 1169 522 1149 c 1
 520 1193 518 1226 518 1249 c 0
 518 1326 554 1389 627 1440 c 0
 692 1486 765 1509 844 1509 c 0
 943 1509 1023 1476 1082 1409 c 0
 1142 1342 1168 1259 1161 1159 c 1
 1210 1182 1257 1194 1300 1194 c 0
 1391 1194 1466 1161 1528 1096 c 0
 1589 1030 1620 952 1620 860 c 0
 1620 785 1596 720 1549 665 c 0
 1502 609 1441 572 1366 553 c 1
 1427 487 1458 416 1458 338 c 0
 1458 248 1425 169 1358 101 c 0
 1291 34 1213 0 1124 0 c 0
 1010 0 920 57 854 170 c 1
842 905 m 0
 794 905 752 887 717 852 c 0
 681 816 664 775 664 727 c 0
 664 681 681 640 717 604 c 0
 752 569 794 551 842 551 c 0
 890 551 931 568 967 603 c 0
 1002 638 1020 679 1020 727 c 0
 1020 775 1002 816 967 852 c 0
 931 887 890 905 842 905 c 0
EndSplineSet
EndChar
StartChar: uni2741
Encoding: 287 10049 247
OldEncoding: 10049
Width: 1848
VWidth: 1000
Flags: HW
Fore
1094 1320 m 0
 1094 1272 1052 1132 966 900 c 1
 932 908 894 908 854 900 c 1
 770 1130 730 1270 730 1320 c 0
 730 1372 746 1414 780 1450 c 128
 816 1484 860 1502 912 1502 c 0
 960 1502 1002 1484 1038 1448 c 128
 1076 1412 1094 1370 1094 1320 c 0
840 1310 m 0
 840 1276 862 1258 908 1258 c 0
 950 1258 970 1276 970 1310 c 0
 970 1348 950 1366 908 1366 c 0
 862 1366 840 1348 840 1310 c 0
1060 814 m 1
 1044 848 1018 874 984 890 c 1
 1050 1038 1092 1128 1112 1160 c 0
 1180 1276 1250 1336 1320 1336 c 0
 1370 1336 1414 1316 1450 1280 c 128
 1486 1244 1506 1200 1506 1150 c 0
 1506 1080 1446 1010 1330 940 c 0
 1298 922 1208 880 1060 814 c 1
1268 1164 m 0
 1268 1126 1288 1108 1332 1108 c 0
 1374 1108 1396 1126 1396 1164 c 0
 1396 1198 1374 1216 1332 1216 c 0
 1288 1216 1268 1198 1268 1164 c 0
838 890 m 1
 804 874 778 848 760 814 c 1
 612 878 522 918 492 938 c 0
 376 1008 320 1078 320 1150 c 0
 320 1200 338 1244 374 1280 c 128
 412 1316 454 1336 504 1336 c 0
 574 1336 644 1276 712 1160 c 0
 718 1148 760 1058 838 890 c 1
464 1128 m 0
 464 1092 486 1074 530 1074 c 0
 572 1074 594 1092 594 1128 c 0
 594 1164 572 1182 530 1182 c 0
 486 1182 464 1164 464 1128 c 0
1674 742 m 0
 1674 692 1654 650 1618 612 c 128
 1582 576 1538 560 1488 560 c 0
 1438 560 1298 600 1070 684 c 1
 1078 720 1078 758 1070 798 c 1
 1302 882 1442 924 1488 924 c 0
 1538 924 1582 906 1618 868 c 128
 1654 832 1674 790 1674 742 c 0
1420 732 m 0
 1420 698 1442 680 1484 680 c 0
 1528 680 1548 698 1548 732 c 0
 1548 768 1528 786 1484 786 c 0
 1442 786 1420 768 1420 732 c 0
752 684 m 1
 522 600 382 560 330 560 c 0
 282 560 240 576 202 612 c 128
 166 650 148 692 148 742 c 0
 148 790 166 832 202 868 c 128
 240 906 282 924 330 924 c 0
 380 924 520 882 752 798 c 1
 746 780 744 762 744 742 c 0
 744 720 746 702 752 684 c 1
262 748 m 0
 262 712 284 694 328 694 c 0
 370 694 392 712 392 748 c 0
 392 784 370 802 328 802 c 0
 284 802 262 784 262 748 c 0
1320 148 m 0
 1250 148 1180 206 1112 324 c 0
 1092 354 1050 444 984 592 c 1
 1018 606 1044 632 1060 668 c 1
 1208 602 1298 560 1330 540 c 0
 1446 472 1506 402 1506 332 c 0
 1506 282 1486 238 1450 202 c 128
 1414 166 1370 148 1320 148 c 0
1274 314 m 0
 1274 280 1296 262 1340 262 c 0
 1382 262 1402 280 1402 314 c 0
 1402 350 1382 368 1340 368 c 0
 1296 368 1274 350 1274 314 c 0
838 592 m 1
 716 296 604 148 504 148 c 0
 454 148 412 166 374 202 c 128
 338 238 320 282 320 332 c 0
 320 400 378 470 494 540 c 0
 518 556 606 598 760 668 c 1
 776 630 802 606 838 592 c 1
430 322 m 0
 430 286 452 268 496 268 c 0
 538 268 560 286 560 322 c 0
 560 358 538 374 496 374 c 0
 452 374 430 358 430 322 c 0
1094 160 m 0
 1094 110 1076 68 1040 32 c 128
 1004 -2 962 -20 912 -20 c 0
 862 -20 820 -2 784 32 c 128
 748 70 730 112 730 160 c 0
 730 212 770 352 854 582 c 1
 894 574 932 574 966 582 c 1
 1052 350 1094 210 1094 160 c 0
856 156 m 0
 856 120 878 102 922 102 c 0
 964 102 986 120 986 156 c 0
 986 192 964 210 922 210 c 0
 878 210 856 192 856 156 c 0
EndSplineSet
EndChar
StartChar: uni2744
Encoding: 288 10052 247
OldEncoding: 10052
Width: 1406
VWidth: 1000
Flags: HW
Fore
772 801 m 1
 995 930 l 1
 1032 1202 l 1
 1098 1194 l 1
 1069 973 l 1
 1300 1106 l 1
 1341 1034 l 1
 1110 901 l 1
 1319 813 l 1
 1292 754 l 1
 1036 858 l 1
 813 729 l 1
 813 696 l 1
 1036 567 l 1
 1292 676 l 1
 1319 612 l 1
 1110 526 l 1
 1341 393 l 1
 1300 322 l 1
 1069 455 l 1
 1098 231 l 1
 1032 223 l 1
 995 498 l 1
 772 627 l 1
 745 608 l 1
 745 352 l 1
 965 184 l 1
 924 131 l 1
 745 266 l 1
 745 0 l 1
 664 0 l 1
 664 266 l 1
 483 131 l 1
 442 184 l 1
 664 352 l 1
 664 608 l 1
 635 627 l 1
 412 498 l 1
 377 223 l 1
 309 231 l 1
 338 455 l 1
 106 322 l 1
 66 391 l 1
 297 526 l 1
 90 612 l 1
 117 674 l 1
 371 567 l 1
 594 696 l 1
 594 729 l 1
 371 858 l 1
 117 752 l 1
 90 813 l 1
 297 901 l 1
 66 1034 l 1
 106 1106 l 1
 338 973 l 1
 309 1194 l 1
 377 1202 l 1
 412 930 l 1
 635 801 l 1
 664 817 l 1
 664 1073 l 1
 442 1241 l 1
 483 1294 l 1
 664 1159 l 1
 664 1425 l 1
 743 1425 l 1
 743 1159 l 1
 924 1294 l 1
 965 1241 l 1
 743 1073 l 1
 743 817 l 1
 772 801 l 1
EndSplineSet
EndChar
StartChar: uni274D
Encoding: 289 10061 248
OldEncoding: 10061
Width: 1949
VWidth: 1000
Flags: HW
Fore
868 1483 m 0
 943 1483 1032 1465 1135 1430 c 0
 1565 1281 1780 1037 1780 698 c 0
 1780 492 1715 324 1585 195 c 0
 1455 65 1288 0 1081 0 c 0
 1006 0 918 18 817 53 c 0
 388 203 174 448 174 786 c 0
 174 991 239 1158 368 1288 c 0
 497 1418 664 1483 868 1483 c 0
266 776 m 0
 266 601 323 458 436 347 c 0
 550 236 694 180 868 180 c 0
 1046 180 1191 237 1304 349 c 0
 1416 462 1473 607 1473 784 c 0
 1473 962 1416 1107 1304 1220 c 0
 1191 1332 1046 1389 868 1389 c 0
 691 1389 546 1331 434 1215 c 0
 322 1100 266 954 266 776 c 0
EndSplineSet
EndChar
StartChar: uni274F
Encoding: 290 10063 249
OldEncoding: 10063
Width: 1130
VWidth: 1000
Flags: HW
Fore
55 223 m 1
 893 223 l 1
 893 1075 l 1
 55 1075 l 1
 55 223 l 1
1106 0 m 1
 166 0 l 1
 166 176 l 1
 2 176 l 1
 2 1128 l 1
 942 1128 l 1
 942 965 l 1
 1106 965 l 1
 1106 0 l 1
EndSplineSet
EndChar
StartChar: uni2750
Encoding: 291 10064 250
OldEncoding: 10064
Width: 1146
VWidth: 1000
Flags: W
HStem: 0 59<55 948> 899 49<8 897> 899 229<172 897>
VStem: 8 47<0 899> 897 51<59 176> 897 227<59 1128>
Fore
897 899 m 1
 55 899 l 1
 55 59 l 1
 897 59 l 1
 897 899 l 1
8 0 m 1
 8 948 l 1
 172 948 l 1
 172 1128 l 1
 1124 1128 l 1
 1124 176 l 1
 948 176 l 1
 948 0 l 1
 8 0 l 1
EndSplineSet
EndChar
StartChar: uni2751
Encoding: 292 10065 251
OldEncoding: 10065
Width: 1826
VWidth: 1000
Flags: HW
Fore
270 299 m 1
 1354 299 l 1
 1354 1384 l 1
 270 1384 l 1
 270 299 l 1
172 1483 m 1
 1456 1483 l 1
 1653 1284 l 1
 1653 0 l 1
 369 0 l 1
 172 197 l 1
 172 1483 l 1
EndSplineSet
EndChar
StartChar: uni2752
Encoding: 293 10066 252
OldEncoding: 10066
Width: 1826
VWidth: 1000
Flags: HW
Fore
1354 98 m 1
 1354 1184 l 1
 268 1184 l 1
 270 98 l 1
 1354 98 l 1
172 0 m 1
 172 1284 l 1
 369 1483 l 1
 1653 1483 l 1
 1653 199 l 1
 1456 0 l 1
 172 0 l 1
EndSplineSet
EndChar
StartChar: uni2756
Encoding: 294 10070 253
OldEncoding: 10070
Width: 1179
VWidth: 1000
Flags: HW
Fore
899 801 m 1
 1163 555 l 1
 899 315 l 1
 643 555 l 1
 899 801 l 1
580 479 m 1
 819 240 l 1
 580 -25 l 1
 340 240 l 1
 580 479 l 1
504 555 m 1
 252 315 l 1
 -4 567 l 1
 252 801 l 1
 504 555 l 1
580 1128 m 1
 819 872 l 1
 580 643 l 1
 340 872 l 1
 580 1128 l 1
EndSplineSet
EndChar
StartChar: uni2759
Encoding: 295 10073 254
OldEncoding: 10073
Width: 567
VWidth: 1000
Flags: HW
Fore
508 1458 m 1
 508 0 l 1
 59 0 l 1
 59 1458 l 1
 508 1458 l 1
EndSplineSet
EndChar
StartChar: uni2762
Encoding: 296 10082 255
OldEncoding: 10082
Width: 1114
VWidth: 1000
Flags: HW
Fore
530 586 m 1
 524 661 485 737 414 815 c 1
 223 1001 l 1
 156 1075 123 1148 123 1219 c 0
 123 1313 175 1380 281 1421 c 0
 354 1451 446 1466 557 1466 c 0
 668 1466 759 1453 831 1425 c 0
 938 1384 991 1318 991 1227 c 0
 991 1153 958 1079 891 1004 c 1
 700 817 l 1
 629 739 591 662 584 586 c 1
 530 586 l 1
555 -29 m 0
 474 -29 403 -6 340 39 c 0
 270 88 236 152 236 229 c 0
 236 309 270 372 338 420 c 0
 399 461 472 481 555 481 c 0
 638 481 711 461 772 420 c 0
 842 372 877 309 877 229 c 0
 877 150 842 86 772 37 c 0
 709 -7 637 -29 555 -29 c 0
EndSplineSet
EndChar
StartChar: uni2780
Encoding: 297 10112 256
OldEncoding: 10112
Width: 1826
VWidth: 1000
Flags: HW
Fore
172 741 m 0
 172 961 241 1140 378 1277 c 0
 515 1414 694 1483 913 1483 c 0
 1130 1483 1308 1413 1446 1275 c 0
 1584 1136 1653 958 1653 741 c 0
 1653 523 1584 345 1446 207 c 0
 1309 69 1132 -0 913 0 c 0
 694 0 515 69 378 206 c 0
 241 343 172 522 172 741 c 0
272 741 m 0
 272 554 332 400 453 280 c 0
 573 159 726 98 913 98 c 0
 1105 98 1259 158 1376 276 c 0
 1494 395 1552 550 1552 741 c 0
 1552 933 1493 1087 1375 1206 c 0
 1257 1325 1103 1384 913 1384 c 0
 725 1384 571 1324 452 1204 c 0
 332 1084 272 930 272 741 c 0
864 270 m 1
 864 1110 l 1
 717 1110 l 1
 717 1190 l 1
 989 1212 l 1
 989 270 l 1
 864 270 l 1
EndSplineSet
EndChar
StartChar: uni2781
Encoding: 298 10113 257
OldEncoding: 10113
Width: 1826
VWidth: 1000
Flags: HW
Fore
172 741 m 0
 172 961 241 1140 378 1277 c 0
 515 1414 694 1483 913 1483 c 0
 1130 1483 1308 1413 1446 1275 c 0
 1584 1136 1653 958 1653 741 c 0
 1653 523 1584 345 1446 207 c 0
 1309 69 1132 -0 913 0 c 0
 694 0 515 69 378 206 c 0
 241 343 172 522 172 741 c 0
272 741 m 0
 272 554 332 400 453 280 c 0
 573 159 726 98 913 98 c 0
 1105 98 1259 158 1376 276 c 0
 1494 395 1552 550 1552 741 c 0
 1552 933 1493 1087 1375 1206 c 0
 1257 1325 1103 1384 913 1384 c 0
 725 1384 571 1324 452 1204 c 0
 332 1084 272 930 272 741 c 0
641 287 m 1
 641 393 l 1
 664 438 714 501 791 582 c 0
 893 687 955 754 977 782 c 0
 1038 859 1069 924 1069 979 c 0
 1069 1091 1010 1147 893 1147 c 0
 827 1147 752 1123 666 1075 c 1
 666 1186 l 1
 752 1225 834 1245 911 1245 c 0
 995 1245 1063 1223 1116 1178 c 0
 1172 1128 1200 1063 1200 981 c 0
 1200 905 1168 832 1104 764 c 1
 920 598 l 1
 847 530 805 461 793 393 c 1
 1196 393 l 1
 1196 287 l 1
 641 287 l 1
EndSplineSet
EndChar
StartChar: uni2782
Encoding: 299 10114 258
OldEncoding: 10114
Width: 1826
VWidth: 1000
Flags: HW
Fore
172 741 m 0
 172 961 241 1140 378 1277 c 0
 515 1414 694 1483 913 1483 c 0
 1130 1483 1308 1413 1446 1275 c 0
 1584 1136 1653 958 1653 741 c 0
 1653 523 1584 345 1446 207 c 0
 1309 69 1132 -0 913 0 c 0
 694 0 515 69 378 206 c 0
 241 343 172 522 172 741 c 0
272 741 m 0
 272 554 332 400 453 280 c 0
 573 159 726 98 913 98 c 0
 1105 98 1259 158 1376 276 c 0
 1494 395 1552 550 1552 741 c 0
 1552 933 1493 1087 1375 1206 c 0
 1257 1325 1103 1384 913 1384 c 0
 725 1384 571 1324 452 1204 c 0
 332 1084 272 930 272 741 c 0
674 283 m 1
 674 399 l 1
 768 364 838 346 885 346 c 0
 941 346 988 364 1027 398 c 0
 1066 433 1085 478 1085 532 c 0
 1085 665 978 730 762 729 c 1
 762 813 l 1
 963 812 1063 872 1063 995 c 0
 1063 1091 1006 1139 891 1139 c 0
 824 1139 756 1122 686 1087 c 1
 686 1198 l 1
 756 1224 827 1237 901 1237 c 0
 1092 1237 1188 1163 1188 1016 c 0
 1188 908 1123 830 993 782 c 1
 1143 747 1219 664 1219 535 c 0
 1219 443 1186 372 1122 322 c 0
 1064 276 987 254 893 254 c 0
 840 254 767 264 674 283 c 1
EndSplineSet
EndChar
StartChar: uni2783
Encoding: 300 10115 259
OldEncoding: 10115
Width: 1826
VWidth: 1000
Flags: HW
Fore
172 741 m 0
 172 961 241 1140 378 1277 c 0
 515 1414 694 1483 913 1483 c 0
 1130 1483 1308 1413 1446 1275 c 0
 1584 1136 1653 958 1653 741 c 0
 1653 523 1584 345 1446 207 c 0
 1309 69 1132 -0 913 0 c 0
 694 0 515 69 378 206 c 0
 241 343 172 522 172 741 c 0
272 741 m 0
 272 554 332 400 453 280 c 0
 573 159 726 98 913 98 c 0
 1105 98 1259 158 1376 276 c 0
 1494 395 1552 550 1552 741 c 0
 1552 933 1493 1087 1375 1206 c 0
 1257 1325 1103 1384 913 1384 c 0
 725 1384 571 1324 452 1204 c 0
 332 1084 272 930 272 741 c 0
938 285 m 1
 938 549 l 1
 518 549 l 1
 518 641 l 1
 938 1217 l 1
 1055 1217 l 1
 1055 649 l 1
 1180 649 l 1
 1180 549 l 1
 1055 549 l 1
 1055 285 l 1
 938 285 l 1
641 649 m 1
 946 649 l 1
 946 1065 l 1
 641 649 l 1
EndSplineSet
EndChar
StartChar: uni2784
Encoding: 301 10116 260
OldEncoding: 10116
Width: 1826
VWidth: 1000
Flags: HW
Fore
172 741 m 0
 172 961 241 1140 378 1277 c 0
 515 1414 694 1483 913 1483 c 0
 1130 1483 1308 1413 1446 1275 c 0
 1584 1136 1653 958 1653 741 c 0
 1653 523 1584 345 1446 207 c 0
 1309 69 1132 -0 913 0 c 0
 694 0 515 69 378 206 c 0
 241 343 172 522 172 741 c 0
272 741 m 0
 272 554 332 400 453 280 c 0
 573 159 726 98 913 98 c 0
 1105 98 1259 158 1376 276 c 0
 1494 395 1552 550 1552 741 c 0
 1552 933 1493 1087 1375 1206 c 0
 1257 1325 1103 1384 913 1384 c 0
 725 1384 571 1324 452 1204 c 0
 332 1084 272 930 272 741 c 0
682 266 m 1
 682 377 l 1
 738 351 797 338 858 338 c 0
 991 338 1057 406 1057 543 c 0
 1057 614 1029 668 973 707 c 0
 924 741 862 758 788 758 c 0
 757 758 727 754 698 748 c 1
 698 1204 l 1
 1169 1204 l 1
 1171 1098 l 1
 807 1098 l 1
 807 852 l 1
 916 852 1005 827 1073 778 c 0
 1150 722 1188 642 1188 537 c 0
 1188 442 1154 369 1085 317 c 0
 1023 270 943 246 846 246 c 0
 787 246 733 253 682 266 c 1
EndSplineSet
EndChar
StartChar: uni2785
Encoding: 302 10117 261
OldEncoding: 10117
Width: 1826
VWidth: 1000
Flags: HW
Fore
172 741 m 0
 172 961 241 1140 378 1277 c 0
 515 1414 694 1483 913 1483 c 0
 1130 1483 1308 1413 1446 1275 c 0
 1584 1136 1653 958 1653 741 c 0
 1653 523 1584 345 1446 207 c 0
 1309 69 1132 -0 913 0 c 0
 694 0 515 69 378 206 c 0
 241 343 172 522 172 741 c 0
272 741 m 0
 272 554 332 400 453 280 c 0
 573 159 726 98 913 98 c 0
 1105 98 1259 158 1376 276 c 0
 1494 395 1552 550 1552 741 c 0
 1552 933 1493 1087 1375 1206 c 0
 1257 1325 1103 1384 913 1384 c 0
 725 1384 571 1324 452 1204 c 0
 332 1084 272 930 272 741 c 0
719 752 m 1
 773 829 847 868 940 868 c 0
 1022 868 1089 841 1141 787 c 0
 1193 734 1219 665 1219 582 c 0
 1219 490 1191 412 1135 346 c 0
 1075 279 999 246 909 246 c 0
 793 246 707 298 649 403 c 0
 604 485 582 590 582 717 c 0
 582 859 608 975 662 1065 c 0
 728 1174 828 1229 961 1229 c 0
 1019 1229 1089 1217 1169 1192 c 1
 1169 1079 l 1
 1089 1113 1016 1130 952 1130 c 0
 795 1130 717 1004 719 752 c 1
1092 557 m 0
 1092 706 1032 780 913 780 c 0
 862 780 816 763 778 728 c 0
 740 693 721 651 721 600 c 0
 721 532 736 474 766 426 c 0
 801 369 851 340 915 340 c 0
 1033 340 1092 412 1092 557 c 0
EndSplineSet
EndChar
StartChar: uni2786
Encoding: 303 10118 262
OldEncoding: 10118
Width: 1826
VWidth: 1000
Flags: HW
Fore
172 741 m 0
 172 961 241 1140 378 1277 c 0
 515 1414 694 1483 913 1483 c 0
 1130 1483 1308 1413 1446 1275 c 0
 1584 1136 1653 958 1653 741 c 0
 1653 523 1584 345 1446 207 c 0
 1309 69 1132 -0 913 0 c 0
 694 0 515 69 378 206 c 0
 241 343 172 522 172 741 c 0
272 741 m 0
 272 554 332 400 453 280 c 0
 573 159 726 98 913 98 c 0
 1105 98 1259 158 1376 276 c 0
 1494 395 1552 550 1552 741 c 0
 1552 933 1493 1087 1375 1206 c 0
 1257 1325 1103 1384 913 1384 c 0
 725 1384 571 1324 452 1204 c 0
 332 1084 272 930 272 741 c 0
684 233 m 1
 707 367 763 511 852 664 c 0
 867 689 953 819 1110 1053 c 1
 631 1053 l 1
 631 1167 l 1
 1229 1167 l 1
 1229 1053 l 1
 994 710 860 437 827 233 c 1
 684 233 l 1
EndSplineSet
EndChar
StartChar: uni2787
Encoding: 304 10119 263
OldEncoding: 10119
Width: 1826
VWidth: 1000
Flags: HW
Fore
172 741 m 0
 172 961 241 1140 378 1277 c 0
 515 1414 694 1483 913 1483 c 0
 1130 1483 1308 1413 1446 1275 c 0
 1584 1136 1653 958 1653 741 c 0
 1653 523 1584 345 1446 207 c 0
 1309 69 1132 -0 913 0 c 0
 694 0 515 69 378 206 c 0
 241 343 172 522 172 741 c 0
272 741 m 0
 272 554 332 400 453 280 c 0
 573 159 726 98 913 98 c 0
 1105 98 1259 158 1376 276 c 0
 1494 395 1552 550 1552 741 c 0
 1552 933 1493 1087 1375 1206 c 0
 1257 1325 1103 1384 913 1384 c 0
 725 1384 571 1324 452 1204 c 0
 332 1084 272 930 272 741 c 0
776 778 m 1
 686 840 641 910 641 989 c 0
 641 1063 670 1122 727 1167 c 0
 780 1207 845 1227 922 1227 c 0
 990 1227 1048 1211 1096 1180 c 0
 1152 1143 1180 1092 1180 1026 c 0
 1180 935 1122 852 1006 778 c 1
 1146 711 1217 623 1217 512 c 0
 1217 429 1184 362 1118 313 c 0
 1059 270 987 248 901 248 c 0
 816 248 745 268 688 309 c 0
 624 356 592 420 592 502 c 0
 592 612 653 705 776 778 c 1
936 817 m 1
 1023 874 1067 939 1067 1010 c 0
 1067 1093 1014 1135 909 1135 c 0
 868 1135 834 1125 805 1106 c 0
 771 1083 754 1052 754 1014 c 0
 754 951 814 885 936 817 c 1
846 729 m 1
 760 664 717 594 717 520 c 0
 717 466 734 422 769 389 c 0
 804 356 849 340 903 340 c 0
 952 340 996 354 1033 382 c 0
 1071 410 1090 447 1090 494 c 0
 1090 539 1059 586 997 635 c 0
 973 653 922 684 846 729 c 1
EndSplineSet
EndChar
StartChar: uni2788
Encoding: 305 10120 264
OldEncoding: 10120
Width: 1826
VWidth: 1000
Flags: HW
Fore
172 741 m 0
 172 961 241 1140 378 1277 c 0
 515 1414 694 1483 913 1483 c 0
 1130 1483 1308 1413 1446 1275 c 0
 1584 1136 1653 958 1653 741 c 0
 1653 523 1584 345 1446 207 c 0
 1309 69 1132 -0 913 0 c 0
 694 0 515 69 378 206 c 0
 241 343 172 522 172 741 c 0
272 741 m 0
 272 554 332 400 453 280 c 0
 573 159 726 98 913 98 c 0
 1105 98 1259 158 1376 276 c 0
 1494 395 1552 550 1552 741 c 0
 1552 933 1493 1087 1375 1206 c 0
 1257 1325 1103 1384 913 1384 c 0
 725 1384 571 1324 452 1204 c 0
 332 1084 272 930 272 741 c 0
655 274 m 1
 655 381 l 1
 732 352 799 338 858 338 c 0
 1023 338 1105 463 1104 713 c 1
 1042 635 971 596 889 596 c 0
 806 596 738 625 686 683 c 0
 634 741 608 812 608 895 c 0
 608 988 636 1067 692 1132 c 0
 748 1196 822 1229 913 1229 c 0
 1027 1229 1113 1178 1171 1077 c 0
 1218 995 1241 893 1241 770 c 0
 1241 628 1212 509 1153 414 c 0
 1082 302 980 246 846 246 c 0
 799 246 736 255 655 274 c 1
731 915 m 0
 731 763 791 686 911 686 c 0
 962 686 1006 704 1044 740 c 0
 1083 777 1102 820 1102 870 c 0
 1102 940 1087 999 1059 1049 c 0
 1023 1106 973 1135 907 1135 c 0
 790 1135 731 1062 731 915 c 0
EndSplineSet
EndChar
StartChar: uni2789
Encoding: 306 10121 265
OldEncoding: 10121
Width: 1826
VWidth: 1000
Flags: HW
Fore
172 741 m 0
 172 961 241 1140 378 1277 c 0
 515 1414 694 1483 913 1483 c 0
 1130 1483 1308 1413 1446 1275 c 0
 1584 1136 1653 958 1653 741 c 0
 1653 523 1584 345 1446 207 c 0
 1309 69 1132 -0 913 0 c 0
 694 0 515 69 378 206 c 0
 241 343 172 522 172 741 c 0
272 741 m 0
 272 554 332 400 453 280 c 0
 573 159 726 98 913 98 c 0
 1105 98 1259 158 1376 276 c 0
 1494 395 1552 550 1552 741 c 0
 1552 933 1493 1087 1375 1206 c 0
 1257 1325 1103 1384 913 1384 c 0
 725 1384 571 1324 452 1204 c 0
 332 1084 272 930 272 741 c 0
604 270 m 1
 604 1110 l 1
 506 1110 l 1
 506 1190 l 1
 729 1212 l 1
 729 270 l 1
 604 270 l 1
1110 246 m 0
 1008 246 933 306 885 426 c 0
 851 512 834 615 834 735 c 0
 834 855 851 958 885 1044 c 0
 933 1165 1008 1225 1110 1225 c 0
 1214 1225 1290 1165 1337 1047 c 0
 1371 961 1389 857 1389 735 c 0
 1389 614 1371 510 1337 424 c 0
 1290 305 1214 246 1110 246 c 0
1110 344 m 0
 1207 344 1255 477 1255 741 c 0
 1255 1004 1207 1135 1110 1135 c 0
 1013 1135 965 1003 965 739 c 0
 965 476 1013 344 1110 344 c 0
EndSplineSet
EndChar
StartChar: uni278A
Encoding: 307 10122 266
OldEncoding: 10122
Width: 1826
VWidth: 1000
Flags: HW
Fore
172 741 m 0
 172 960 241 1138 380 1276 c 0
 518 1414 697 1483 915 1483 c 0
 1133 1483 1310 1413 1448 1275 c 0
 1586 1136 1655 958 1655 741 c 0
 1655 523 1587 345 1450 207 c 0
 1312 69 1134 -0 915 0 c 0
 698 0 520 70 381 209 c 0
 242 347 172 524 172 741 c 0
836 279 m 1
 1024 279 l 1
 1024 1223 l 1
 707 1194 l 1
 711 1102 l 1
 836 1102 l 1
 836 279 l 1
EndSplineSet
EndChar
StartChar: uni278B
Encoding: 308 10123 267
OldEncoding: 10123
Width: 1826
VWidth: 1000
Flags: HW
Fore
172 741 m 0
 172 961 241 1140 378 1277 c 0
 515 1414 694 1483 913 1483 c 0
 1130 1483 1308 1413 1446 1275 c 0
 1584 1136 1653 958 1653 741 c 0
 1653 523 1584 345 1446 207 c 0
 1309 69 1132 -0 913 0 c 0
 694 0 515 69 378 206 c 0
 241 343 172 522 172 741 c 0
623 285 m 1
 1245 285 l 1
 1245 430 l 1
 834 430 l 1
 851 493 897 556 971 618 c 2
 1157 774 l 1
 1219 838 1249 907 1249 981 c 0
 1249 1066 1214 1132 1145 1180 c 0
 1085 1221 1010 1241 922 1241 c 0
 833 1241 741 1223 647 1188 c 1
 647 1051 l 1
 736 1096 815 1118 885 1118 c 0
 995 1118 1051 1070 1051 973 c 0
 1051 905 993 810 877 688 c 1
 623 430 l 1
 623 285 l 1
EndSplineSet
EndChar
StartChar: uni278C
Encoding: 309 10124 268
OldEncoding: 10124
Width: 1826
VWidth: 1000
Flags: HW
Fore
172 741 m 0
 172 961 241 1140 378 1277 c 0
 515 1414 694 1483 913 1483 c 0
 1130 1483 1308 1413 1446 1275 c 0
 1584 1136 1653 958 1653 741 c 0
 1653 523 1584 345 1446 207 c 0
 1309 69 1132 -0 913 0 c 0
 694 0 515 69 378 206 c 0
 241 343 172 522 172 741 c 0
657 279 m 1
 735 258 820 248 911 248 c 0
 1008 248 1089 268 1153 309 c 0
 1228 358 1266 429 1266 520 c 0
 1266 654 1187 738 1030 772 c 1
 1168 817 1237 896 1237 1008 c 0
 1237 1158 1135 1233 932 1233 c 0
 839 1233 752 1219 672 1190 c 1
 672 1061 l 1
 752 1096 825 1114 889 1114 c 0
 994 1114 1047 1072 1047 987 c 0
 1047 915 1011 866 940 840 c 0
 898 826 832 819 743 819 c 1
 743 707 l 1
 764 707 l 2
 855 707 923 698 967 680 c 0
 1036 651 1071 599 1071 522 c 0
 1071 417 1010 365 889 365 c 0
 831 365 754 382 657 418 c 1
 657 279 l 1
EndSplineSet
EndChar
StartChar: uni278D
Encoding: 310 10125 269
OldEncoding: 10125
Width: 1826
VWidth: 1000
Flags: HW
Fore
176 741 m 0
 176 960 245 1138 382 1276 c 0
 519 1414 697 1483 915 1483 c 0
 1133 1483 1310 1413 1448 1275 c 0
 1586 1136 1655 958 1655 741 c 0
 1655 523 1587 345 1450 207 c 0
 1312 69 1134 -0 915 0 c 0
 698 0 521 70 383 209 c 0
 245 347 176 524 176 741 c 0
934 279 m 1
 1096 279 l 1
 1096 526 l 1
 1204 526 l 1
 1204 666 l 1
 1096 666 l 1
 1096 1212 l 1
 926 1212 l 1
 498 666 l 1
 498 526 l 1
 934 526 l 1
 934 279 l 1
647 666 m 1
 936 1030 l 1
 936 666 l 1
 647 666 l 1
EndSplineSet
EndChar
StartChar: uni278E
Encoding: 311 10126 270
OldEncoding: 10126
Width: 1826
VWidth: 1000
Flags: HW
Fore
174 741 m 0
 174 961 243 1140 380 1277 c 0
 517 1414 696 1483 915 1483 c 0
 1133 1483 1310 1413 1448 1275 c 0
 1586 1136 1655 958 1655 741 c 0
 1655 523 1587 345 1450 207 c 0
 1312 69 1134 -0 915 0 c 0
 696 0 517 69 380 206 c 0
 243 343 174 522 174 741 c 0
657 274 m 1
 743 257 811 248 860 248 c 0
 963 248 1047 271 1114 317 c 0
 1191 369 1229 444 1229 543 c 0
 1229 651 1184 733 1096 788 c 0
 1022 834 927 856 811 856 c 1
 811 1057 l 1
 1208 1057 l 1
 1208 1204 l 1
 674 1204 l 1
 674 735 l 1
 700 741 729 743 762 743 c 0
 834 743 895 728 944 696 c 0
 1001 661 1030 609 1030 541 c 0
 1030 425 972 367 856 367 c 0
 796 367 730 382 657 412 c 1
 657 274 l 1
EndSplineSet
EndChar
StartChar: uni278F
Encoding: 312 10127 271
OldEncoding: 10127
Width: 1826
VWidth: 1000
Flags: HW
Fore
174 741 m 0
 174 961 243 1140 380 1277 c 0
 517 1414 696 1483 915 1483 c 0
 1133 1483 1310 1413 1448 1275 c 0
 1586 1136 1655 958 1655 741 c 0
 1655 523 1587 345 1450 207 c 0
 1312 69 1134 -0 915 0 c 0
 696 0 517 69 380 206 c 0
 243 343 174 522 174 741 c 0
743 768 m 1
 742 999 821 1114 979 1114 c 0
 1043 1114 1119 1096 1206 1061 c 1
 1206 1196 l 1
 1127 1218 1049 1229 973 1229 c 0
 828 1229 719 1178 645 1077 c 0
 581 989 549 869 549 719 c 0
 549 586 576 479 631 395 c 0
 696 298 792 250 918 250 c 0
 1016 250 1096 281 1159 343 c 0
 1222 405 1253 485 1253 584 c 0
 1253 666 1226 735 1171 791 c 0
 1117 847 1049 874 967 874 c 0
 875 874 801 839 743 768 c 1
1067 555 m 0
 1067 428 1016 365 915 365 c 0
 862 365 820 388 788 436 c 0
 763 476 750 524 750 582 c 0
 750 629 765 670 796 705 c 0
 826 739 865 756 911 756 c 0
 1015 756 1067 689 1067 555 c 0
EndSplineSet
EndChar
StartChar: uni2790
Encoding: 313 10128 272
OldEncoding: 10128
Width: 1826
VWidth: 1000
Flags: HW
Fore
172 741 m 0
 172 961 241 1140 378 1277 c 0
 515 1414 694 1483 913 1483 c 0
 1130 1483 1308 1413 1446 1275 c 0
 1584 1136 1653 958 1653 741 c 0
 1653 523 1584 345 1446 207 c 0
 1309 69 1132 -0 913 0 c 0
 694 0 515 69 378 206 c 0
 241 343 172 522 172 741 c 0
662 238 m 1
 868 238 l 1
 872 438 1002 699 1257 1020 c 1
 1257 1171 l 1
 623 1171 l 1
 623 1020 l 1
 1106 1020 l 1
 941 796 851 673 838 651 c 0
 741 500 682 362 662 238 c 1
EndSplineSet
EndChar
StartChar: uni2791
Encoding: 314 10129 273
OldEncoding: 10129
Width: 1826
VWidth: 1000
Flags: HW
Fore
172 741 m 0
 172 961 241 1140 378 1277 c 0
 515 1414 694 1483 913 1483 c 0
 1130 1483 1308 1413 1446 1275 c 0
 1584 1136 1653 958 1653 741 c 0
 1653 523 1584 345 1446 207 c 0
 1309 69 1132 -0 913 0 c 0
 694 0 515 69 378 206 c 0
 241 343 172 522 172 741 c 0
758 770 m 1
 634 699 571 609 571 500 c 0
 571 416 608 352 682 305 c 0
 745 267 821 248 909 248 c 0
 1001 248 1080 270 1147 315 c 0
 1222 366 1260 435 1260 522 c 0
 1260 629 1193 716 1059 784 c 1
 1164 857 1217 935 1217 1018 c 0
 1217 1087 1185 1141 1122 1180 c 0
 1069 1211 1006 1227 932 1227 c 0
 850 1227 780 1208 723 1169 c 0
 656 1124 623 1063 623 985 c 0
 623 900 668 829 758 770 c 1
963 838 m 1
 842 899 782 956 782 1008 c 0
 782 1076 827 1110 915 1110 c 0
 1008 1110 1055 1070 1055 991 c 0
 1055 935 1024 884 963 838 c 1
850 709 m 1
 1010 625 1090 554 1090 494 c 0
 1090 453 1073 421 1040 397 c 0
 1008 374 970 362 928 362 c 0
 879 362 836 379 801 411 c 0
 765 443 748 483 748 530 c 0
 748 593 782 653 850 709 c 1
EndSplineSet
EndChar
